<svg width="86" height="120" viewBox="0 0 86 120" fill="none" xmlns="http://www.w3.org/2000/svg">
<path d="M72.7368 102.833C73.1644 103.948 73.3832 105.116 73.3853 106.289C73.3852 112.451 67.5386 117.445 60.3264 117.445C53.1141 117.445 47.2674 112.451 47.2674 106.289C47.2674 103.648 49.7732 101.508 52.8641 101.508C55.4274 101.508 57.5881 102.979 58.2513 104.988C60.7353 111.14 70.4683 107.44 72.7368 102.833Z" fill="black"/>
<path d="M50.6217 74.7267H19.5185V57.2645L19.5184 55.0165C19.5184 50.2175 16.7943 46.3176 12.6124 43.3837L11.0851 42.3212C6.16736 39.1947 2.95015 33.7972 2.94426 27.713C2.94426 18.0686 10.9833 10.2502 20.8998 10.2502C23.0496 10.2502 25.1804 10.643 27.1907 11.3836C30.3196 5.72408 36.3916 2.19269 42.9988 2.19055C49.4121 2.19055 55.3329 5.5368 58.5318 10.9428C60.2199 10.4843 61.9641 10.2515 63.7167 10.2502C74.3961 10.2502 83.0534 18.6699 83.0534 29.0558C83.0491 34.8016 80.376 40.009 76.1077 43.477L73.3851 45.6311C70.5286 47.7028 66.4791 50.101 66.4791 57.2645V74.7267H50.6217ZM56.1464 74.7267H60.4061Z" fill="black"/>
<path d="M66.475 66.6462H19.5186V75.1837H66.475V66.6462Z" fill="black"/>
<path d="M72.7362 102.83C70.9726 106.411 64.7118 109.424 60.8387 107.707C60.2953 111.332 57.7402 114.379 54.1354 116.052C55.9857 116.911 58.0763 117.445 60.3301 117.445C67.5423 117.445 73.3865 112.451 73.3865 106.289C73.3844 105.116 73.1637 103.945 72.7362 102.83V102.83Z" fill="black"/>
<path d="M58.4462 11.564C65.6055 14.3208 70.6686 21.1163 70.6686 29.0596C70.6643 34.8053 67.9918 40.0076 63.7235 43.4755L61.0055 45.6344C58.149 47.706 54.1021 50.1017 54.1021 57.2651V74.7242H56.1448H60.4052H66.4749V57.2651C66.4749 50.1017 70.5301 47.706 73.3866 45.6344L76.1046 43.4755C80.3729 40.0076 83.0454 34.8053 83.0497 29.0596C83.0497 18.6737 74.3945 10.2509 63.7152 10.2509C61.9626 10.2521 60.2173 10.4857 58.5293 10.9429L58.4462 11.564ZM14.8329 11.3509C14.8072 11.3509 14.7816 11.3509 14.7577 11.3509C14.7748 11.3509 14.7919 11.3509 14.8077 11.3509C14.8163 11.3509 14.8247 11.3508 14.8332 11.3081L14.8329 11.3509Z" fill="black"/>
<path d="M54.0939 66.6445V75.1821H66.475V66.6445H54.0939Z" fill="black"/>
<path d="M13.2608 102.833C12.8332 103.948 12.6143 105.116 12.6122 106.289C12.6122 112.451 18.4588 117.445 25.6711 117.445C32.8833 117.445 38.73 112.451 38.7301 106.289C38.7301 103.648 36.2244 101.508 33.1335 101.508C30.5702 101.508 28.4093 102.979 27.7462 104.988C25.2621 111.14 15.5294 107.44 13.2608 102.833Z" fill="black"/>
<path d="M42.9999 0.0630211C36.2297 0.0651555 30.2258 3.66415 26.5251 9.13414C24.6905 8.59798 22.827 8.11697 20.8974 8.11697C9.85898 8.11697 0.8125 16.888 0.8125 27.7183C0.821038 34.5538 4.44134 40.6293 9.94198 44.1263L11.3844 45.1352C15.195 47.8087 17.3873 51.032 17.3873 55.0233V57.2661V74.733C17.3874 75.9117 18.3429 76.8672 19.5217 76.8674H50.6203C53.5066 76.9101 53.5066 72.5578 50.6203 72.5986H21.6561V68.3549H64.3437V74.7413C64.301 77.6277 68.6533 77.6277 68.6124 74.7413V57.2745C68.6124 54.0951 69.4421 52.278 70.5467 50.8629C71.6513 49.4483 73.141 48.4568 74.6404 47.3696C74.6617 47.3525 74.6852 47.3354 74.707 47.3196L77.4333 45.1602C77.4376 45.1603 77.4461 45.1603 77.4504 45.1602C82.1917 41.3077 85.1827 35.4922 85.1875 29.0857C85.1875 17.5135 75.5198 8.14208 63.7186 8.14208C62.1924 8.14336 60.6898 8.42807 59.1997 8.74238C55.4655 3.50755 49.587 0.0880985 43.0001 0.0880985V0.0625L42.9999 0.0630211ZM42.9999 4.34009C47.925 4.34009 52.5043 6.58111 55.4643 10.2764C58.3445 13.8724 59.4627 18.4873 58.4575 22.9326C57.6869 25.794 62.0804 26.7889 62.6178 23.8747C63.4836 20.046 63.1272 16.0959 61.7007 12.5275C62.3704 12.4506 63.0423 12.3947 63.7184 12.3943C73.2759 12.3943 80.9185 19.8691 80.9185 29.0691C80.9147 34.1536 78.5606 38.75 74.7655 41.8337L72.1308 43.9181C70.7737 44.9025 68.8127 46.1435 67.1784 48.2369C65.5441 50.3303 64.3437 53.2906 64.3437 57.2747V64.0863H60.0749V54.3149C60.0749 49.0873 62.0702 47.3263 64.377 45.5522C66.0189 44.3234 65.1522 41.7119 63.1014 41.7087C62.6205 41.7078 62.1534 41.8696 61.7758 42.1672C59.1079 44.2192 55.8062 47.8033 55.8062 54.3149V64.0863H38.7311V58.5169V55.9407C38.7439 54.7391 37.7649 53.7625 36.5634 53.7813C35.388 53.7983 34.4487 54.7652 34.4623 55.9407V58.5169V64.0863H30.1936C30.1936 60.5534 30.1938 57.0236 30.1936 53.4895C30.1937 48.9095 28.4931 44.5162 25.4663 41.1417C25.0386 40.6489 24.409 40.3784 23.7571 40.408C21.9409 40.4904 21.0526 42.6609 22.2897 43.9931C24.618 46.5885 25.9249 49.966 25.9248 53.4895C25.925 57.0236 25.9249 60.5534 25.9248 64.0863H21.6561V57.2663V55.0235C21.656 49.4169 18.3887 44.8363 13.8356 41.642H13.827L12.3012 40.5831C12.2756 40.5661 12.2518 40.5404 12.2262 40.5246C7.89364 37.7704 5.08911 33.0479 5.081 27.7184C5.08527 19.2636 12.1053 12.3941 20.8971 12.3941C22.7843 12.3941 24.6712 12.7416 26.4498 13.3947C28.8642 14.2735 31.036 15.6864 32.7446 17.555C34.66 19.8 37.9607 16.7709 35.8878 14.6703C34.3133 12.9484 32.4322 11.5475 30.3684 10.4682C33.3205 6.6631 37.9705 4.34168 42.9996 4.34018L42.9999 4.34009ZM21.2725 16.1793C14.9597 16.2902 9.86998 21.5086 9.92531 27.8183C9.95946 31.6231 11.8456 35.0078 14.7277 37.0812C17.0399 38.7431 19.5328 35.2747 17.2206 33.6128C15.4009 32.3036 14.2152 30.1966 14.1941 27.7766C14.1599 23.7648 17.3246 20.5185 21.3476 20.448C24.1934 20.3981 24.1184 16.1292 21.2724 16.1793H21.2725ZM72.456 31.6368C71.5994 31.6283 70.8214 32.1351 70.48 32.9208C69.4392 35.2306 67.8896 37.2734 65.9528 38.8904C63.6687 40.7039 66.4947 44.0899 68.6875 42.167C71.1176 40.1385 73.0652 37.5757 74.3736 34.6717C75.0284 33.2637 74.0086 31.6499 72.456 31.6368V31.6368ZM56.148 72.5986C53.2616 72.5559 53.2616 76.9082 56.148 76.8674H60.4084C63.2948 76.9101 63.2948 72.5578 60.4084 72.5986H56.148ZM30.1936 83.2705C25.5037 83.2705 21.6561 87.1179 21.6561 91.808C21.6134 94.6944 25.9657 94.6944 25.9248 91.808C25.9248 89.4252 27.8107 87.5393 30.1936 87.5393C32.5765 87.5393 34.4623 89.4252 34.4623 91.808C34.4197 94.6944 38.772 94.6944 38.7311 91.808C38.7311 87.1179 34.8835 83.2705 30.1936 83.2705ZM55.8062 83.2705C51.1163 83.2705 47.2686 87.1179 47.2686 91.808C47.2259 94.6944 51.5782 94.6944 51.5374 91.808C51.5374 89.4252 53.4233 87.5393 55.8062 87.5393C58.1891 87.5393 60.0749 89.4252 60.0749 91.808C60.0322 94.6944 64.3845 94.6944 64.3437 91.808C64.3437 87.1179 60.4961 83.2705 55.8062 83.2705ZM52.863 99.3617V99.3788C48.7868 99.3788 45.1343 102.299 45.1343 106.291C45.1343 113.802 52.1274 119.58 60.325 119.58C68.5226 119.58 75.5158 113.802 75.5158 106.291C75.5133 104.854 75.2507 103.424 74.7321 102.072C74.0647 100.33 71.6421 100.222 70.8219 101.897C70.122 103.318 67.5213 105.283 65.0774 105.874C63.8554 106.168 62.7187 106.151 61.9342 105.874C61.1496 105.605 60.6454 105.202 60.2333 104.181L60.2761 104.306C59.2775 101.282 56.2443 99.3623 52.864 99.3623L52.863 99.3617ZM33.1367 99.3788C29.7563 99.3788 26.715 101.298 25.7164 104.323L25.7664 104.19C25.3545 105.21 24.8418 105.612 24.0572 105.882C23.2727 106.151 22.1443 106.168 20.9224 105.882C18.4784 105.291 15.8777 103.326 15.1779 101.905C14.3576 100.23 11.935 100.339 11.2676 102.08C10.7489 103.433 10.4782 104.863 10.4756 106.299C10.4757 113.811 17.4771 119.589 25.6747 119.589C33.8723 119.589 40.8654 113.811 40.8655 106.299C40.8654 102.308 37.213 99.3873 33.1367 99.3873V99.3787V99.3788ZM52.863 103.639V103.648C54.6093 103.648 55.8953 104.665 56.223 105.657C56.2401 105.702 56.2529 105.739 56.2729 105.782C57.1029 107.838 58.7402 109.286 60.55 109.909C62.3599 110.532 64.2724 110.455 66.0777 110.018C67.6031 109.65 69.0194 108.922 70.3465 108.108C69.2424 112.012 65.6528 115.303 60.3249 115.303C54.098 115.303 49.4029 111.094 49.4029 106.282C49.4029 104.991 50.7573 103.639 52.8629 103.639L52.863 103.639ZM33.1367 103.648C35.2423 103.648 36.5967 104.999 36.5967 106.291C36.5967 111.102 31.9016 115.312 25.6747 115.312C20.3468 115.312 16.7489 112.02 15.6448 108.117C16.9735 108.932 18.3941 109.656 19.9219 110.026C21.7272 110.462 23.6397 110.539 25.4496 109.917C27.2595 109.295 28.8967 107.846 29.7267 105.79C29.7438 105.747 29.7608 105.702 29.7766 105.657C30.1044 104.665 31.3903 103.648 33.1366 103.648L33.1367 103.648Z" fill="black"/>
</svg>
