<svg width="500" height="118" viewBox="0 0 500 118" fill="none" xmlns="http://www.w3.org/2000/svg">
<path d="M130.934 88.7911C127.551 88.7911 124.489 88.31 121.749 87.3479C119.008 86.4104 116.662 85.0411 114.712 83.2402C112.761 81.4392 111.255 79.2434 110.193 76.653C109.156 74.0625 108.638 71.1267 108.638 67.8454C108.638 64.0954 109.193 60.6661 110.304 57.5576C111.44 54.449 113.082 51.7722 115.23 49.5272C117.378 47.2821 119.996 45.5551 123.082 44.3462C126.169 43.1127 129.675 42.4959 133.601 42.4959C135.527 42.4959 137.317 42.6933 138.971 43.088C140.625 43.4828 142.07 44.0255 143.304 44.7163C144.564 45.3824 145.539 46.1472 146.23 47.0107C146.922 47.8742 147.267 48.7747 147.267 49.7122C147.267 50.9704 146.946 51.9203 146.304 52.5617C145.662 53.1785 144.835 53.4869 143.823 53.4869C143.156 53.4869 142.539 53.3635 141.971 53.1168C141.403 52.8701 140.761 52.5864 140.045 52.2656C139.354 51.9449 138.465 51.6612 137.378 51.4145C136.317 51.1678 134.959 51.0444 133.304 51.0444C131.872 51.0444 130.477 51.3652 129.119 52.0066C127.761 52.6234 126.539 53.5485 125.452 54.7821C124.366 55.991 123.502 57.4959 122.86 59.2969C122.243 61.0979 121.934 63.1702 121.934 65.514C121.934 67.315 122.144 69.0296 122.564 70.6579C123.008 72.2615 123.687 73.6925 124.601 74.9507C125.539 76.2089 126.724 77.2081 128.156 77.9482C129.613 78.6637 131.366 79.0214 133.415 79.0214C134.872 79.0214 136.144 78.824 137.23 78.4293C138.341 78.0099 139.317 77.5411 140.156 77.023C141.02 76.4803 141.81 76.0115 142.527 75.6168C143.267 75.2221 143.983 75.0247 144.675 75.0247C146.329 75.0247 147.465 75.4071 148.082 76.1719C148.699 76.912 149.008 77.9482 149.008 79.2804C149.008 80.588 148.551 81.8216 147.638 82.9811C146.749 84.1406 145.477 85.1522 143.823 86.0156C142.193 86.8791 140.28 87.5576 138.082 88.051C135.909 88.5444 133.527 88.7911 130.934 88.7911ZM203.34 87.829C202.154 87.829 201.105 87.5699 200.191 87.0518C199.302 86.5584 198.525 85.7689 197.858 84.6834C197.611 84.0913 197.364 83.4128 197.117 82.648C196.87 81.8832 196.623 81.1061 196.377 80.3166C196.13 79.5025 195.87 78.7253 195.599 77.9852C195.327 77.2204 195.043 76.5543 194.747 75.9869C194.352 75.2221 193.895 74.6546 193.377 74.2846C192.858 73.8898 192.142 73.6184 191.228 73.4704C190.784 73.3964 190.13 73.3224 189.265 73.2484C188.426 73.1744 187.488 73.1127 186.451 73.0633C185.438 73.014 184.475 72.9893 183.562 72.9893C182.179 72.9893 180.772 73.0263 179.339 73.1003C177.932 73.1744 176.71 73.2607 175.673 73.3594C174.759 73.4827 174.056 73.7048 173.562 74.0255C173.068 74.3216 172.66 74.8027 172.339 75.4688C172.019 76.1102 171.685 76.8874 171.339 77.8002C171.019 78.6883 170.685 79.6258 170.339 80.6127C169.994 81.5995 169.636 82.5494 169.265 83.4622C168.698 84.6217 167.981 85.5222 167.117 86.1637C166.253 86.8051 165.043 87.1258 163.488 87.1258C162.228 87.1258 161.179 86.9285 160.339 86.5337C159.5 86.139 158.87 85.4976 158.451 84.6094C158.031 83.7212 157.821 82.5247 157.821 81.0198C157.821 79.8109 157.981 78.417 158.302 76.838C158.648 75.2344 159.093 73.5444 159.636 71.7681C160.204 69.9671 160.821 68.1661 161.488 66.3652C162.179 64.5395 162.883 62.8002 163.599 61.1472C164.315 59.4696 164.994 57.9647 165.636 56.6324C166.278 55.2755 166.833 54.2023 167.302 53.4128C168.142 51.9573 169.105 50.5387 170.191 49.1571C171.302 47.7508 172.537 46.4926 173.895 45.3824C175.278 44.2476 176.796 43.3471 178.451 42.6809C180.13 42.0148 181.969 41.6818 183.969 41.6818C187.105 41.6818 189.969 42.5699 192.562 44.3462C195.154 46.0979 197.488 48.454 199.562 51.4145C200.352 52.4754 201.13 53.8076 201.895 55.4112C202.685 56.9902 203.451 58.7418 204.191 60.6661C204.932 62.5905 205.611 64.5765 206.228 66.6242C206.846 68.6719 207.389 70.6949 207.858 72.6933C208.352 74.667 208.722 76.5173 208.969 78.2443C209.241 79.9466 209.377 81.4268 209.377 82.6851C209.377 84.5601 208.833 85.88 207.747 86.6448C206.66 87.4342 205.191 87.829 203.34 87.829ZM191.821 65.8101C192.34 65.6867 192.685 65.4523 192.858 65.1069C193.031 64.7615 193.117 64.2311 193.117 63.5156C193.117 62.8249 192.994 61.986 192.747 60.9992C192.525 59.9877 192.216 58.9392 191.821 57.8536C191.426 56.7434 190.969 55.7196 190.451 54.7821C189.71 53.4005 188.846 52.2533 187.858 51.3405C186.87 50.403 185.796 49.9342 184.636 49.9342C183.327 49.9342 182.093 50.4523 180.932 51.4885C179.772 52.5247 178.747 53.8076 177.858 55.3372C177.512 55.9293 177.154 56.6201 176.784 57.4096C176.414 58.1744 176.068 58.9638 175.747 59.778C175.426 60.5921 175.167 61.3693 174.969 62.1094C174.772 62.8249 174.673 63.4416 174.673 63.9597C174.673 64.7245 174.981 65.2673 175.599 65.588C176.241 65.8841 177.179 66.0321 178.414 66.0321C180.735 66.0321 182.747 66.0321 184.451 66.0321C186.154 66.0321 187.611 66.0198 188.821 65.9951C190.031 65.9457 191.031 65.8841 191.821 65.8101ZM239.529 87.7549C234.097 87.7549 229.665 86.3364 226.233 83.4992C222.825 80.662 220.369 76.912 218.862 72.2492C218.566 71.3364 218.307 70.3989 218.085 69.4367C217.887 68.4499 217.702 67.4507 217.529 66.4392C217.381 65.403 217.257 64.3545 217.159 63.2936C217.06 62.2081 216.986 61.1102 216.936 60C216.887 58.8898 216.862 57.7673 216.862 56.6324C216.862 53.3265 217.097 50.6497 217.566 48.602C218.06 46.5543 218.85 45.0617 219.936 44.1242C221.023 43.1867 222.455 42.7179 224.233 42.7179C225.467 42.7179 226.467 43.1003 227.233 43.8652C228.023 44.6053 228.603 45.8758 228.973 47.6768C229.344 49.4778 229.529 51.9819 229.529 55.1892C229.529 56.1513 229.541 57.1012 229.566 58.0387C229.591 58.9762 229.628 59.9013 229.677 60.8142C229.751 61.7023 229.838 62.5781 229.936 63.4416C230.035 64.2804 230.159 65.0946 230.307 65.8841C230.455 66.6489 230.64 67.389 230.862 68.1045C231.504 70.4235 232.517 72.2862 233.899 73.6925C235.282 75.0987 237.171 75.8018 239.566 75.8018C241.097 75.8018 242.443 75.4811 243.603 74.8397C244.764 74.1982 245.751 73.31 246.566 72.1752C247.381 71.0156 248.048 69.6711 248.566 68.1415C248.887 67.2286 249.159 66.2665 249.381 65.255C249.628 64.2188 249.813 63.1579 249.936 62.0724C250.085 60.9622 250.183 59.8397 250.233 58.7048C250.307 57.5452 250.344 56.398 250.344 55.2632C250.344 52.204 250.566 49.7985 251.01 48.0469C251.455 46.2706 252.134 45 253.048 44.2352C253.986 43.4704 255.159 43.088 256.566 43.088C258.097 43.088 259.27 43.5568 260.085 44.4943C260.899 45.4318 261.455 46.912 261.751 48.9351C262.072 50.9334 262.233 53.5485 262.233 56.7804C262.233 57.9153 262.196 59.0378 262.122 60.148C262.072 61.2582 261.986 62.3561 261.862 63.4416C261.739 64.5025 261.578 65.551 261.381 66.5872C261.208 67.5987 260.998 68.5979 260.751 69.5847C260.529 70.5469 260.257 71.4967 259.936 72.4342C258.875 75.5181 257.393 78.2073 255.492 80.5017C253.615 82.7961 251.344 84.5847 248.677 85.8676C246.035 87.1258 242.986 87.7549 239.529 87.7549ZM282.07 87.1628C281.057 87.1628 280.107 86.9161 279.218 86.4227C278.354 85.9293 277.564 85.1892 276.848 84.2023C276.156 83.1908 275.551 81.9079 275.033 80.3536C274.835 79.6135 274.638 78.7007 274.44 77.6151C274.243 76.5296 274.057 75.3454 273.885 74.0625C273.712 72.7796 273.551 71.4597 273.403 70.1028C273.28 68.7212 273.156 67.3643 273.033 66.0321C272.934 64.6752 272.848 63.4046 272.773 62.2204C272.724 61.0362 272.699 59.9877 272.699 59.0749C272.699 54.7821 273.28 51.3898 274.44 48.898C275.625 46.4063 277.527 44.63 280.144 43.5691C282.761 42.5082 286.206 41.9778 290.477 41.9778C293.638 41.9778 296.662 42.2739 299.551 42.866C302.44 43.4334 304.996 44.3339 307.218 45.5675C309.465 46.7763 311.23 48.3553 312.514 50.3043C313.823 52.2533 314.477 54.5971 314.477 57.3355C314.477 59.4079 314.045 61.2336 313.181 62.8125C312.341 64.3668 311.131 65.6744 309.551 66.7352C307.996 67.7961 306.156 68.6226 304.033 69.2147C301.909 69.8068 299.576 70.1768 297.033 70.3249C295.403 70.3989 293.835 70.3865 292.329 70.2878C290.848 70.1892 289.415 70.1398 288.033 70.1398C287.317 70.1398 286.86 70.3989 286.662 70.917C286.49 71.4351 286.403 72.1628 286.403 73.1003C286.403 73.5198 286.415 74.0255 286.44 74.6176C286.465 75.2097 286.489 75.8512 286.514 76.542C286.564 77.2081 286.601 77.8742 286.625 78.5403C286.675 79.1818 286.699 79.7985 286.699 80.3906C286.724 80.9581 286.736 81.4392 286.736 81.8339C286.736 83.6102 286.354 84.9425 285.588 85.8306C284.848 86.7188 283.675 87.1628 282.07 87.1628ZM288.403 63.8117C289.86 63.8117 291.317 63.7377 292.773 63.5897C294.23 63.4416 295.613 63.2073 296.922 62.8865C298.23 62.5658 299.378 62.1341 300.366 61.5913C301.378 61.0485 302.181 60.3824 302.773 59.5929C303.366 58.8035 303.662 57.866 303.662 56.7804C303.662 55.5962 303.378 54.5847 302.811 53.7459C302.267 52.8824 301.551 52.167 300.662 51.5995C299.798 51.0321 298.86 50.588 297.848 50.2673C296.835 49.9466 295.835 49.7245 294.848 49.6012C293.885 49.4531 293.057 49.3791 292.366 49.3791C291.057 49.3791 289.934 49.4902 288.996 49.7122C288.082 49.9096 287.329 50.2303 286.736 50.6744C286.144 51.0938 285.712 51.6365 285.44 52.3026C285.193 52.9688 285.07 53.7706 285.07 54.7081C285.07 55.991 285.094 57.1258 285.144 58.1127C285.218 59.0995 285.329 59.9507 285.477 60.6661C285.625 61.3816 285.823 61.9737 286.07 62.4424C286.341 62.8865 286.662 63.2319 287.033 63.4786C287.428 63.7007 287.885 63.8117 288.403 63.8117ZM346.599 90.2344C343.044 90.2344 339.772 89.6916 336.785 88.6061C333.822 87.5452 331.241 86.0156 329.044 84.0173C326.871 81.9943 325.18 79.5518 323.97 76.69C322.76 73.8281 322.155 70.6086 322.155 67.0313C322.155 63.6267 322.686 60.5921 323.748 57.9277C324.809 55.2385 326.254 52.9071 328.081 50.9334C329.933 48.9597 332.056 47.3314 334.451 46.0485C336.846 44.741 339.389 43.7788 342.081 43.162C344.797 42.5206 347.538 42.1999 350.303 42.1999C354.056 42.1999 357.55 42.7426 360.785 43.8281C364.019 44.9137 366.846 46.4803 369.266 48.528C371.686 50.551 373.562 52.9934 374.896 55.8553C376.254 58.6925 376.933 61.8874 376.933 65.44C376.933 69.3627 376.143 72.866 374.562 75.9499C373.007 79.0091 370.834 81.5995 368.044 83.7212C365.278 85.8429 362.056 87.4589 358.377 88.5691C354.723 89.6793 350.797 90.2344 346.599 90.2344ZM348.822 78.1332C352.599 78.1332 355.624 77.5288 357.896 76.3199C360.167 75.111 361.809 73.5074 362.822 71.5091C363.834 69.5107 364.34 67.3397 364.34 64.9959C364.34 62.8249 363.982 60.8882 363.266 59.1859C362.55 57.4836 361.538 56.0403 360.229 54.8561C358.945 53.6472 357.439 52.7344 355.71 52.1176C354.007 51.5008 352.18 51.1925 350.229 51.1925C348.303 51.1925 346.464 51.4762 344.711 52.0436C342.982 52.611 341.439 53.4375 340.081 54.523C338.723 55.5839 337.649 56.8791 336.859 58.4087C336.069 59.9383 335.673 61.653 335.673 63.5526C335.673 65.7484 335.994 67.7467 336.636 69.5477C337.303 71.324 338.217 72.8536 339.377 74.1365C340.562 75.4194 341.957 76.4063 343.562 77.0971C345.167 77.7878 346.92 78.1332 348.822 78.1332ZM393.415 88.125C392.205 88.125 391.205 87.8043 390.415 87.1628C389.625 86.5214 388.958 85.6332 388.415 84.4984C388.143 83.9063 387.896 82.9811 387.674 81.7229C387.452 80.4647 387.242 79.0214 387.044 77.3931C386.872 75.7402 386.711 74.0255 386.563 72.2492C386.415 70.4482 386.291 68.6842 386.193 66.9573C386.094 65.2056 386.02 63.6267 385.97 62.2204C385.921 60.7895 385.896 59.6546 385.896 58.8158C385.896 55.5099 386.131 52.6851 386.6 50.3413C387.069 47.9976 387.896 46.2089 389.081 44.9753C390.291 43.7171 392.02 43.088 394.267 43.088C395.748 43.088 397.156 43.5691 398.489 44.5313C399.847 45.4688 401.353 46.9737 403.007 49.0461C404.686 51.0938 406.736 53.7829 409.156 57.1135C412.267 61.505 414.822 64.8109 416.822 67.0313C418.822 69.2517 420.279 70.3619 421.193 70.3619C421.612 70.3619 421.958 70.2755 422.23 70.1028C422.526 69.9054 422.76 69.5107 422.933 68.9186C423.106 68.3265 423.23 67.4507 423.304 66.2911C423.328 65.773 423.353 65.0082 423.378 63.9967C423.402 62.9852 423.415 61.838 423.415 60.5551C423.44 59.2476 423.452 57.9153 423.452 56.5584C423.477 55.2015 423.501 53.9186 423.526 52.7097C423.551 51.4762 423.588 50.4153 423.637 49.5272C423.686 48.639 423.736 48.0222 423.785 47.6768C424.18 46.0979 424.785 45 425.6 44.3832C426.439 43.7665 427.588 43.4581 429.044 43.4581C430.156 43.4581 431.094 43.6431 431.859 44.0132C432.625 44.3832 433.242 44.9507 433.711 45.7155C434.18 46.4556 434.526 47.3808 434.748 48.491C434.97 49.6012 435.094 50.8964 435.118 52.3767C435.143 53.1908 435.156 54.2763 435.156 55.6332C435.18 56.9655 435.18 58.4704 435.156 60.148C435.156 61.801 435.131 63.5156 435.081 65.292C435.057 67.0683 435.007 68.8076 434.933 70.5099C434.859 72.1875 434.748 73.7295 434.6 75.1357C434.477 76.5173 434.316 77.6645 434.119 78.5773C433.723 80.5017 433.18 82.1053 432.489 83.3882C431.798 84.6464 430.884 85.5962 429.748 86.2377C428.637 86.8545 427.242 87.1628 425.563 87.1628C424.106 87.1628 422.538 86.5214 420.859 85.2385C419.18 83.9309 417.402 82.1546 415.526 79.9096C413.649 77.6398 411.674 75.074 409.6 72.2122C408.267 70.3865 407.044 68.7212 405.933 67.2163C404.847 65.6867 403.884 64.3791 403.044 63.2936C402.23 62.2081 401.526 61.3816 400.933 60.8142C400.341 60.2221 399.896 59.926 399.6 59.926C398.958 59.926 398.501 60.2714 398.23 60.9622C397.983 61.6283 397.859 62.9852 397.859 65.0329C397.859 66.0198 397.872 67.1053 397.896 68.2895C397.946 69.449 397.995 70.6579 398.044 71.9161C398.119 73.1497 398.18 74.3956 398.23 75.6538C398.279 76.8874 398.316 78.0839 398.341 79.2434C398.365 80.3783 398.365 81.4392 398.341 82.426C398.341 83.3882 398.291 84.227 398.193 84.9425C397.822 86.1267 397.23 86.9531 396.415 87.4219C395.625 87.8906 394.625 88.125 393.415 88.125ZM490.274 87.829C489.089 87.829 488.04 87.5699 487.126 87.0518C486.237 86.5584 485.459 85.7689 484.793 84.6834C484.546 84.0913 484.299 83.4128 484.052 82.648C483.805 81.8832 483.558 81.1061 483.311 80.3166C483.064 79.5025 482.805 78.7253 482.533 77.9852C482.262 77.2204 481.978 76.5543 481.682 75.9869C481.286 75.2221 480.83 74.6546 480.311 74.2846C479.793 73.8898 479.077 73.6184 478.163 73.4704C477.719 73.3964 477.064 73.3224 476.2 73.2484C475.361 73.1744 474.422 73.1127 473.385 73.0633C472.373 73.014 471.41 72.9893 470.496 72.9893C469.114 72.9893 467.706 73.0263 466.274 73.1003C464.867 73.1744 463.644 73.2607 462.607 73.3594C461.694 73.4827 460.99 73.7048 460.496 74.0255C460.003 74.3216 459.595 74.8027 459.274 75.4688C458.953 76.1102 458.62 76.8874 458.274 77.8002C457.953 78.6883 457.62 79.6258 457.274 80.6127C456.928 81.5995 456.57 82.5494 456.2 83.4622C455.632 84.6217 454.916 85.5222 454.052 86.1637C453.188 86.8051 451.978 87.1258 450.422 87.1258C449.163 87.1258 448.114 86.9285 447.274 86.5337C446.435 86.139 445.805 85.4976 445.385 84.6094C444.965 83.7212 444.756 82.5247 444.756 81.0198C444.756 79.8109 444.916 78.417 445.237 76.838C445.583 75.2344 446.027 73.5444 446.57 71.7681C447.138 69.9671 447.756 68.1661 448.422 66.3652C449.114 64.5395 449.817 62.8002 450.533 61.1472C451.249 59.4696 451.928 57.9647 452.57 56.6324C453.212 55.2755 453.768 54.2023 454.237 53.4128C455.077 51.9573 456.039 50.5387 457.126 49.1571C458.237 47.7508 459.472 46.4926 460.83 45.3824C462.212 44.2476 463.731 43.3471 465.385 42.6809C467.064 42.0148 468.904 41.6818 470.904 41.6818C474.04 41.6818 476.904 42.5699 479.496 44.3462C482.089 46.0979 484.422 48.454 486.496 51.4145C487.286 52.4754 488.064 53.8076 488.83 55.4112C489.62 56.9902 490.385 58.7418 491.126 60.6661C491.867 62.5905 492.546 64.5765 493.163 66.6242C493.78 68.6719 494.323 70.6949 494.793 72.6933C495.286 74.667 495.657 76.5173 495.904 78.2443C496.175 79.9466 496.311 81.4268 496.311 82.6851C496.311 84.5601 495.768 85.88 494.681 86.6448C493.595 87.4342 492.126 87.829 490.274 87.829ZM478.756 65.8101C479.274 65.6867 479.62 65.4523 479.793 65.1069C479.965 64.7615 480.052 64.2311 480.052 63.5156C480.052 62.8249 479.928 61.986 479.681 60.9992C479.459 59.9877 479.151 58.9392 478.756 57.8536C478.361 56.7434 477.904 55.7196 477.385 54.7821C476.644 53.4005 475.78 52.2533 474.793 51.3405C473.805 50.403 472.731 49.9342 471.57 49.9342C470.262 49.9342 469.027 50.4523 467.867 51.4885C466.706 52.5247 465.682 53.8076 464.793 55.3372C464.447 55.9293 464.089 56.6201 463.719 57.4096C463.348 58.1744 463.002 58.9638 462.681 59.778C462.361 60.5921 462.101 61.3693 461.904 62.1094C461.706 62.8249 461.607 63.4416 461.607 63.9597C461.607 64.7245 461.916 65.2673 462.533 65.588C463.175 65.8841 464.114 66.0321 465.348 66.0321C467.669 66.0321 469.682 66.0321 471.385 66.0321C473.089 66.0321 474.546 66.0198 475.756 65.9951C476.965 65.9457 477.965 65.8841 478.756 65.8101Z" fill="#76B900"/>
<path d="M84.1728 95.4899C84.5395 96.4465 84.7278 97.4481 84.7296 98.4547C84.7296 103.74 79.7099 108.025 73.5173 108.025C67.3247 108.025 62.3049 103.74 62.3049 98.4547C62.3049 96.1887 64.4562 94.3525 67.1099 94.3525C69.3111 94.3525 71.166 95.6157 71.7358 97.3384C73.8685 102.617 82.2247 99.4422 84.1728 95.4899Z" fill="#B3B3B3"/>
<path d="M65.1846 71.3783H38.4799V56.3975L38.4799 54.469C38.4798 50.352 36.1409 47.0064 32.5504 44.4894L31.2391 43.5779C27.0167 40.8957 24.2545 36.2653 24.2495 31.0457C24.2495 22.7719 31.1517 16.0647 39.6659 16.0647C41.5117 16.0647 43.3412 16.4016 45.0672 17.037C47.7536 12.1818 52.967 9.15224 58.6399 9.15039C64.1463 9.15039 69.2296 12.0211 71.9765 16.6588C73.4259 16.2655 74.9235 16.0658 76.4284 16.0647C85.5975 16.0647 93.0303 23.2878 93.0303 32.1977C93.0266 37.1269 90.7315 41.5943 87.0667 44.5694L84.7296 46.4174C82.2766 48.1947 78.8 50.2521 78.8 56.3975V71.3783H65.1846ZM69.9284 71.3783H73.5858H69.9284Z" fill="white"/>
<path d="M78.7963 64.4458H38.48V71.77H78.7963V64.4458Z" fill="#76B900"/>
<path d="M84.1722 95.4868C82.658 98.559 77.2827 101.145 73.9574 99.671C73.4907 102.781 71.2969 105.395 68.2018 106.831C69.7907 107.568 71.5858 108.025 73.5204 108.025C79.713 108.025 84.7309 103.741 84.7309 98.4547C84.729 97.4482 84.5395 96.4434 84.1722 95.4868Z" fill="#8E8E8E"/>
<path d="M71.9025 17.1915C78.05 19.5566 82.3969 25.3863 82.3969 32.2007C82.3932 37.1299 80.0988 41.5929 76.4339 44.568L74.1 46.42C71.6475 48.1973 68.1728 50.2525 68.1728 56.3979V71.3758H69.9265H73.5846H78.7963V56.3979C78.7963 50.2525 82.2778 48.1973 84.7302 46.42L87.0642 44.568C90.729 41.5929 93.0235 37.1299 93.0272 32.2007C93.0272 23.2908 85.5957 16.0651 76.4265 16.0651C74.9222 16.0661 73.4234 16.2665 71.9741 16.6587L71.9025 17.1915ZM34.4567 17.0087C34.4347 17.0087 34.4127 17.0087 34.3922 17.0087C34.4068 17.0087 34.4215 17.0087 34.4351 17.0087C34.4425 17.0087 34.4497 17.0087 34.457 16.9721L34.4567 17.0087Z" fill="#DDDDDD"/>
<path d="M68.166 64.4445V71.7687H78.7963V64.4445H68.166Z" fill="#558500"/>
<path d="M33.1067 95.4899C32.7396 96.4465 32.5517 97.4481 32.5498 98.4547C32.5499 103.74 37.5697 108.025 43.7621 108.025C49.9544 108.025 54.9744 103.74 54.9744 98.4547C54.9744 96.1887 52.8231 94.3525 50.1692 94.3525C47.9684 94.3525 46.1131 95.6157 45.5438 97.3384C43.4109 102.617 35.0545 99.4422 33.1067 95.4899Z" fill="#B3B3B3"/>
<path d="M58.6409 7.32502C52.828 7.32687 47.6731 10.4144 44.4957 15.107C42.9206 14.6471 41.3206 14.2344 39.6638 14.2344C30.1864 14.2344 22.4191 21.7589 22.4191 31.0501C22.4264 36.9142 25.5348 42.1263 30.2576 45.1263L31.496 45.9918C34.7678 48.2854 36.6501 51.0506 36.6501 54.4747V56.3988V71.3832C36.6502 72.3947 37.4706 73.2144 38.4826 73.2144H65.1839C67.6617 73.2508 67.6617 69.5175 65.1839 69.552H40.3152V65.9118H76.9667V71.3906C76.9296 73.8664 80.6667 73.8664 80.6315 71.3906V56.4059C80.6315 53.6783 81.3438 52.1196 82.2926 50.9056C83.2407 49.6919 84.5198 48.8414 85.8074 47.9087C85.8253 47.894 85.8457 47.8794 85.8642 47.8658L88.2049 46.0133C88.2086 46.0133 88.216 46.0133 88.2198 46.0133C92.2907 42.7082 94.8586 37.7193 94.863 32.2232C94.863 22.2955 86.5623 14.256 76.4296 14.256C75.1191 14.257 73.829 14.5013 72.55 14.7709C69.3438 10.2801 64.2963 7.34654 58.641 7.34654V7.32458L58.6409 7.32502ZM58.6409 10.9943C62.8698 10.9943 66.8012 12.9168 69.3426 16.0869C71.8154 19.1719 72.7759 23.131 71.9123 26.9445C71.2512 29.3993 75.0235 30.2528 75.4846 27.7528C76.2278 24.4681 75.9222 21.0794 74.6975 18.0181C75.2722 17.9522 75.8494 17.9042 76.4296 17.9038C84.6358 17.9038 91.1975 24.3164 91.1975 32.209C91.1944 36.5709 89.1728 40.5141 85.9148 43.1595L83.6525 44.9477C82.487 45.7922 80.8037 46.8568 79.4006 48.6527C77.9969 50.4486 76.9667 52.9882 76.9667 56.4061V62.25H73.3012V53.8669C73.3012 49.3823 75.0142 47.8715 76.9951 46.3496C78.4049 45.2954 77.6605 43.055 75.9 43.0522C75.487 43.0515 75.0858 43.1903 74.7617 43.4456C72.471 45.206 69.6364 48.2808 69.6364 53.8669V62.25H54.9757V57.4718V55.2617C54.9867 54.2309 54.1462 53.3931 53.1145 53.4092C52.1053 53.4238 51.2989 54.2532 51.3106 55.2617V57.4718V62.25H47.6455C47.6455 59.2189 47.6457 56.1907 47.6455 53.1588C47.6455 49.2297 46.1854 45.4608 43.5867 42.5659C43.2194 42.143 42.6788 41.911 42.1191 41.9364C40.5598 42.0071 39.7971 43.8691 40.8593 45.0121C42.8583 47.2386 43.9804 50.1361 43.9804 53.1588C43.9806 56.1907 43.9804 59.2189 43.9804 62.25H40.3152V56.3989V54.4749C40.3152 49.665 37.5099 45.7354 33.6006 42.995H33.5932L32.2832 42.0867C32.2612 42.072 32.2408 42.05 32.2188 42.0365C28.4989 39.6737 26.091 35.6223 26.084 31.0502C26.0876 23.797 32.1151 17.9037 39.6636 17.9037C41.2839 17.9037 42.904 18.2018 44.4311 18.7621C46.5041 19.516 48.3688 20.7281 49.8357 22.3312C51.4803 24.2571 54.3143 21.6585 52.5344 19.8564C51.1827 18.3793 49.5675 17.1775 47.7956 16.2515C50.3302 12.9871 54.3227 10.9956 58.6406 10.9943L58.6409 10.9943ZM39.9859 21.1509C34.5657 21.2462 30.1958 25.7229 30.2433 31.1359C30.2726 34.4 31.892 37.3037 34.3665 39.0824C36.3518 40.5081 38.4922 37.5327 36.5069 36.1069C34.9446 34.9837 33.9265 33.1762 33.9084 31.1001C33.8791 27.6585 36.5962 24.8735 40.0504 24.813C42.4938 24.7702 42.4293 21.108 39.9858 21.1509H39.9859ZM83.9315 34.4118C83.1963 34.4045 82.5284 34.8392 82.2352 35.5132C81.3414 37.4948 80.0111 39.2473 78.3481 40.6345C76.387 42.1903 78.8136 45.095 80.6963 43.4455C82.7827 41.7052 84.4549 39.5066 85.5778 37.0153C86.1401 35.8074 85.2648 34.423 83.9315 34.4118ZM69.9296 69.552C67.4512 69.5156 67.4512 73.2496 69.9296 73.2144H73.5877C76.066 73.2508 76.066 69.5175 73.5877 69.552H69.9296ZM47.6455 78.7074C43.6188 78.7074 40.3152 82.0084 40.3152 86.0317C40.2786 88.508 44.0154 88.508 43.9804 86.0317C43.9804 83.9877 45.5996 82.3699 47.6455 82.3699C49.6914 82.3699 51.3106 83.9877 51.3106 86.0317C51.2739 88.508 55.0108 88.508 54.9757 86.0317C54.9757 82.0084 51.6722 78.7074 47.6455 78.7074ZM69.6364 78.7074C65.6093 78.7074 62.3062 82.0084 62.3062 86.0317C62.2691 88.508 66.0062 88.508 65.971 86.0317C65.971 83.9877 67.5901 82.3699 69.6364 82.3699C71.6821 82.3699 73.3012 83.9877 73.3012 86.0317C73.2648 88.508 77.0012 88.508 76.9667 86.0317C76.9667 82.0084 73.663 78.7074 69.6364 78.7074ZM67.1093 92.5121V92.5269C63.6093 92.5269 60.4734 95.0323 60.4734 98.456C60.4735 104.9 66.4778 109.857 73.516 109.857C80.5543 109.857 86.5586 104.9 86.5586 98.456C86.5568 97.2237 86.3309 95.9969 85.8858 94.8368C85.313 93.3429 83.2327 93.2498 82.5284 94.6869C81.9278 95.9056 79.6951 97.5919 77.5963 98.0983C76.5475 98.3512 75.571 98.3363 74.8975 98.0983C74.2241 97.8676 73.7914 97.5222 73.4377 96.6464L73.4741 96.7537C72.6167 94.1595 70.0123 92.5127 67.1099 92.5127L67.1093 92.5121ZM50.1724 92.5269C47.2701 92.5269 44.6588 94.1737 43.8014 96.7679L43.8443 96.6538C43.4907 97.5296 43.0505 97.8738 42.3768 98.1057C41.7033 98.3364 40.7344 98.3512 39.6853 98.1057C37.5869 97.5987 35.354 95.913 34.7531 94.6943C34.0488 93.2572 31.9688 93.3503 31.3958 94.8442C30.9504 96.0043 30.718 97.2311 30.7157 98.4634C30.7158 104.907 36.7272 109.865 43.7656 109.865C50.804 109.865 56.8082 104.907 56.8083 98.4634C56.8083 95.0391 53.6723 92.5337 50.1724 92.5337V92.5263V92.5269ZM67.1093 96.1813V96.1887C68.6086 96.1887 69.713 97.0615 69.9944 97.9126C70.0086 97.9509 70.0197 97.9823 70.037 98.0199C70.7494 99.7833 72.1556 101.026 73.7093 101.56C75.263 102.095 76.9056 102.029 78.4556 101.653C79.7648 101.339 80.9809 100.713 82.1204 100.016C81.1722 103.364 78.0907 106.188 73.516 106.188C68.1698 106.188 64.1383 102.577 64.1383 98.4492C64.1383 97.3415 65.3012 96.182 67.1093 96.182V96.1813ZM50.1724 96.1887C51.9803 96.1887 53.1431 97.3483 53.1431 98.456C53.1431 102.584 49.112 106.195 43.7656 106.195C39.1911 106.195 36.1019 103.372 35.154 100.023C36.2948 100.723 37.5145 101.344 38.8263 101.661C40.3763 102.035 42.0183 102.101 43.5723 101.568C45.1262 101.034 46.532 99.7901 47.2446 98.0274C47.2593 97.9897 47.2739 97.9509 47.2875 97.9126C47.5689 97.0615 48.673 96.1887 50.1723 96.1887H50.1724Z" fill="black"/>
</svg>
