<svg width="32" height="32" viewBox="0 0 32 32" fill="none" xmlns="http://www.w3.org/2000/svg">
<path d="M22.3439 24.9244C22.4351 25.1623 22.4818 25.4113 22.4822 25.6617C22.4822 26.9761 21.2349 28.0416 19.6963 28.0416C18.1577 28.0416 16.9104 26.9761 16.9104 25.6617C16.9104 25.0982 17.445 24.6416 18.1044 24.6416C18.6512 24.6416 19.1122 24.9556 19.2536 25.3841C19.7836 26.6966 21.8599 25.9072 22.3439 24.9244Z" fill="#5A5A5A"/>
<path d="M17.626 18.9284H10.9907V15.2031L10.9907 14.7235C10.9906 13.6997 10.4095 12.8678 9.51737 12.2418L9.19155 12.0152C8.14243 11.3482 7.45609 10.1967 7.45483 8.89876C7.45483 6.84129 9.16982 5.17338 11.2854 5.17338C11.744 5.17338 12.1985 5.25716 12.6274 5.41516C13.2949 4.2078 14.5903 3.45443 15.9998 3.45398C17.368 3.45398 18.6311 4.16785 19.3135 5.32112C19.6736 5.22331 20.0457 5.17365 20.4196 5.17338C22.6979 5.17338 24.5448 6.96958 24.5448 9.18524C24.5439 10.411 23.9736 11.5219 23.063 12.2617L22.4822 12.7213C21.8728 13.1633 21.0089 13.6749 21.0089 15.2031V18.9284H17.626ZM18.8046 18.9284H19.7134H18.8046Z" fill="white"/>
<path d="M21.008 17.2046H10.9906V19.0259H21.008V17.2046Z" fill="#76B900"/>
<path d="M22.3438 24.9237C21.9676 25.6877 20.6319 26.3306 19.8056 25.9642C19.6897 26.7375 19.1446 27.3876 18.3756 27.7445C18.7703 27.9278 19.2163 28.0417 19.6971 28.0417C21.2358 28.0417 22.4825 26.9762 22.4825 25.6617C22.4821 25.4114 22.435 25.1616 22.3438 24.9237Z" fill="#5A5A5A"/>
<path d="M19.2952 5.4536C20.8225 6.04171 21.9026 7.49141 21.9026 9.18599C21.9017 10.4117 21.3316 11.5216 20.421 12.2614L19.8412 12.7219C19.2318 13.1639 18.3685 13.675 18.3685 15.2032V18.9278H18.8042H19.7131H21.008V15.2032C21.008 13.675 21.8731 13.1639 22.4825 12.7219L23.0623 12.2614C23.9729 11.5216 24.543 10.4117 24.5439 9.18599C24.5439 6.97033 22.6975 5.17346 20.4192 5.17346C20.0454 5.17374 19.673 5.22356 19.3129 5.32109L19.2952 5.4536ZM9.99101 5.40813C9.98555 5.40813 9.98008 5.40813 9.97498 5.40813C9.97862 5.40813 9.98228 5.40813 9.98565 5.40813C9.98747 5.40813 9.98927 5.40812 9.99109 5.39902L9.99101 5.40813Z" fill="#AFAFAF"/>
<path d="M18.3667 17.2042V19.0256H21.008V17.2042H18.3667Z" fill="#558500"/>
<path d="M9.65559 24.9244C9.56436 25.1623 9.51767 25.4113 9.51721 25.6617C9.51722 26.9761 10.7645 28.0416 12.3031 28.0416C13.8417 28.0416 15.089 26.9761 15.089 25.6617C15.089 25.0982 14.5545 24.6416 13.8951 24.6416C13.3483 24.6416 12.8873 24.9556 12.7458 25.3841C12.2159 26.6966 10.1395 25.9072 9.65559 24.9244Z" fill="#5A5A5A"/>
<path d="M16 3.00011C14.5557 3.00057 13.2748 3.76835 12.4854 4.93528C12.094 4.8209 11.6964 4.71829 11.2848 4.71829C8.92992 4.71829 7 6.58944 7 8.8999C7.00182 10.3582 7.77415 11.6543 8.94762 12.4003L9.25533 12.6155C10.0683 13.1859 10.536 13.8735 10.536 14.725V15.2034V18.9297C10.536 19.1812 10.7398 19.385 10.9913 19.385H17.6257C18.2414 19.3941 18.2414 18.4657 17.6257 18.4744H11.4466V17.569H20.5533V18.9315C20.5442 19.5472 21.4727 19.5472 21.464 18.9315V15.2052C21.464 14.527 21.641 14.1393 21.8766 13.8374C22.1123 13.5356 22.4301 13.3241 22.75 13.0922C22.7545 13.0885 22.7595 13.0849 22.7642 13.0815L23.3458 12.6208C23.3467 12.6209 23.3485 12.6209 23.3494 12.6208C24.3609 11.799 24.999 10.5583 25 9.19162C25 6.72288 22.9376 4.72364 20.42 4.72364C20.0944 4.72392 19.7738 4.78465 19.4559 4.85171C18.6593 3.73494 17.4052 3.00546 16 3.00546V3L16 3.00011ZM16 3.91255C17.0507 3.91255 18.0276 4.39064 18.6591 5.17896C19.2735 5.94612 19.512 6.93062 19.2976 7.87895C19.1332 8.48938 20.0705 8.70162 20.1851 8.07994C20.3698 7.26315 20.2938 6.42046 19.9895 5.65919C20.1324 5.6428 20.2757 5.63087 20.4199 5.63078C22.4589 5.63078 24.0893 7.2254 24.0893 9.18808C24.0885 10.2728 23.5863 11.2533 22.7766 11.9112L22.2146 12.3559C21.9251 12.5659 21.5067 12.8306 21.1581 13.2772C20.8094 13.7238 20.5533 14.3553 20.5533 15.2053V16.6584H19.6426V14.5738C19.6426 13.4586 20.0683 13.0829 20.5604 12.7045C20.9107 12.4423 20.7258 11.8852 20.2883 11.8845C20.1857 11.8843 20.0861 11.9188 20.0055 11.9823C19.4364 12.4201 18.732 13.1847 18.732 14.5738V16.6584H15.0893V15.4703V14.9207C15.092 14.6643 14.8832 14.456 14.6269 14.46C14.3761 14.4636 14.1757 14.6699 14.1786 14.9207V15.4703V16.6584H13.268C13.268 15.9047 13.268 15.1517 13.268 14.3978C13.268 13.4207 12.9052 12.4835 12.2595 11.7636C12.1682 11.6584 12.0339 11.6007 11.8948 11.607C11.5074 11.6246 11.3179 12.0877 11.5818 12.3719C12.0785 12.9256 12.3573 13.6461 12.3573 14.3978C12.3573 15.1517 12.3573 15.9047 12.3573 16.6584H11.4466V15.2035V14.725C11.4466 13.5289 10.7496 12.5517 9.77825 11.8703H9.77642L9.45093 11.6444C9.44546 11.6408 9.44038 11.6353 9.43492 11.6319C8.51064 11.0444 7.91234 10.0369 7.91061 8.89992C7.91152 7.09624 9.40914 5.63075 11.2847 5.63075C11.6873 5.63075 12.0899 5.70488 12.4693 5.84419C12.9844 6.03168 13.4477 6.3331 13.8122 6.73174C14.2208 7.21066 14.925 6.56447 14.4827 6.11633C14.1468 5.749 13.7455 5.45014 13.3053 5.21988C13.935 4.40813 14.927 3.91289 15.9999 3.91257L16 3.91255ZM11.3648 6.43824C10.0181 6.46192 8.93226 7.57517 8.94407 8.92123C8.95135 9.73292 9.35373 10.455 9.96857 10.8973C10.4618 11.2519 10.9937 10.5119 10.5004 10.1574C10.1122 9.8781 9.85924 9.4286 9.85473 8.91235C9.84745 8.0565 10.5226 7.36394 11.3808 7.34891C11.9879 7.33826 11.9719 6.42756 11.3648 6.43824H11.3648ZM22.2839 9.73586C22.1012 9.73404 21.9352 9.84215 21.8624 10.0098C21.6404 10.5025 21.3098 10.9383 20.8966 11.2833C20.4093 11.6702 21.0122 12.3925 21.48 11.9823C21.9984 11.5495 22.4139 11.0028 22.693 10.3833C22.8327 10.0829 22.6152 9.73864 22.2839 9.73586ZM18.8049 18.4744C18.1891 18.4653 18.1891 19.3937 18.8049 19.385H19.7138C20.3296 19.3941 20.3296 18.4657 19.7138 18.4744H18.8049ZM13.268 20.751C12.2675 20.751 11.4466 21.5718 11.4466 22.5724C11.4375 23.1881 12.366 23.1881 12.3573 22.5724C12.3573 22.064 12.7596 21.6617 13.268 21.6617C13.7763 21.6617 14.1786 22.064 14.1786 22.5724C14.1695 23.1881 15.098 23.1881 15.0893 22.5724C15.0893 21.5718 14.2685 20.751 13.268 20.751ZM18.732 20.751C17.7315 20.751 16.9106 21.5718 16.9106 22.5724C16.9015 23.1881 17.83 23.1881 17.8213 22.5724C17.8213 22.064 18.2236 21.6617 18.732 21.6617C19.2403 21.6617 19.6426 22.064 19.6426 22.5724C19.6335 23.1881 20.562 23.1881 20.5533 22.5724C20.5533 21.5718 19.7325 20.751 18.732 20.751ZM18.1041 24.1838V24.1875C17.2345 24.1875 16.4553 24.8105 16.4553 25.662C16.4553 27.2645 17.9472 28.4972 19.696 28.4972C21.4448 28.4972 22.9367 27.2645 22.9367 25.662C22.9362 25.3555 22.8802 25.0505 22.7695 24.762C22.6271 24.3905 22.1103 24.3673 21.9353 24.7246C21.786 25.0278 21.2312 25.447 20.7098 25.5731C20.4492 25.6359 20.2067 25.6323 20.0393 25.5731C19.8719 25.5157 19.7643 25.4297 19.6764 25.212L19.6856 25.2387C19.4725 24.5935 18.8255 24.184 18.1043 24.184L18.1041 24.1838ZM13.8958 24.1875C13.1747 24.1875 12.5259 24.597 12.3128 25.2422L12.3235 25.2138C12.2356 25.4315 12.1262 25.5172 11.9589 25.5749C11.7915 25.6322 11.5508 25.6359 11.2901 25.5749C10.7687 25.4488 10.2139 25.0296 10.0646 24.7265C9.88962 24.3692 9.37279 24.3923 9.23043 24.7638C9.11977 25.0523 9.06202 25.3573 9.06146 25.6638C9.06147 27.2663 10.5551 28.499 12.3039 28.499C14.0528 28.499 15.5446 27.2663 15.5446 25.6638C15.5446 24.8123 14.7654 24.1893 13.8958 24.1893V24.1875V24.1875ZM18.1041 25.0964V25.0982C18.4766 25.0982 18.751 25.3151 18.8209 25.5268C18.8246 25.5364 18.8273 25.5442 18.8316 25.5535C19.0086 25.992 19.3579 26.3011 19.744 26.4339C20.1301 26.5668 20.5381 26.5505 20.9233 26.4571C21.2487 26.3788 21.5508 26.2233 21.8339 26.0498C21.5984 26.8826 20.8326 27.5847 19.696 27.5847C18.3676 27.5847 17.366 26.6867 17.3659 25.6602C17.3659 25.3848 17.6549 25.0964 18.1041 25.0964L18.1041 25.0964ZM13.8958 25.0982C14.345 25.0982 14.634 25.3865 14.634 25.662C14.634 26.6884 13.6323 27.5865 12.3039 27.5865C11.1673 27.5865 10.3998 26.8843 10.1642 26.0515C10.4477 26.2256 10.7507 26.38 11.0767 26.4589C11.4618 26.5519 11.8698 26.5682 12.2559 26.4357C12.642 26.3029 12.9913 25.9938 13.1684 25.5553C13.172 25.546 13.1756 25.5363 13.179 25.5269C13.2489 25.3151 13.5233 25.0982 13.8958 25.0982L13.8958 25.0982Z" fill="black"/>
</svg>
