<svg width="32" height="32" viewBox="0 0 32 32" fill="none" xmlns="http://www.w3.org/2000/svg">
<path d="M6.49963 18.8008V24.0493C6.49963 24.8525 7.14788 25.4991 7.95308 25.4992L29.0461 25.4991C29.8513 25.499 30.4995 24.8525 30.4995 24.0493V14.9493C30.4995 14.1461 29.8513 13.4996 29.0461 13.4995L22.6996 13.4993" fill="#76B900"/>
<path d="M8.49963 18.8008V21.4432C9.39828 21.7833 10.1055 22.5386 10.4245 23.4993H26.5747C26.8937 22.5386 27.6009 21.7833 28.4995 21.4432V17.5554C27.6009 17.2153 26.8937 16.4599 26.5747 15.4992H22.6996" fill="white"/>
<path d="M2.95306 18.4993C2.14786 18.4993 1.49963 17.8471 1.49963 17.037V7.96149C1.49963 7.15139 2.14786 6.49933 2.95306 6.49933L21.0462 6.49945C21.8514 6.49945 22.4996 7.15151 22.4996 7.96161V17.0372C22.4996 17.8472 21.8514 18.4995 21.0462 18.4995L2.95306 18.4993Z" fill="#5DADEC"/>
<path d="M22.2148 18.0178C22.525 18.7951 22.5835 19.6502 22.3822 20.4626C22.1808 21.2749 21.7297 22.0036 21.0924 22.5461C20.4552 23.0886 19.6637 23.4176 18.8297 23.4866C17.9956 23.5557 17.1609 23.3613 16.4431 22.931C15.7252 22.5007 15.1604 21.856 14.8282 21.0878C14.496 20.3196 14.4132 19.4666 14.5913 18.6489" fill="#76B900"/>
<path d="M18.554 6.49933C19.3592 6.49933 20.0071 7.15212 20.0071 7.96222V17.0364C20.0071 17.8464 19.3592 18.4993 18.554 18.4993H21.0461C21.8513 18.4993 22.4993 17.8464 22.4993 17.0364V7.96222C22.4993 7.15212 21.8513 6.49933 21.0461 6.49933H18.554Z" fill="#4682B1"/>
<path d="M7 9.99896H4V13.024H7V9.99896Z" fill="white"/>
<path d="M15 7.99896H4V8.99896H15V7.99896Z" fill="white"/>
<path d="M18 7.99896H16V8.99896H18V7.99896Z" fill="white"/>
<path d="M21 7.99896H19V8.99896H21V7.99896Z" fill="white"/>
<path d="M24.0833 15.4993C24.4023 16.46 25.1084 17.2157 26.0071 17.5558V21.4427C25.1084 21.7828 24.4023 22.5386 24.0833 23.4993H26.5754C26.8944 22.5386 27.6006 21.7828 28.4993 21.4427V17.5558C27.6006 17.2157 26.8944 16.46 26.5754 15.4993H24.0833Z" fill="#D1D1D1"/>
<path d="M26.554 13.4993C27.3592 13.4994 28.0071 14.1453 28.0071 14.9485V24.0501C28.0071 24.8533 27.3592 25.4992 26.554 25.4993H29.0461C29.8513 25.4992 30.4993 24.8533 30.4993 24.0501V14.9485C30.4993 14.1453 29.8513 13.4994 29.0461 13.4993H26.554Z" fill="#558500"/>
<path d="M22.2141 18.0169L20.1243 18.1907C20.3886 18.9513 20.4172 19.7739 20.2063 20.551C19.9955 21.3281 19.5551 22.0235 18.9426 22.5462C18.5003 22.9207 17.9818 23.1946 17.4231 23.3489C18.0538 23.5259 18.7183 23.5452 19.3582 23.4052C19.9981 23.2653 20.5938 22.9703 21.093 22.5462C21.7303 22.0035 22.1813 21.2745 22.3824 20.462C22.5835 19.6494 22.5247 18.7942 22.2141 18.0169V18.0169Z" fill="#558500"/>
<path d="M2.95355 5.99982C1.8784 5.99982 1.00043 6.88581 1.00043 7.96271V17.0369C1.00043 18.1137 1.8784 18.9998 2.95355 18.9998H6.00043V24.0506C6.00043 25.1228 6.88071 25.9996 7.95355 25.9998H29.0453C30.1182 25.9996 31.0004 25.1228 31.0004 24.0506V14.951C31.0004 13.8788 30.1182 12.9999 29.0453 12.9998H23.0004V7.96271C23.0004 6.88581 22.1205 5.99982 21.0453 5.99982H2.95355V5.99982ZM2.95355 6.99982H21.0453C21.5806 6.99982 22.0004 7.41931 22.0004 7.96271V13.9998H2.00043V7.96271C2.00043 7.41931 2.41831 6.99982 2.95355 6.99982V6.99982ZM23.0004 13.9998H29.0453C29.5829 13.9998 30.0004 14.4169 30.0004 14.951V24.0506C30.0004 24.5847 29.5829 24.9997 29.0453 24.9998H7.95355C7.416 24.9997 7.00043 24.5847 7.00043 24.0506V18.9998H8.00043V21.4432C8.00015 21.5448 8.03084 21.6441 8.08841 21.7278C8.14598 21.8116 8.22771 21.8758 8.32269 21.9119C9.07337 22.196 9.6756 22.8327 9.94965 23.658C9.98287 23.7576 10.0466 23.8442 10.1318 23.9055C10.217 23.9669 10.3193 23.9999 10.4243 23.9998H26.5746C26.6796 23.9999 26.782 23.9669 26.8671 23.9055C26.9523 23.8442 27.016 23.7576 27.0493 23.658C27.3233 22.8327 27.9255 22.196 28.6762 21.9119C28.7716 21.8761 28.8537 21.812 28.9116 21.7283C28.9696 21.6445 29.0006 21.545 29.0004 21.4432V17.5565C29.0006 17.4546 28.9696 17.3551 28.9116 17.2714C28.8537 17.1876 28.7716 17.1235 28.6762 17.0877C27.9255 16.8036 27.3233 16.1669 27.0493 15.3416C27.016 15.242 26.9523 15.1554 26.8671 15.0941C26.782 15.0327 26.6796 14.9998 26.5746 14.9998H23.0004V13.9998V13.9998ZM2.00043 15.9998H22.0004V17.0389C22.0004 17.5822 21.5805 17.9998 21.0453 17.9998H2.95355C2.41831 17.9998 2.00043 17.5803 2.00043 17.0369V15.9998V15.9998ZM23.0004 15.9998H26.3032C26.6599 16.794 27.2456 17.4207 28.0004 17.8065V21.1932C27.2456 21.5791 26.6599 22.2055 26.3032 22.9998H21.3168C21.3491 22.9738 21.3847 22.9545 21.4164 22.9275C22.8389 21.7167 23.3507 19.7555 22.7328 18.0056C22.8979 17.7183 23.0004 17.392 23.0004 17.0388V15.9998V15.9998ZM21.9203 18.7811C22.1816 20.0207 21.7573 21.3236 20.768 22.1658C19.6231 23.1404 17.9892 23.2767 16.6996 22.5037C15.4816 21.7736 14.8456 20.3891 15.0473 18.9998H21.0453C21.3607 18.9998 21.6559 18.9157 21.9203 18.7811V18.7811ZM9.00043 18.9998H14.0395C13.8683 20.5296 14.4867 22.0383 15.6801 22.9998H10.6957C10.3394 22.2064 9.75416 21.5811 9.00043 21.1951V18.9998Z" fill="black"/>
</svg>
