<svg width="32" height="32" viewBox="0 0 32 32" fill="none" xmlns="http://www.w3.org/2000/svg">
<circle cx="15" cy="15" r="15" fill="#86C518"/>
<path d="M21.3438 23.9244C21.4351 24.1623 21.4817 24.4113 21.4822 24.6617C21.4822 25.9761 20.2349 27.0416 18.6963 27.0416C17.1577 27.0416 15.9104 25.9761 15.9104 24.6617C15.9104 24.0982 16.4449 23.6416 17.1043 23.6416C17.6512 23.6416 18.1121 23.9556 18.2536 24.3841C18.7835 25.6966 20.8599 24.9072 21.3438 23.9244Z" fill="white"/>
<path d="M16.626 17.9284H9.99062V14.2031L9.99059 13.7235C9.99058 12.6998 9.40944 11.8678 8.51731 11.2419L8.19149 11.0152C7.14237 10.3482 6.45603 9.19675 6.45477 7.89878C6.45477 5.8413 8.16976 4.17339 10.2853 4.17339C10.7439 4.17339 11.1985 4.25718 11.6273 4.41518C12.2948 3.20781 13.5902 2.45445 14.9997 2.45399C16.3679 2.45399 17.631 3.16786 18.3135 4.32113C18.6736 4.22333 19.0457 4.17367 19.4196 4.17339C21.6978 4.17339 23.5447 5.96959 23.5447 8.18525C23.5438 9.41101 22.9735 10.5219 22.063 11.2618L21.4821 11.7213C20.8728 12.1633 20.0089 12.6749 20.0089 14.2031V17.9284H16.626ZM17.8046 17.9284H18.7133Z" fill="white"/>
<path d="M20.008 16.2045H9.99063V18.0259H20.008V16.2045Z" fill="#D1D1D1"/>
<path d="M21.3437 23.9236C20.9675 24.6876 19.6319 25.3305 18.8056 24.9642C18.6897 25.7374 18.1446 26.3876 17.3755 26.7445C17.7703 26.9277 18.2163 27.0416 18.6971 27.0416C20.2357 27.0416 21.4824 25.9761 21.4825 24.6617C21.482 24.4113 21.4349 24.1615 21.3437 23.9236V23.9236Z" fill="white"/>
<path d="M18.2952 4.45365C19.8225 5.04176 20.9026 6.49146 20.9026 8.18603C20.9017 9.41179 20.3316 10.5216 19.421 11.2614L18.8412 11.722C18.2318 12.1639 17.3685 12.675 17.3685 14.2032V17.9278H17.8042H18.7131H20.008V14.2032C20.008 12.675 20.8731 12.1639 21.4825 11.722L22.0623 11.2614C22.9729 10.5216 23.543 9.41179 23.5439 8.18603C23.5439 5.97037 21.6975 4.17351 19.4192 4.17351C19.0454 4.17378 18.673 4.2236 18.3129 4.32114L18.2952 4.45365ZM8.99101 4.40818C8.98555 4.40818 8.98008 4.40818 8.97498 4.40818C8.97862 4.40818 8.98228 4.40818 8.98565 4.40818C8.98747 4.40818 8.98927 4.40817 8.99109 4.39906L8.99101 4.40818Z" fill="#D1D1D1"/>
<path d="M17.3667 16.2042V18.0255H20.008V16.2042H17.3667Z" fill="#AFAFAF"/>
<path d="M8.65565 23.9244C8.56442 24.1623 8.51773 24.4113 8.51727 24.6617C8.51728 25.9761 9.76456 27.0416 11.3032 27.0416C12.8418 27.0416 14.0891 25.9761 14.0891 24.6617C14.0891 24.0982 13.5545 23.6416 12.8951 23.6416C12.3483 23.6416 11.8873 23.9556 11.7459 24.3841C11.2159 25.6966 9.1396 24.9072 8.65565 23.9244Z" fill="white"/>
<path d="M15 2.00011C13.5557 2.00057 12.2748 2.76835 11.4854 3.93528C11.094 3.8209 10.6964 3.71829 10.2848 3.71829C7.92992 3.71829 6 5.58944 6 7.8999C6.00182 9.35815 6.77415 10.6543 7.94762 11.4003L8.25533 11.6155C9.06827 12.1859 9.53596 12.8735 9.53596 13.725V14.2034V17.9297C9.53598 18.1812 9.73983 18.385 9.99129 18.385H16.6257C17.2414 18.3941 17.2414 17.4657 16.6257 17.4744H10.4466V16.569H19.5533V17.9315C19.5442 18.5472 20.4727 18.5472 20.464 17.9315V14.2052C20.464 13.527 20.641 13.1393 20.8766 12.8374C21.1123 12.5356 21.4301 12.3241 21.75 12.0922C21.7545 12.0885 21.7595 12.0849 21.7642 12.0815L22.3458 11.6208C22.3467 11.6209 22.3485 11.6209 22.3494 11.6208C23.3609 10.799 23.999 9.55835 24 8.19162C24 5.72288 21.9376 3.72364 19.42 3.72364C19.0944 3.72392 18.7738 3.78465 18.4559 3.85171C17.6593 2.73494 16.4052 2.00546 15 2.00546V2L15 2.00011ZM15 2.91255C16.0507 2.91255 17.0276 3.39064 17.6591 4.17896C18.2735 4.94612 18.512 5.93062 18.2976 6.87895C18.1332 7.48938 19.0705 7.70162 19.1851 7.07994C19.3698 6.26315 19.2938 5.42046 18.9895 4.65919C19.1324 4.6428 19.2757 4.63087 19.4199 4.63078C21.4589 4.63078 23.0893 6.2254 23.0893 8.18808C23.0885 9.27278 22.5863 10.2533 21.7766 10.9112L21.2146 11.3559C20.9251 11.5659 20.5067 11.8306 20.1581 12.2772C19.8094 12.7238 19.5533 13.3553 19.5533 14.2053V15.6584H18.6426V13.5738C18.6426 12.4586 19.0683 12.0829 19.5604 11.7045C19.9107 11.4423 19.7258 10.8852 19.2883 10.8845C19.1857 10.8843 19.0861 10.9188 19.0055 10.9823C18.4364 11.4201 17.732 12.1847 17.732 13.5738V15.6584H14.0893V14.4703V13.9207C14.092 13.6643 13.8832 13.456 13.6269 13.46C13.3761 13.4636 13.1757 13.6699 13.1786 13.9207V14.4703V15.6584H12.268C12.268 14.9047 12.268 14.1517 12.268 13.3978C12.268 12.4207 11.9052 11.4835 11.2595 10.7636C11.1682 10.6584 11.0339 10.6007 10.8948 10.607C10.5074 10.6246 10.3179 11.0877 10.5818 11.3719C11.0785 11.9256 11.3573 12.6461 11.3573 13.3978C11.3573 14.1517 11.3573 14.9047 11.3573 15.6584H10.4466V14.2035V13.725C10.4466 12.5289 9.74958 11.5517 8.77825 10.8703H8.77642L8.45093 10.6444C8.44546 10.6408 8.44038 10.6353 8.43492 10.6319C7.51064 10.0444 6.91234 9.03689 6.91061 7.89992C6.91152 6.09624 8.40914 4.63075 10.2847 4.63075C10.6873 4.63075 11.0899 4.70488 11.4693 4.84419C11.9844 5.03168 12.4477 5.3331 12.8122 5.73174C13.2208 6.21066 13.925 5.56447 13.4827 5.11633C13.1468 4.749 12.7455 4.45014 12.3053 4.21988C12.935 3.40813 13.927 2.91289 14.9999 2.91257L15 2.91255ZM10.3648 5.43824C9.01807 5.46192 7.93226 6.57517 7.94407 7.92123C7.95135 8.73292 8.35373 9.45501 8.96857 9.89732C9.46184 10.2519 9.99367 9.51194 9.50038 9.1574C9.11219 8.8781 8.85924 8.4286 8.85473 7.91235C8.84745 7.0565 9.52257 6.36394 10.3808 6.34891C10.9879 6.33826 10.9719 5.42756 10.3648 5.43824H10.3648ZM21.2839 8.73586C21.1012 8.73404 20.9352 8.84215 20.8624 9.00977C20.6404 9.50254 20.3098 9.93833 19.8966 10.2833C19.4093 10.6702 20.0122 11.3925 20.48 10.9823C20.9984 10.5495 21.4139 10.0028 21.693 9.38329C21.8327 9.08293 21.6152 8.73864 21.2839 8.73586V8.73586ZM17.8049 17.4744C17.1891 17.4653 17.1891 18.3937 17.8049 18.385H18.7138C19.3296 18.3941 19.3296 17.4657 18.7138 17.4744H17.8049ZM12.268 19.751C11.2675 19.751 10.4466 20.5718 10.4466 21.5724C10.4375 22.1881 11.366 22.1881 11.3573 21.5724C11.3573 21.064 11.7596 20.6617 12.268 20.6617C12.7763 20.6617 13.1786 21.064 13.1786 21.5724C13.1695 22.1881 14.098 22.1881 14.0893 21.5724C14.0893 20.5718 13.2685 19.751 12.268 19.751ZM17.732 19.751C16.7315 19.751 15.9106 20.5718 15.9106 21.5724C15.9015 22.1881 16.83 22.1881 16.8213 21.5724C16.8213 21.064 17.2236 20.6617 17.732 20.6617C18.2403 20.6617 18.6426 21.064 18.6426 21.5724C18.6335 22.1881 19.562 22.1881 19.5533 21.5724C19.5533 20.5718 18.7325 19.751 17.732 19.751ZM17.1041 23.1838V23.1875C16.2345 23.1875 15.4553 23.8105 15.4553 24.662C15.4553 26.2645 16.9472 27.4972 18.696 27.4972C20.4448 27.4972 21.9367 26.2645 21.9367 24.662C21.9362 24.3555 21.8802 24.0505 21.7695 23.762C21.6271 23.3905 21.1103 23.3673 20.9353 23.7246C20.786 24.0278 20.2312 24.447 19.7098 24.5731C19.4492 24.6359 19.2067 24.6323 19.0393 24.5731C18.8719 24.5157 18.7644 24.4297 18.6764 24.212L18.6856 24.2387C18.4725 23.5935 17.8255 23.184 17.1043 23.184L17.1041 23.1838ZM12.8958 23.1875C12.1747 23.1875 11.5259 23.597 11.3128 24.2422L11.3235 24.2138C11.2356 24.4315 11.1262 24.5172 10.9589 24.5749C10.7915 24.6322 10.5508 24.6359 10.2901 24.5749C9.76873 24.4488 9.21392 24.0296 9.06462 23.7265C8.88962 23.3692 8.37279 23.3923 8.23043 23.7638C8.11977 24.0523 8.06202 24.3573 8.06146 24.6638C8.06147 26.2663 9.55511 27.499 11.3039 27.499C13.0528 27.499 14.5446 26.2663 14.5446 24.6638C14.5446 23.8123 13.7654 23.1893 12.8958 23.1893V23.1875V23.1875ZM17.1041 24.0964V24.0982C17.4766 24.0982 17.751 24.3151 17.8209 24.5268C17.8246 24.5364 17.8273 24.5442 17.8316 24.5535C18.0086 24.992 18.3579 25.3011 18.744 25.4339C19.1301 25.5668 19.5381 25.5505 19.9232 25.4571C20.2487 25.3788 20.5508 25.2233 20.8339 25.0498C20.5984 25.8826 19.8326 26.5847 18.696 26.5847C17.3676 26.5847 16.366 25.6867 16.3659 24.6602C16.3659 24.3848 16.6549 24.0964 17.1041 24.0964L17.1041 24.0964ZM12.8958 24.0982C13.345 24.0982 13.634 24.3865 13.634 24.662C13.634 25.6884 12.6323 26.5865 11.3039 26.5865C10.1673 26.5865 9.39976 25.8843 9.16422 25.0515C9.44768 25.2256 9.75074 25.38 10.0767 25.4589C10.4618 25.5519 10.8698 25.5682 11.2559 25.4357C11.642 25.3029 11.9913 24.9938 12.1684 24.5553C12.172 24.546 12.1756 24.5363 12.179 24.5269C12.2489 24.3151 12.5233 24.0982 12.8958 24.0982L12.8958 24.0982Z" fill="black"/>
</svg>
