<svg width="188" height="32" viewBox="0 0 188 32" fill="none" xmlns="http://www.w3.org/2000/svg">
<path d="M22.3438 24.9244C22.4351 25.1623 22.4817 25.4113 22.4822 25.6617C22.4822 26.9761 21.2349 28.0416 19.6963 28.0416C18.1577 28.0416 16.9104 26.9761 16.9104 25.6617C16.9104 25.0982 17.4449 24.6416 18.1043 24.6416C18.6512 24.6416 19.1121 24.9556 19.2536 25.3841C19.7835 26.6966 21.8599 25.9072 22.3438 24.9244Z" fill="white"/>
<path d="M17.626 18.9284H10.9906V15.2031L10.9906 14.7235C10.9906 13.6998 10.4094 12.8678 9.51731 12.2419L9.19149 12.0152C8.14237 11.3482 7.45603 10.1968 7.45477 8.89878C7.45477 6.8413 9.16976 5.17339 11.2853 5.17339C11.7439 5.17339 12.1985 5.25718 12.6273 5.41518C13.2948 4.20781 14.5902 3.45445 15.9997 3.45399C17.3679 3.45399 18.631 4.16786 19.3135 5.32113C19.6736 5.22333 20.0457 5.17367 20.4196 5.17339C22.6978 5.17339 24.5447 6.96959 24.5447 9.18525C24.5438 10.411 23.9735 11.5219 23.063 12.2618L22.4821 12.7213C21.8728 13.1633 21.0089 13.6749 21.0089 15.2031V18.9284H17.626ZM18.8046 18.9284H19.7133H18.8046Z" fill="white"/>
<path d="M21.008 17.2045H10.9906V19.0259H21.008V17.2045Z" fill="#D1D1D1"/>
<path d="M22.3437 24.9236C21.9675 25.6876 20.6319 26.3305 19.8056 25.9642C19.6897 26.7374 19.1446 27.3876 18.3755 27.7445C18.7703 27.9277 19.2163 28.0416 19.6971 28.0416C21.2357 28.0416 22.4824 26.9761 22.4825 25.6617C22.482 25.4113 22.4349 25.1615 22.3437 24.9236V24.9236Z" fill="white"/>
<path d="M19.2952 5.45365C20.8225 6.04176 21.9026 7.49146 21.9026 9.18603C21.9017 10.4118 21.3316 11.5216 20.421 12.2614L19.8412 12.722C19.2318 13.1639 18.3685 13.675 18.3685 15.2032V18.9278H18.8042H19.7131H21.008V15.2032C21.008 13.675 21.8731 13.1639 22.4825 12.722L23.0623 12.2614C23.9729 11.5216 24.543 10.4118 24.5439 9.18603C24.5439 6.97037 22.6975 5.17351 20.4192 5.17351C20.0454 5.17378 19.673 5.2236 19.3129 5.32114L19.2952 5.45365ZM9.99101 5.40818C9.98555 5.40818 9.98008 5.40818 9.97498 5.40818C9.97862 5.40818 9.98228 5.40818 9.98565 5.40818C9.98747 5.40818 9.98927 5.40817 9.99109 5.39906L9.99101 5.40818Z" fill="#D1D1D1"/>
<path d="M18.3667 17.2042V19.0255H21.008V17.2042H18.3667Z" fill="#AFAFAF"/>
<path d="M9.65565 24.9244C9.56442 25.1623 9.51773 25.4113 9.51727 25.6617C9.51728 26.9761 10.7646 28.0416 12.3032 28.0416C13.8418 28.0416 15.0891 26.9761 15.0891 25.6617C15.0891 25.0982 14.5545 24.6416 13.8951 24.6416C13.3483 24.6416 12.8873 24.9556 12.7459 25.3841C12.2159 26.6966 10.1396 25.9072 9.65565 24.9244Z" fill="white"/>
<path d="M16 3.00011C14.5557 3.00057 13.2748 3.76835 12.4854 4.93528C12.094 4.8209 11.6964 4.71829 11.2848 4.71829C8.92992 4.71829 7 6.58944 7 8.8999C7.00182 10.3582 7.77415 11.6543 8.94762 12.4003L9.25533 12.6155C10.0683 13.1859 10.536 13.8735 10.536 14.725V15.2034V18.9297C10.536 19.1812 10.7398 19.385 10.9913 19.385H17.6257C18.2414 19.3941 18.2414 18.4657 17.6257 18.4744H11.4466V17.569H20.5533V18.9315C20.5442 19.5472 21.4727 19.5472 21.464 18.9315V15.2052C21.464 14.527 21.641 14.1393 21.8766 13.8374C22.1123 13.5356 22.4301 13.3241 22.75 13.0922C22.7545 13.0885 22.7595 13.0849 22.7642 13.0815L23.3458 12.6208C23.3467 12.6209 23.3485 12.6209 23.3494 12.6208C24.3609 11.799 24.999 10.5583 25 9.19162C25 6.72288 22.9376 4.72364 20.42 4.72364C20.0944 4.72392 19.7738 4.78465 19.4559 4.85171C18.6593 3.73494 17.4052 3.00546 16 3.00546V3L16 3.00011ZM16 3.91255C17.0507 3.91255 18.0276 4.39064 18.6591 5.17896C19.2735 5.94612 19.512 6.93062 19.2976 7.87895C19.1332 8.48938 20.0705 8.70162 20.1851 8.07994C20.3698 7.26315 20.2938 6.42046 19.9895 5.65919C20.1324 5.6428 20.2757 5.63087 20.4199 5.63078C22.4589 5.63078 24.0893 7.2254 24.0893 9.18808C24.0885 10.2728 23.5863 11.2533 22.7766 11.9112L22.2146 12.3559C21.9251 12.5659 21.5067 12.8306 21.1581 13.2772C20.8094 13.7238 20.5533 14.3553 20.5533 15.2053V16.6584H19.6426V14.5738C19.6426 13.4586 20.0683 13.0829 20.5604 12.7045C20.9107 12.4423 20.7258 11.8852 20.2883 11.8845C20.1857 11.8843 20.0861 11.9188 20.0055 11.9823C19.4364 12.4201 18.732 13.1847 18.732 14.5738V16.6584H15.0893V15.4703V14.9207C15.092 14.6643 14.8832 14.456 14.6269 14.46C14.3761 14.4636 14.1757 14.6699 14.1786 14.9207V15.4703V16.6584H13.268C13.268 15.9047 13.268 15.1517 13.268 14.3978C13.268 13.4207 12.9052 12.4835 12.2595 11.7636C12.1682 11.6584 12.0339 11.6007 11.8948 11.607C11.5074 11.6246 11.3179 12.0877 11.5818 12.3719C12.0785 12.9256 12.3573 13.6461 12.3573 14.3978C12.3573 15.1517 12.3573 15.9047 12.3573 16.6584H11.4466V15.2035V14.725C11.4466 13.5289 10.7496 12.5517 9.77825 11.8703H9.77642L9.45093 11.6444C9.44546 11.6408 9.44038 11.6353 9.43492 11.6319C8.51064 11.0444 7.91234 10.0369 7.91061 8.89992C7.91152 7.09624 9.40914 5.63075 11.2847 5.63075C11.6873 5.63075 12.0899 5.70488 12.4693 5.84419C12.9844 6.03168 13.4477 6.3331 13.8122 6.73174C14.2208 7.21066 14.925 6.56447 14.4827 6.11633C14.1468 5.749 13.7455 5.45014 13.3053 5.21988C13.935 4.40813 14.927 3.91289 15.9999 3.91257L16 3.91255ZM11.3648 6.43824C10.0181 6.46192 8.93226 7.57517 8.94407 8.92123C8.95135 9.73292 9.35373 10.455 9.96857 10.8973C10.4618 11.2519 10.9937 10.5119 10.5004 10.1574C10.1122 9.8781 9.85924 9.4286 9.85473 8.91235C9.84745 8.0565 10.5226 7.36394 11.3808 7.34891C11.9879 7.33826 11.9719 6.42756 11.3648 6.43824H11.3648ZM22.2839 9.73586C22.1012 9.73404 21.9352 9.84215 21.8624 10.0098C21.6404 10.5025 21.3098 10.9383 20.8966 11.2833C20.4093 11.6702 21.0122 12.3925 21.48 11.9823C21.9984 11.5495 22.4139 11.0028 22.693 10.3833C22.8327 10.0829 22.6152 9.73864 22.2839 9.73586ZM18.8049 18.4744C18.1891 18.4653 18.1891 19.3937 18.8049 19.385H19.7138C20.3296 19.3941 20.3296 18.4657 19.7138 18.4744H18.8049ZM13.268 20.751C12.2675 20.751 11.4466 21.5718 11.4466 22.5724C11.4375 23.1881 12.366 23.1881 12.3573 22.5724C12.3573 22.064 12.7596 21.6617 13.268 21.6617C13.7763 21.6617 14.1786 22.064 14.1786 22.5724C14.1695 23.1881 15.098 23.1881 15.0893 22.5724C15.0893 21.5718 14.2685 20.751 13.268 20.751ZM18.732 20.751C17.7315 20.751 16.9106 21.5718 16.9106 22.5724C16.9015 23.1881 17.83 23.1881 17.8213 22.5724C17.8213 22.064 18.2236 21.6617 18.732 21.6617C19.2403 21.6617 19.6426 22.064 19.6426 22.5724C19.6335 23.1881 20.562 23.1881 20.5533 22.5724C20.5533 21.5718 19.7325 20.751 18.732 20.751ZM18.1041 24.1838V24.1875C17.2345 24.1875 16.4553 24.8105 16.4553 25.662C16.4553 27.2645 17.9472 28.4972 19.696 28.4972C21.4448 28.4972 22.9367 27.2645 22.9367 25.662C22.9362 25.3555 22.8802 25.0505 22.7695 24.762C22.6271 24.3905 22.1103 24.3673 21.9353 24.7246C21.786 25.0278 21.2312 25.447 20.7098 25.5731C20.4492 25.6359 20.2067 25.6323 20.0393 25.5731C19.8719 25.5157 19.7643 25.4297 19.6764 25.212L19.6856 25.2387C19.4725 24.5935 18.8255 24.184 18.1043 24.184L18.1041 24.1838ZM13.8958 24.1875C13.1747 24.1875 12.5259 24.597 12.3128 25.2422L12.3235 25.2138C12.2356 25.4315 12.1262 25.5172 11.9589 25.5749C11.7915 25.6322 11.5508 25.6359 11.2901 25.5749C10.7687 25.4488 10.2139 25.0296 10.0646 24.7265C9.88962 24.3692 9.37279 24.3923 9.23043 24.7638C9.11977 25.0523 9.06202 25.3573 9.06146 25.6638C9.06147 27.2663 10.5551 28.499 12.3039 28.499C14.0528 28.499 15.5446 27.2663 15.5446 25.6638C15.5446 24.8123 14.7654 24.1893 13.8958 24.1893V24.1875V24.1875ZM18.1041 25.0964V25.0982C18.4766 25.0982 18.751 25.3151 18.8209 25.5268C18.8246 25.5364 18.8273 25.5442 18.8316 25.5535C19.0086 25.992 19.3579 26.3011 19.744 26.4339C20.1301 26.5668 20.5381 26.5505 20.9233 26.4571C21.2487 26.3788 21.5508 26.2233 21.8339 26.0498C21.5984 26.8826 20.8326 27.5847 19.696 27.5847C18.3676 27.5847 17.366 26.6867 17.3659 25.6602C17.3659 25.3848 17.6549 25.0964 18.1041 25.0964L18.1041 25.0964ZM13.8958 25.0982C14.345 25.0982 14.634 25.3865 14.634 25.662C14.634 26.6884 13.6323 27.5865 12.3039 27.5865C11.1673 27.5865 10.3998 26.8843 10.1642 26.0515C10.4477 26.2256 10.7507 26.38 11.0767 26.4589C11.4618 26.5519 11.8698 26.5682 12.2559 26.4357C12.642 26.3029 12.9913 25.9938 13.1684 25.5553C13.172 25.546 13.1756 25.5363 13.179 25.5269C13.2489 25.3151 13.5233 25.0982 13.8958 25.0982L13.8958 25.0982Z" fill="black"/>
<path d="M38.937 24.891C37.704 24.891 36.588 24.7155 35.589 24.3645C34.59 24.0225 33.735 23.523 33.024 22.866C32.313 22.209 31.764 21.408 31.377 20.463C30.999 19.518 30.81 18.447 30.81 17.25C30.81 15.882 31.0125 14.631 31.4175 13.497C31.8315 12.363 32.43 11.3865 33.213 10.5675C33.996 9.7485 34.95 9.1185 36.075 8.6775C37.2 8.2275 38.478 8.0025 39.909 8.0025C40.611 8.0025 41.2635 8.0745 41.8665 8.2185C42.4695 8.3625 42.996 8.5605 43.446 8.8125C43.905 9.0555 44.2605 9.3345 44.5125 9.6495C44.7645 9.9645 44.8905 10.293 44.8905 10.635C44.8905 11.094 44.7735 11.4405 44.5395 11.6745C44.3055 11.8995 44.004 12.012 43.635 12.012C43.392 12.012 43.167 11.967 42.96 11.877C42.753 11.787 42.519 11.6835 42.258 11.5665C42.006 11.4495 41.682 11.346 41.286 11.256C40.899 11.166 40.404 11.121 39.801 11.121C39.279 11.121 38.7705 11.238 38.2755 11.472C37.7805 11.697 37.335 12.0345 36.939 12.4845C36.543 12.9255 36.228 13.4745 35.994 14.1315C35.769 14.7885 35.6565 15.5445 35.6565 16.3995C35.6565 17.0565 35.733 17.682 35.886 18.276C36.048 18.861 36.2955 19.383 36.6285 19.842C36.9705 20.301 37.4025 20.6655 37.9245 20.9355C38.4555 21.1965 39.0945 21.327 39.8415 21.327C40.3725 21.327 40.836 21.255 41.232 21.111C41.637 20.958 41.9925 20.787 42.2985 20.598C42.6135 20.4 42.9015 20.229 43.1625 20.085C43.4325 19.941 43.6935 19.869 43.9455 19.869C44.5485 19.869 44.9625 20.0085 45.1875 20.2875C45.4125 20.5575 45.525 20.9355 45.525 21.4215C45.525 21.8985 45.3585 22.3485 45.0255 22.7715C44.7015 23.1945 44.238 23.5635 43.635 23.8785C43.041 24.1935 42.3435 24.441 41.5425 24.621C40.7505 24.801 39.882 24.891 38.937 24.891ZM65.329 24.54C64.897 24.54 64.5145 24.4455 64.1815 24.2565C63.8575 24.0765 63.574 23.7885 63.331 23.3925C63.241 23.1765 63.151 22.929 63.061 22.65C62.971 22.371 62.881 22.0875 62.791 21.7995C62.701 21.5025 62.6065 21.219 62.5075 20.949C62.4085 20.67 62.305 20.427 62.197 20.22C62.053 19.941 61.8865 19.734 61.6975 19.599C61.5085 19.455 61.2475 19.356 60.9145 19.302C60.7525 19.275 60.514 19.248 60.199 19.221C59.893 19.194 59.551 19.1715 59.173 19.1535C58.804 19.1355 58.453 19.1265 58.12 19.1265C57.616 19.1265 57.103 19.14 56.581 19.167C56.068 19.194 55.6225 19.2255 55.2445 19.2615C54.9115 19.3065 54.655 19.3875 54.475 19.5045C54.295 19.6125 54.1465 19.788 54.0295 20.031C53.9125 20.265 53.791 20.5485 53.665 20.8815C53.548 21.2055 53.4265 21.5475 53.3005 21.9075C53.1745 22.2675 53.044 22.614 52.909 22.947C52.702 23.37 52.441 23.6985 52.126 23.9325C51.811 24.1665 51.37 24.2835 50.803 24.2835C50.344 24.2835 49.9615 24.2115 49.6555 24.0675C49.3495 23.9235 49.12 23.6895 48.967 23.3655C48.814 23.0415 48.7375 22.605 48.7375 22.056C48.7375 21.615 48.796 21.1065 48.913 20.5305C49.039 19.9455 49.201 19.329 49.399 18.681C49.606 18.024 49.831 17.367 50.074 16.71C50.326 16.044 50.5825 15.4095 50.8435 14.8065C51.1045 14.1945 51.352 13.6455 51.586 13.1595C51.82 12.6645 52.0225 12.273 52.1935 11.985C52.4995 11.454 52.8505 10.9365 53.2465 10.4325C53.6515 9.9195 54.1015 9.4605 54.5965 9.0555C55.1005 8.6415 55.654 8.313 56.257 8.07C56.869 7.827 57.5395 7.7055 58.2685 7.7055C59.4115 7.7055 60.4555 8.0295 61.4005 8.6775C62.3455 9.3165 63.196 10.176 63.952 11.256C64.24 11.643 64.5235 12.129 64.8025 12.714C65.0905 13.29 65.3695 13.929 65.6395 14.631C65.9095 15.333 66.157 16.0575 66.382 16.8045C66.607 17.5515 66.805 18.2895 66.976 19.0185C67.156 19.7385 67.291 20.4135 67.381 21.0435C67.48 21.6645 67.5295 22.2045 67.5295 22.6635C67.5295 23.3475 67.3315 23.829 66.9355 24.108C66.5395 24.396 66.004 24.54 65.329 24.54ZM61.1305 16.5075C61.3195 16.4625 61.4455 16.377 61.5085 16.251C61.5715 16.125 61.603 15.9315 61.603 15.6705C61.603 15.4185 61.558 15.1125 61.468 14.7525C61.387 14.3835 61.2745 14.001 61.1305 13.605C60.9865 13.2 60.82 12.8265 60.631 12.4845C60.361 11.9805 60.046 11.562 59.686 11.229C59.326 10.887 58.9345 10.716 58.5115 10.716C58.0345 10.716 57.5845 10.905 57.1615 11.283C56.7385 11.661 56.365 12.129 56.041 12.687C55.915 12.903 55.7845 13.155 55.6495 13.443C55.5145 13.722 55.3885 14.01 55.2715 14.307C55.1545 14.604 55.06 14.8875 54.988 15.1575C54.916 15.4185 54.88 15.6435 54.88 15.8325C54.88 16.1115 54.9925 16.3095 55.2175 16.4265C55.4515 16.5345 55.7935 16.5885 56.2435 16.5885C57.0895 16.5885 57.823 16.5885 58.444 16.5885C59.065 16.5885 59.596 16.584 60.037 16.575C60.478 16.557 60.8425 16.5345 61.1305 16.5075ZM78.5201 24.513C76.5401 24.513 74.9246 23.9955 73.6736 22.9605C72.4316 21.9255 71.5361 20.5575 70.9871 18.8565C70.8791 18.5235 70.7846 18.1815 70.7036 17.8305C70.6316 17.4705 70.5641 17.106 70.5011 16.737C70.4471 16.359 70.4021 15.9765 70.3661 15.5895C70.3301 15.1935 70.3031 14.793 70.2851 14.388C70.2671 13.983 70.2581 13.5735 70.2581 13.1595C70.2581 11.9535 70.3436 10.977 70.5146 10.23C70.6946 9.483 70.9826 8.9385 71.3786 8.5965C71.7746 8.2545 72.2966 8.0835 72.9446 8.0835C73.3946 8.0835 73.7591 8.223 74.0381 8.502C74.3261 8.772 74.5376 9.2355 74.6726 9.8925C74.8076 10.5495 74.8751 11.463 74.8751 12.633C74.8751 12.984 74.8796 13.3305 74.8886 13.6725C74.8976 14.0145 74.9111 14.352 74.9291 14.685C74.9561 15.009 74.9876 15.3285 75.0236 15.6435C75.0596 15.9495 75.1046 16.2465 75.1586 16.5345C75.2126 16.8135 75.2801 17.0835 75.3611 17.3445C75.5951 18.1905 75.9641 18.87 76.4681 19.383C76.9721 19.896 77.6606 20.1525 78.5336 20.1525C79.0916 20.1525 79.5821 20.0355 80.0051 19.8015C80.4281 19.5675 80.7881 19.2435 81.0851 18.8295C81.3821 18.4065 81.6251 17.916 81.8141 17.358C81.9311 17.025 82.0301 16.674 82.1111 16.305C82.2011 15.927 82.2686 15.54 82.3136 15.144C82.3676 14.739 82.4036 14.3295 82.4216 13.9155C82.4486 13.4925 82.4621 13.074 82.4621 12.66C82.4621 11.544 82.5431 10.6665 82.7051 10.0275C82.8671 9.3795 83.1146 8.916 83.4476 8.637C83.7896 8.358 84.2171 8.2185 84.7301 8.2185C85.2881 8.2185 85.7156 8.3895 86.0126 8.7315C86.3096 9.0735 86.5121 9.6135 86.6201 10.3515C86.7371 11.0805 86.7956 12.0345 86.7956 13.2135C86.7956 13.6275 86.7821 14.037 86.7551 14.442C86.7371 14.847 86.7056 15.2475 86.6606 15.6435C86.6156 16.0305 86.5571 16.413 86.4851 16.791C86.4221 17.16 86.3456 17.5245 86.2556 17.8845C86.1746 18.2355 86.0756 18.582 85.9586 18.924C85.5716 20.049 85.0316 21.03 84.3386 21.867C83.6546 22.704 82.8266 23.3565 81.8546 23.8245C80.8916 24.2835 79.7801 24.513 78.5201 24.513ZM94.026 24.297C93.657 24.297 93.3105 24.207 92.9865 24.027C92.6715 23.847 92.3835 23.577 92.1225 23.217C91.8705 22.848 91.65 22.38 91.461 21.813C91.389 21.543 91.317 21.21 91.245 20.814C91.173 20.418 91.1055 19.986 91.0425 19.518C90.9795 19.05 90.921 18.5685 90.867 18.0735C90.822 17.5695 90.777 17.0745 90.732 16.5885C90.696 16.0935 90.6645 15.63 90.6375 15.198C90.6195 14.766 90.6105 14.3835 90.6105 14.0505C90.6105 12.4845 90.822 11.247 91.245 10.338C91.677 9.429 92.37 8.781 93.324 8.394C94.278 8.007 95.5335 7.8135 97.0905 7.8135C98.2425 7.8135 99.345 7.9215 100.398 8.1375C101.451 8.3445 102.383 8.673 103.193 9.123C104.012 9.564 104.655 10.14 105.123 10.851C105.6 11.562 105.839 12.417 105.839 13.416C105.839 14.172 105.681 14.838 105.366 15.414C105.06 15.981 104.619 16.458 104.043 16.845C103.476 17.232 102.806 17.5335 102.032 17.7495C101.258 17.9655 100.407 18.1005 99.48 18.1545C98.886 18.1815 98.3145 18.177 97.7655 18.141C97.2255 18.105 96.7035 18.087 96.1995 18.087C95.9385 18.087 95.772 18.1815 95.7 18.3705C95.637 18.5595 95.6055 18.825 95.6055 19.167C95.6055 19.32 95.61 19.5045 95.619 19.7205C95.628 19.9365 95.637 20.1705 95.646 20.4225C95.664 20.6655 95.6775 20.9085 95.6865 21.1515C95.7045 21.3855 95.7135 21.6105 95.7135 21.8265C95.7225 22.0335 95.727 22.209 95.727 22.353C95.727 23.001 95.5875 23.487 95.3085 23.811C95.0385 24.135 94.611 24.297 94.026 24.297ZM96.3345 15.7785C96.8655 15.7785 97.3965 15.7515 97.9275 15.6975C98.4585 15.6435 98.9625 15.558 99.4395 15.441C99.9165 15.324 100.335 15.1665 100.695 14.9685C101.064 14.7705 101.357 14.5275 101.573 14.2395C101.789 13.9515 101.897 13.6095 101.897 13.2135C101.897 12.7815 101.793 12.4125 101.586 12.1065C101.388 11.7915 101.127 11.5305 100.803 11.3235C100.488 11.1165 100.146 10.9545 99.777 10.8375C99.408 10.7205 99.0435 10.6395 98.6835 10.5945C98.3325 10.5405 98.031 10.5135 97.779 10.5135C97.302 10.5135 96.8925 10.554 96.5505 10.635C96.2175 10.707 95.943 10.824 95.727 10.986C95.511 11.139 95.3535 11.337 95.2545 11.58C95.1645 11.823 95.1195 12.1155 95.1195 12.4575C95.1195 12.9255 95.1285 13.3395 95.1465 13.6995C95.1735 14.0595 95.214 14.37 95.268 14.631C95.322 14.892 95.394 15.108 95.484 15.279C95.583 15.441 95.7 15.567 95.835 15.657C95.979 15.738 96.1455 15.7785 96.3345 15.7785ZM117.547 25.4175C116.251 25.4175 115.059 25.2195 113.97 24.8235C112.89 24.4365 111.949 23.8785 111.148 23.1495C110.356 22.4115 109.74 21.5205 109.299 20.4765C108.858 19.4325 108.637 18.258 108.637 16.953C108.637 15.711 108.831 14.604 109.218 13.632C109.605 12.651 110.131 11.8005 110.797 11.0805C111.472 10.3605 112.246 9.7665 113.119 9.2985C113.992 8.8215 114.919 8.4705 115.9 8.2455C116.89 8.0115 117.889 7.8945 118.897 7.8945C120.265 7.8945 121.539 8.0925 122.718 8.4885C123.897 8.8845 124.927 9.456 125.809 10.203C126.691 10.941 127.375 11.832 127.861 12.876C128.356 13.911 128.604 15.0765 128.604 16.3725C128.604 17.8035 128.316 19.0815 127.74 20.2065C127.173 21.3225 126.381 22.2675 125.364 23.0415C124.356 23.8155 123.181 24.405 121.84 24.81C120.508 25.215 119.077 25.4175 117.547 25.4175ZM118.357 21.003C119.734 21.003 120.837 20.7825 121.665 20.3415C122.493 19.9005 123.091 19.3155 123.46 18.5865C123.829 17.8575 124.014 17.0655 124.014 16.2105C124.014 15.4185 123.883 14.712 123.622 14.091C123.361 13.47 122.992 12.9435 122.515 12.5115C122.047 12.0705 121.498 11.7375 120.868 11.5125C120.247 11.2875 119.581 11.175 118.87 11.175C118.168 11.175 117.498 11.2785 116.859 11.4855C116.229 11.6925 115.666 11.994 115.171 12.39C114.676 12.777 114.285 13.2495 113.997 13.8075C113.709 14.3655 113.565 14.991 113.565 15.684C113.565 16.485 113.682 17.214 113.916 17.871C114.159 18.519 114.492 19.077 114.915 19.545C115.347 20.013 115.855 20.373 116.44 20.625C117.025 20.877 117.664 21.003 118.357 21.003ZM134.611 24.648C134.17 24.648 133.806 24.531 133.518 24.297C133.23 24.063 132.987 23.739 132.789 23.325C132.69 23.109 132.6 22.7715 132.519 22.3125C132.438 21.8535 132.361 21.327 132.289 20.733C132.226 20.13 132.168 19.5045 132.114 18.8565C132.06 18.1995 132.015 17.556 131.979 16.926C131.943 16.287 131.916 15.711 131.898 15.198C131.88 14.676 131.871 14.262 131.871 13.956C131.871 12.75 131.956 11.7195 132.127 10.8645C132.298 10.0095 132.6 9.357 133.032 8.907C133.473 8.448 134.103 8.2185 134.922 8.2185C135.462 8.2185 135.975 8.394 136.461 8.745C136.956 9.087 137.505 9.636 138.108 10.392C138.72 11.139 139.467 12.12 140.349 13.335C141.483 14.937 142.414 16.143 143.143 16.953C143.872 17.763 144.403 18.168 144.736 18.168C144.889 18.168 145.015 18.1365 145.114 18.0735C145.222 18.0015 145.308 17.8575 145.371 17.6415C145.434 17.4255 145.479 17.106 145.506 16.683C145.515 16.494 145.524 16.215 145.533 15.846C145.542 15.477 145.546 15.0585 145.546 14.5905C145.555 14.1135 145.56 13.6275 145.56 13.1325C145.569 12.6375 145.578 12.1695 145.587 11.7285C145.596 11.2785 145.609 10.8915 145.627 10.5675C145.645 10.2435 145.663 10.0185 145.681 9.8925C145.825 9.3165 146.046 8.916 146.343 8.691C146.649 8.466 147.067 8.3535 147.598 8.3535C148.003 8.3535 148.345 8.421 148.624 8.556C148.903 8.691 149.128 8.898 149.299 9.177C149.47 9.447 149.596 9.7845 149.677 10.1895C149.758 10.5945 149.803 11.067 149.812 11.607C149.821 11.904 149.826 12.3 149.826 12.795C149.835 13.281 149.835 13.83 149.826 14.442C149.826 15.045 149.817 15.6705 149.799 16.3185C149.79 16.9665 149.772 17.601 149.745 18.222C149.718 18.834 149.677 19.3965 149.623 19.9095C149.578 20.4135 149.52 20.832 149.448 21.165C149.304 21.867 149.106 22.452 148.854 22.92C148.602 23.379 148.269 23.7255 147.855 23.9595C147.45 24.1845 146.941 24.297 146.329 24.297C145.798 24.297 145.227 24.063 144.615 23.595C144.003 23.118 143.355 22.47 142.671 21.651C141.987 20.823 141.267 19.887 140.511 18.843C140.025 18.177 139.579 17.5695 139.174 17.0205C138.778 16.4625 138.427 15.9855 138.121 15.5895C137.824 15.1935 137.568 14.892 137.352 14.685C137.136 14.469 136.974 14.361 136.866 14.361C136.632 14.361 136.465 14.487 136.366 14.739C136.276 14.982 136.231 15.477 136.231 16.224C136.231 16.584 136.236 16.98 136.245 17.412C136.263 17.835 136.281 18.276 136.299 18.735C136.326 19.185 136.348 19.6395 136.366 20.0985C136.384 20.5485 136.398 20.985 136.407 21.408C136.416 21.822 136.416 22.209 136.407 22.569C136.407 22.92 136.389 23.226 136.353 23.487C136.218 23.919 136.002 24.2205 135.705 24.3915C135.417 24.5625 135.052 24.648 134.611 24.648ZM169.917 24.54C169.485 24.54 169.102 24.4455 168.769 24.2565C168.445 24.0765 168.162 23.7885 167.919 23.3925C167.829 23.1765 167.739 22.929 167.649 22.65C167.559 22.371 167.469 22.0875 167.379 21.7995C167.289 21.5025 167.194 21.219 167.095 20.949C166.996 20.67 166.893 20.427 166.785 20.22C166.641 19.941 166.474 19.734 166.285 19.599C166.096 19.455 165.835 19.356 165.502 19.302C165.34 19.275 165.102 19.248 164.787 19.221C164.481 19.194 164.139 19.1715 163.761 19.1535C163.392 19.1355 163.041 19.1265 162.708 19.1265C162.204 19.1265 161.691 19.14 161.169 19.167C160.656 19.194 160.21 19.2255 159.832 19.2615C159.499 19.3065 159.243 19.3875 159.063 19.5045C158.883 19.6125 158.734 19.788 158.617 20.031C158.5 20.265 158.379 20.5485 158.253 20.8815C158.136 21.2055 158.014 21.5475 157.888 21.9075C157.762 22.2675 157.632 22.614 157.497 22.947C157.29 23.37 157.029 23.6985 156.714 23.9325C156.399 24.1665 155.958 24.2835 155.391 24.2835C154.932 24.2835 154.549 24.2115 154.243 24.0675C153.937 23.9235 153.708 23.6895 153.555 23.3655C153.402 23.0415 153.325 22.605 153.325 22.056C153.325 21.615 153.384 21.1065 153.501 20.5305C153.627 19.9455 153.789 19.329 153.987 18.681C154.194 18.024 154.419 17.367 154.662 16.71C154.914 16.044 155.17 15.4095 155.431 14.8065C155.692 14.1945 155.94 13.6455 156.174 13.1595C156.408 12.6645 156.61 12.273 156.781 11.985C157.087 11.454 157.438 10.9365 157.834 10.4325C158.239 9.9195 158.689 9.4605 159.184 9.0555C159.688 8.6415 160.242 8.313 160.845 8.07C161.457 7.827 162.127 7.7055 162.856 7.7055C163.999 7.7055 165.043 8.0295 165.988 8.6775C166.933 9.3165 167.784 10.176 168.54 11.256C168.828 11.643 169.111 12.129 169.39 12.714C169.678 13.29 169.957 13.929 170.227 14.631C170.497 15.333 170.745 16.0575 170.97 16.8045C171.195 17.5515 171.393 18.2895 171.564 19.0185C171.744 19.7385 171.879 20.4135 171.969 21.0435C172.068 21.6645 172.117 22.2045 172.117 22.6635C172.117 23.3475 171.919 23.829 171.523 24.108C171.127 24.396 170.592 24.54 169.917 24.54ZM165.718 16.5075C165.907 16.4625 166.033 16.377 166.096 16.251C166.159 16.125 166.191 15.9315 166.191 15.6705C166.191 15.4185 166.146 15.1125 166.056 14.7525C165.975 14.3835 165.862 14.001 165.718 13.605C165.574 13.2 165.408 12.8265 165.219 12.4845C164.949 11.9805 164.634 11.562 164.274 11.229C163.914 10.887 163.522 10.716 163.099 10.716C162.622 10.716 162.172 10.905 161.749 11.283C161.326 11.661 160.953 12.129 160.629 12.687C160.503 12.903 160.372 13.155 160.237 13.443C160.102 13.722 159.976 14.01 159.859 14.307C159.742 14.604 159.648 14.8875 159.576 15.1575C159.504 15.4185 159.468 15.6435 159.468 15.8325C159.468 16.1115 159.58 16.3095 159.805 16.4265C160.039 16.5345 160.381 16.5885 160.831 16.5885C161.677 16.5885 162.411 16.5885 163.032 16.5885C163.653 16.5885 164.184 16.584 164.625 16.575C165.066 16.557 165.43 16.5345 165.718 16.5075Z" fill="white"/>
</svg>
