<svg width="32" height="32" viewBox="0 0 32 32" fill="none" xmlns="http://www.w3.org/2000/svg">
<path d="M29.5003 24.9993V25.9993C29.5003 27.3843 28.3853 28.4993 27.0003 28.4993H5.00037C3.61536 28.4993 2.50034 27.3843 2.50034 25.9993V14.9993C2.50034 13.6143 3.61536 12.4993 5.00037 12.4993H27.0003C28.3853 12.4993 29.5003 13.6143 29.5003 14.9993V19.9429V24.9993ZM29.5003 21.9993V22.9993Z" fill="#CF4D00"/>
<path d="M23 12.499C24.385 12.499 25.5 13.614 25.5 14.999V19.9424V21.999V22.999V24.999V25.999C25.5 27.384 24.385 28.499 23 28.499H27C28.385 28.499 29.5 27.384 29.5 25.999V24.999V22.999V21.999V19.9424V14.999C29.5 13.614 28.385 12.499 27 12.499H23Z" fill="#FF5F00"/>
<path d="M4.50034 16.4993H27.5003V26.4991H4.50034V16.4993Z" fill="white"/>
<path d="M25.5 26.499V23.0557V20.999V19.999V17.999V16.999C25.5 16.8279 25.4817 16.6603 25.4492 16.499H27.5V26.499H25.5Z" fill="#D1D1D1"/>
<path d="M19.7617 17.9986C19.6955 17.9976 19.6297 18.0099 19.5682 18.0346C19.5068 18.0593 19.4508 18.096 19.4036 18.1425C19.3564 18.189 19.3189 18.2445 19.2934 18.3056C19.2678 18.3667 19.2546 18.4323 19.2546 18.4986C19.2546 18.5648 19.2678 18.6304 19.2934 18.6916C19.3189 18.7527 19.3564 18.8081 19.4036 18.8547C19.4508 18.9012 19.5068 18.9379 19.5682 18.9626C19.6297 18.9873 19.6955 18.9995 19.7617 18.9986H20.7617C20.828 18.9995 20.8938 18.9873 20.9553 18.9626C21.0167 18.9379 21.0727 18.9012 21.1199 18.8547C21.1671 18.8081 21.2046 18.7527 21.2301 18.6916C21.2557 18.6304 21.2689 18.5648 21.2689 18.4986C21.2689 18.4323 21.2557 18.3667 21.2301 18.3056C21.2046 18.2445 21.1671 18.189 21.1199 18.1425C21.0727 18.096 21.0167 18.0593 20.9553 18.0346C20.8938 18.0099 20.828 17.9976 20.7617 17.9986H19.7617ZM22.7012 17.9986C22.6349 17.9976 22.5692 18.0099 22.5077 18.0346C22.4462 18.0593 22.3902 18.096 22.343 18.1425C22.2959 18.189 22.2584 18.2445 22.2328 18.3056C22.2072 18.3667 22.1941 18.4323 22.1941 18.4986C22.1941 18.5648 22.2072 18.6304 22.2328 18.6916C22.2584 18.7527 22.2959 18.8081 22.343 18.8547C22.3902 18.9012 22.4462 18.9379 22.5077 18.9626C22.5692 18.9873 22.6349 18.9995 22.7012 18.9986H27C27.0663 18.9995 27.1321 18.9873 27.1935 18.9626C27.255 18.9379 27.311 18.9012 27.3582 18.8547C27.4054 18.8081 27.4428 18.7527 27.4684 18.6916C27.494 18.6304 27.5071 18.5648 27.5071 18.4986C27.5071 18.4323 27.494 18.3667 27.4684 18.3056C27.4428 18.2445 27.4054 18.189 27.3582 18.1425C27.311 18.096 27.255 18.0593 27.1935 18.0346C27.1321 18.0099 27.0663 17.9976 27 17.9986H22.7012Z" fill="#D1D1D1"/>
<path d="M17.5004 3.99927C17.5004 4.39709 17.3423 4.77863 17.061 5.05994C16.7797 5.34124 16.3982 5.49927 16.0004 5.49927C15.6025 5.49927 15.221 5.34124 14.9397 5.05994C14.6584 4.77863 14.5004 4.39709 14.5004 3.99927C14.5004 3.60144 14.6584 3.2199 14.9397 2.9386C15.221 2.65729 15.6025 2.49927 16.0004 2.49927C16.3982 2.49927 16.7797 2.65729 17.061 2.9386C17.3423 3.2199 17.5004 3.60144 17.5004 3.99927V3.99927Z" fill="#FFDC5D"/>
<path d="M25.5 18.001V19.001H27C27.1201 19.0025 27.2368 18.9607 27.3286 18.8832C27.4204 18.8058 27.4812 18.6978 27.5 18.5791V18.419C27.4804 18.3011 27.4191 18.194 27.3274 18.1174C27.2357 18.0407 27.1195 17.9994 27 18.001H25.5Z" fill="#AFAFAF"/>
<path d="M16 1.99918C15.034 1.99918 14.2214 2.69544 14.0391 3.61051C14.0385 3.61151 14.0381 3.61252 14.0371 3.61452L10.6679 11.9993H4.99997C3.34661 11.9993 1.99997 13.346 1.99997 14.9993V25.9993C1.99997 26.7702 2.30108 27.4672 2.78122 27.9993H0.999969C0.933714 27.9984 0.867942 28.0106 0.806458 28.0353C0.744973 28.06 0.689 28.0967 0.641815 28.1432C0.59463 28.1897 0.55719 28.2452 0.531616 28.3063C0.506042 28.3674 0.492859 28.433 0.492859 28.4993C0.492859 28.5656 0.506042 28.6312 0.531616 28.6923C0.55719 28.7534 0.59463 28.8088 0.641815 28.8554C0.689 28.9019 0.744973 28.9386 0.806458 28.9633C0.867942 28.988 0.933714 29.0002 0.999969 28.9993H31C31.0662 29.0002 31.132 28.988 31.1935 28.9633C31.255 28.9386 31.3109 28.9019 31.3581 28.8554C31.4053 28.8088 31.4428 28.7534 31.4684 28.6923C31.4939 28.6312 31.5071 28.5656 31.5071 28.4993C31.5071 28.433 31.4939 28.3674 31.4684 28.3063C31.4428 28.2452 31.4053 28.1897 31.3581 28.1432C31.3109 28.0967 31.255 28.06 31.1935 28.0353C31.132 28.0106 31.0662 27.9984 31 27.9993H29.2187C29.6989 27.4672 30 26.7702 30 25.9993V24.9993C30.0009 24.933 29.9887 24.8672 29.964 24.8058C29.9393 24.7443 29.9026 24.6883 29.856 24.6411C29.8095 24.594 29.7541 24.5565 29.693 24.5309C29.6318 24.5053 29.5662 24.4922 29.5 24.4922C29.4337 24.4922 29.3681 24.5053 29.307 24.5309C29.2458 24.5565 29.1904 24.594 29.1439 24.6411C29.0974 24.6883 29.0607 24.7443 29.036 24.8058C29.0113 24.8672 28.999 24.933 29 24.9993V25.9993C29 27.116 28.1166 27.9993 27 27.9993H4.99997C3.88331 27.9993 2.99997 27.116 2.99997 25.9993V14.9993C2.99997 13.8827 3.88331 12.9993 4.99997 12.9993H10.2656L10.0605 13.511C10.0394 13.51 10.0213 13.4993 9.99994 13.4993C9.45358 13.4993 8.99996 13.953 8.99994 14.4993C8.99996 15.0457 9.45358 15.4993 9.99994 15.4993C10.5463 15.4993 10.9999 15.0457 10.9999 14.4993C10.9999 14.3533 10.9621 14.217 10.9042 14.0911L11.3437 12.9993H20.6581L21.0956 14.0891C21.0372 14.2154 20.9999 14.3527 20.9999 14.4993C21 15.0457 21.4536 15.4993 21.9999 15.4993C22.5463 15.4993 22.9999 15.0457 22.9999 14.4993C22.9999 13.953 22.5463 13.4994 21.9999 13.4993C21.9792 13.4993 21.9617 13.5097 21.9413 13.511L21.7362 12.9993H26.9999C28.1166 12.9993 28.9999 13.8827 28.9999 14.9993V19.9446C28.999 20.0109 29.0112 20.0766 29.0359 20.1381C29.0606 20.1996 29.0973 20.2556 29.1438 20.3027C29.1904 20.3499 29.2458 20.3874 29.3069 20.413C29.368 20.4385 29.4336 20.4517 29.4999 20.4517C29.5662 20.4517 29.6318 20.4385 29.6929 20.413C29.754 20.3874 29.8095 20.3499 29.856 20.3027C29.9025 20.2556 29.9392 20.1996 29.9639 20.1381C29.9886 20.0766 30.0008 20.0109 29.9999 19.9446V14.9993C29.9999 13.346 28.6533 11.9993 26.9999 11.9993H21.3339L17.9648 3.61452C17.9639 3.61252 17.9618 3.61051 17.9608 3.60851C17.7777 2.69437 16.9652 1.99915 15.9998 1.99915L16 1.99918ZM16 2.99918C16.5582 2.99918 17 3.44098 17 3.99918C17 4.55748 16.5582 4.99918 16 4.99918C15.4418 4.99918 15 4.55748 15 3.99918C15 3.44098 15.4418 2.99918 16 2.99918ZM17.545 5.24918L20.2559 11.9992H11.7461L14.4571 5.25114C14.8248 5.70239 15.3771 5.99918 16 5.99918C16.624 5.99918 17.1772 5.70165 17.545 5.24918ZM4.50003 15.9992C4.36743 15.9992 4.24025 16.0519 4.14648 16.1456C4.05272 16.2394 4.00004 16.3666 4.00003 16.4992V26.4992C4.00004 26.6318 4.05272 26.759 4.14648 26.8527C4.24025 26.9465 4.36743 26.9992 4.50003 26.9992H27.5C27.6326 26.9992 27.7598 26.9465 27.8536 26.8527C27.9473 26.759 28 26.6318 28 26.4992V16.4992C28 16.3666 27.9473 16.2394 27.8536 16.1456C27.7598 16.0519 27.6326 15.9992 27.5 15.9992H4.50003ZM5.00003 16.9992H27V25.9992H5.00003V16.9992ZM29.4922 21.4933C29.36 21.4954 29.2339 21.5498 29.1416 21.6446C29.0494 21.7394 28.9985 21.8669 29 21.9992V22.9992C28.9991 23.0654 29.0113 23.1312 29.036 23.1927C29.0607 23.2542 29.0974 23.3102 29.144 23.3573C29.1905 23.4045 29.2459 23.442 29.307 23.4676C29.3682 23.4931 29.4338 23.5063 29.5 23.5063C29.5663 23.5063 29.6319 23.4931 29.693 23.4676C29.7542 23.442 29.8096 23.4045 29.8561 23.3573C29.9026 23.3102 29.9393 23.2542 29.964 23.1927C29.9887 23.1312 30.001 23.0654 30 22.9992V21.9992C30.0008 21.9324 29.9882 21.8661 29.9629 21.8042C29.9377 21.7424 29.9003 21.6862 29.8529 21.639C29.8056 21.5919 29.7493 21.5547 29.6873 21.5297C29.6254 21.5046 29.559 21.4923 29.4922 21.4933V21.4933ZM19.9492 29.9992C19.8836 30.0025 19.8192 30.0187 19.7598 30.047C19.7004 30.0752 19.6472 30.1148 19.6031 30.1636C19.5591 30.2124 19.525 30.2694 19.503 30.3313C19.4809 30.3932 19.4713 30.4589 19.4746 30.5246C19.478 30.5903 19.4942 30.6546 19.5224 30.714C19.5506 30.7734 19.5903 30.8266 19.6391 30.8707C19.6879 30.9148 19.7448 30.9488 19.8068 30.9708C19.8687 30.9929 19.9344 31.0025 20.0001 30.9992H24.9942C25.0605 31.0001 25.1262 30.9879 25.1877 30.9632C25.2492 30.9385 25.3051 30.9018 25.3523 30.8553C25.3995 30.8087 25.437 30.7533 25.4626 30.6922C25.4881 30.631 25.5013 30.5654 25.5013 30.4992C25.5013 30.4329 25.4881 30.3673 25.4626 30.3062C25.437 30.2451 25.3995 30.1896 25.3523 30.1431C25.3051 30.0966 25.2492 30.0599 25.1877 30.0352C25.1262 30.0105 25.0605 29.9982 24.9942 29.9992H20.0001C19.9831 29.9983 19.9662 29.9983 19.9492 29.9992V29.9992ZM27.0508 29.9992C26.9852 30.0025 26.9208 30.0187 26.8614 30.047C26.802 30.0752 26.7488 30.1148 26.7047 30.1636C26.6606 30.2124 26.6266 30.2694 26.6046 30.3313C26.5825 30.3932 26.5729 30.4589 26.5762 30.5246C26.5795 30.5903 26.5958 30.6546 26.624 30.714C26.6522 30.7734 26.6918 30.8266 26.7406 30.8707C26.7894 30.9148 26.8464 30.9488 26.9083 30.9708C26.9703 30.9929 27.036 31.0025 27.1016 30.9992H29.0001C29.0663 31.0001 29.1321 30.9879 29.1936 30.9632C29.2551 30.9385 29.311 30.9018 29.3582 30.8553C29.4054 30.8087 29.4428 30.7533 29.4684 30.6922C29.494 30.631 29.5072 30.5654 29.5072 30.4992C29.5072 30.4329 29.494 30.3673 29.4684 30.3062C29.4428 30.2451 29.4054 30.1896 29.3582 30.1431C29.311 30.0966 29.2551 30.0599 29.1936 30.0352C29.1321 30.0105 29.0663 29.9982 29.0001 29.9992H27.1016C27.0847 29.9983 27.0677 29.9983 27.0508 29.9992V29.9992Z" fill="black"/>
<path d="M10.0838 19.9901C10.0241 19.9911 9.96519 20.0051 9.9104 20.0311C9.85561 20.0572 9.80602 20.0949 9.76448 20.1421C9.72293 20.1892 9.69023 20.245 9.66825 20.306C9.64627 20.3671 9.63543 20.4323 9.63636 20.4979V24.4979C9.63638 24.6305 9.68427 24.7577 9.76951 24.8514C9.85475 24.9452 9.97036 24.9979 10.0909 24.9979H11.4545C11.5148 24.9989 11.5746 24.9866 11.6305 24.9619C11.6864 24.9372 11.7372 24.9005 11.7801 24.854C11.823 24.8075 11.8571 24.752 11.8803 24.6909C11.9036 24.6298 11.9156 24.5642 11.9156 24.4979C11.9156 24.4317 11.9036 24.3661 11.8803 24.3049C11.8571 24.2438 11.823 24.1884 11.7801 24.1418C11.7372 24.0953 11.6864 24.0586 11.6305 24.0339C11.5746 24.0092 11.5148 23.997 11.4545 23.9979H10.5455V20.4979C10.5464 20.4309 10.5351 20.3645 10.5123 20.3024C10.4894 20.2403 10.4554 20.1838 10.4124 20.1365C10.3693 20.0891 10.318 20.0518 10.2616 20.0266C10.2052 20.0015 10.1447 19.9891 10.0838 19.9901ZM7.36364 20.0001C6.61604 19.9999 6 20.6777 6 21.5V23.5C6 24.3224 6.61604 25 7.36364 25C8.11123 25 8.72727 24.3224 8.72727 23.5C8.72812 23.4337 8.717 23.3679 8.69454 23.3064C8.67208 23.2449 8.63873 23.189 8.59644 23.1418C8.55414 23.0947 8.50375 23.0572 8.44818 23.0316C8.3926 23.006 8.33297 22.9928 8.27273 22.9928C8.21249 22.9928 8.15285 23.006 8.09728 23.0316C8.04171 23.0572 7.99131 23.0947 7.94902 23.1418C7.90673 23.189 7.87338 23.2449 7.85092 23.3064C7.82846 23.3679 7.81733 23.4337 7.81818 23.5C7.81818 23.7856 7.62332 24 7.36364 24C7.10396 24 6.90909 23.7856 6.90909 23.5V21.5C6.90909 21.2144 7.10396 21 7.36364 21C7.62332 21 7.81818 21.2144 7.81818 21.5C7.81733 21.5663 7.82846 21.632 7.85092 21.6935C7.87338 21.755 7.90673 21.8108 7.94902 21.858C7.99131 21.9052 8.04171 21.9427 8.09728 21.9683C8.15285 21.9938 8.21249 22.0071 8.27273 22.0071C8.33297 22.0071 8.3926 21.9938 8.44818 21.9683C8.50375 21.9427 8.55414 21.9052 8.59644 21.858C8.63873 21.8108 8.67208 21.755 8.69454 21.6935C8.717 21.632 8.72812 21.5663 8.72727 21.5C8.72727 20.6777 8.11123 20 7.36364 20V20.0001ZM13.7273 20.0001C12.9797 20.0001 12.3636 20.6777 12.3636 21.5001V23.5001C12.3636 24.3225 12.9797 25.0001 13.7273 25.0001C14.4749 25.0001 15.0909 24.3225 15.0909 23.5001V21.5001C15.0909 20.6777 14.4749 20.0001 13.7273 20.0001ZM17.3636 20.0001C16.6161 20.0001 16 20.6777 16 21.5001C16 22.3225 16.616 23.0001 17.3636 23.0001C17.6233 23.0001 17.8182 23.2145 17.8182 23.5001C17.8182 23.7857 17.6233 24.0001 17.3636 24.0001C17.1895 24.0001 17.0475 23.899 16.9695 23.7501C16.9396 23.6932 16.8999 23.6433 16.8525 23.6033C16.8051 23.5632 16.751 23.5338 16.6933 23.5167C16.6356 23.4997 16.5754 23.4954 16.5161 23.5039C16.4569 23.5124 16.3998 23.5337 16.348 23.5665C16.2962 23.5994 16.2509 23.6431 16.2144 23.6952C16.178 23.7473 16.1513 23.8069 16.1358 23.8704C16.1203 23.9338 16.1164 24 16.1241 24.0652C16.1319 24.1304 16.1513 24.1932 16.1811 24.2501C16.4166 24.6994 16.8623 25.0001 17.3636 25.0001C18.1112 25.0001 18.7273 24.3225 18.7273 23.5001C18.7273 22.6777 18.1112 22.0001 17.3636 22.0001C17.104 22.0001 16.9091 21.7857 16.9091 21.5001C16.9091 21.2145 17.104 21.0001 17.3636 21.0001C17.5412 21.0001 17.6863 21.1042 17.7631 21.2579C17.7904 21.3184 17.8285 21.3722 17.8752 21.416C17.9218 21.4598 17.9761 21.4928 18.0346 21.5129C18.0932 21.5331 18.1548 21.54 18.2159 21.5332C18.2769 21.5264 18.3361 21.5061 18.3898 21.4735C18.4435 21.4409 18.4907 21.3968 18.5285 21.3436C18.5663 21.2905 18.5939 21.2294 18.6097 21.1642C18.6254 21.099 18.629 21.0309 18.6203 20.9641C18.6115 20.8973 18.5905 20.8331 18.5586 20.7755C18.3267 20.3114 17.8747 20.0001 17.3636 20.0001ZM20.0909 20.0001C19.9704 20.0001 19.8548 20.0528 19.7695 20.1466C19.6843 20.2404 19.6364 20.3675 19.6364 20.5001V24.5001C19.6364 24.6327 19.6843 24.7599 19.7695 24.8536C19.8548 24.9474 19.9704 25.0001 20.0909 25.0001H21.9126C21.9729 25.0011 22.0327 24.9888 22.0886 24.9641C22.1445 24.9394 22.1953 24.9027 22.2382 24.8562C22.2811 24.8097 22.3152 24.7542 22.3384 24.6931C22.3617 24.632 22.3737 24.5664 22.3737 24.5001C22.3737 24.4339 22.3617 24.3683 22.3384 24.3071C22.3152 24.246 22.2811 24.1906 22.2382 24.144C22.1953 24.0975 22.1445 24.0608 22.0886 24.0361C22.0327 24.0114 21.9729 23.9992 21.9126 24.0001H20.5455V23.0001H21.9055C21.9658 23.0011 22.0256 22.9888 22.0815 22.9641C22.1374 22.9394 22.1882 22.9027 22.2311 22.8562C22.274 22.8097 22.3081 22.7542 22.3313 22.6931C22.3546 22.632 22.3666 22.5664 22.3666 22.5001C22.3666 22.4339 22.3546 22.3683 22.3313 22.3071C22.3081 22.246 22.274 22.1906 22.2311 22.144C22.1882 22.0975 22.1374 22.0608 22.0815 22.0361C22.0256 22.0114 21.9658 21.9992 21.9055 22.0001H20.5455V21.0001H21.9126C21.9729 21.0011 22.0327 20.9888 22.0886 20.9641C22.1445 20.9394 22.1953 20.9027 22.2382 20.8562C22.2811 20.8097 22.3152 20.7542 22.3384 20.6931C22.3617 20.632 22.3737 20.5664 22.3737 20.5001C22.3737 20.4339 22.3617 20.3683 22.3384 20.3071C22.3152 20.246 22.2811 20.1906 22.2382 20.144C22.1953 20.0975 22.1445 20.0608 22.0886 20.0361C22.0327 20.0114 21.9729 19.9992 21.9126 20.0001H20.0909ZM23.7273 20.0001C23.6067 20.0001 23.4911 20.0528 23.4059 20.1466C23.3206 20.2404 23.2727 20.3675 23.2727 20.5001V24.5001C23.2727 24.6327 23.3206 24.7599 23.4059 24.8536C23.4911 24.9474 23.6067 25.0001 23.7273 25.0001H24.6364C25.384 25.0001 26 24.3225 26 23.5001V21.5001C26 20.6777 25.384 20.0001 24.6364 20.0001H23.7273ZM13.7273 21.0001C13.987 21.0001 14.1818 21.2145 14.1818 21.5001V23.5001C14.1818 23.7857 13.987 24.0001 13.7273 24.0001C13.4676 24.0001 13.2727 23.7857 13.2727 23.5001V21.5001C13.2727 21.2145 13.4676 21.0001 13.7273 21.0001ZM24.1818 21.0001H24.6364C24.896 21.0001 25.0909 21.2145 25.0909 21.5001V23.5001C25.0909 23.7857 24.896 24.0001 24.6364 24.0001H24.1818V21.0001Z" fill="#CF4D00"/>
</svg>
