<svg width="32" height="32" viewBox="0 0 32 32" fill="none" xmlns="http://www.w3.org/2000/svg">
<path d="M9.49319 6.50433H21.4932L26.4932 22.5161H14.4932L9.49319 6.50433Z" fill="white"/>
<path d="M14.4932 22.5161H4.49323L9.49323 6.50433" fill="#919090"/>
<path d="M17.3676 6.5036L22.3676 22.5153H26.4926L21.4926 6.5036H17.3676Z" fill="#D1D1D1"/>
<path d="M13.5313 9.40457C13.4506 9.40141 13.37 9.41456 13.2945 9.44327C13.219 9.47198 13.1501 9.5157 13.0919 9.57169C13.0336 9.62768 12.9873 9.69475 12.9557 9.76908C12.924 9.8434 12.9077 9.92341 12.9077 10.0042C12.9077 10.085 12.924 10.1648 12.9557 10.2392C12.9873 10.3135 13.0336 10.3807 13.0919 10.4367C13.1501 10.4927 13.219 10.5364 13.2945 10.5651C13.37 10.5938 13.4506 10.607 13.5313 10.6038H19.5313C19.612 10.607 19.6925 10.5938 19.768 10.5651C19.8435 10.5364 19.9125 10.4927 19.9707 10.4367C20.0289 10.3807 20.0752 10.3135 20.1069 10.2392C20.1385 10.1648 20.1548 10.085 20.1548 10.0042C20.1548 9.92341 20.1385 9.8434 20.1069 9.76908C20.0752 9.69475 20.0289 9.62768 19.9707 9.57169C19.9125 9.5157 19.8435 9.47198 19.768 9.44327C19.6925 9.41456 19.612 9.40141 19.5313 9.40457H13.5313Z" fill="#76B900"/>
<path d="M14.5606 12.4046C14.4799 12.4014 14.3993 12.4146 14.3238 12.4433C14.2483 12.472 14.1794 12.5157 14.1212 12.5717C14.0629 12.6277 14.0166 12.6948 13.985 12.7691C13.9533 12.8434 13.937 12.9234 13.937 13.0042C13.937 13.085 13.9533 13.1648 13.985 13.2392C14.0166 13.3135 14.0629 13.3807 14.1212 13.4367C14.1794 13.4927 14.2483 13.5364 14.3238 13.5651C14.3993 13.5938 14.4799 13.607 14.5606 13.6038H20.5606C20.6413 13.607 20.7218 13.5938 20.7973 13.5651C20.8728 13.5364 20.9418 13.4927 21 13.4367C21.0582 13.3807 21.1045 13.3135 21.1362 13.2392C21.1678 13.1648 21.1841 13.085 21.1841 13.0042C21.1841 12.9234 21.1678 12.8434 21.1362 12.7691C21.1045 12.6948 21.0582 12.6277 21 12.5717C20.9418 12.5157 20.8728 12.472 20.7973 12.4433C20.7218 12.4146 20.6413 12.4014 20.5606 12.4046H14.5606Z" fill="#76B900"/>
<path d="M15.5918 15.4046C15.5111 15.4014 15.4306 15.4146 15.3551 15.4433C15.2796 15.472 15.2106 15.5157 15.1524 15.5717C15.0942 15.6277 15.0479 15.6948 15.0162 15.7691C14.9846 15.8434 14.9683 15.9234 14.9683 16.0042C14.9683 16.085 14.9846 16.1648 15.0162 16.2392C15.0479 16.3135 15.0942 16.3807 15.1524 16.4367C15.2106 16.4927 15.2796 16.5364 15.3551 16.5651C15.4306 16.5938 15.5111 16.607 15.5918 16.6038H21.5918C21.6725 16.607 21.7531 16.5938 21.8286 16.5651C21.9041 16.5364 21.973 16.4927 22.0312 16.4367C22.0895 16.3807 22.1358 16.3135 22.1674 16.2392C22.1991 16.1648 22.2154 16.085 22.2154 16.0042C22.2154 15.9234 22.1991 15.8434 22.1674 15.7691C22.1358 15.6948 22.0895 15.6277 22.0312 15.5717C21.973 15.5157 21.9041 15.472 21.8286 15.4433C21.7531 15.4146 21.6725 15.4014 21.5918 15.4046H15.5918Z" fill="#76B900"/>
<path d="M16.6211 18.4046C16.5404 18.4014 16.4599 18.4146 16.3844 18.4433C16.3089 18.472 16.2399 18.5157 16.1817 18.5717C16.1235 18.6277 16.0772 18.6948 16.0455 18.7691C16.0139 18.8434 15.9976 18.9234 15.9976 19.0042C15.9976 19.085 16.0139 19.1648 16.0455 19.2392C16.0772 19.3135 16.1235 19.3807 16.1817 19.4367C16.2399 19.4927 16.3089 19.5364 16.3844 19.5651C16.4599 19.5938 16.5404 19.607 16.6211 19.6038H22.6211C22.7018 19.607 22.7824 19.5938 22.8579 19.5651C22.9334 19.5364 23.0023 19.4927 23.0605 19.4367C23.1187 19.3807 23.1651 19.3135 23.1967 19.2392C23.2284 19.1648 23.2447 19.085 23.2447 19.0042C23.2447 18.9234 23.2284 18.8434 23.1967 18.7691C23.1651 18.6948 23.1187 18.6277 23.0605 18.5717C23.0023 18.5157 22.9334 18.472 22.8579 18.4433C22.7824 18.4146 22.7018 18.4014 22.6211 18.4046H16.6211Z" fill="#76B900"/>
<path d="M9.48832 5.99901C9.28861 6.00201 9.10969 6.12308 9.03324 6.3076C9.03124 6.3126 9.02923 6.3166 9.02723 6.3213C9.02723 6.32195 9.02723 6.3223 9.02723 6.3233C9.02523 6.3293 9.02325 6.3363 9.02125 6.3428C9.01925 6.3478 9.01724 6.35179 9.01524 6.35649C9.01424 6.36149 9.01224 6.36549 9.01124 6.37019L4.01515 22.3682C3.91502 22.6905 4.15623 23.0174 4.49366 23.0167H5.99366V23.9991H1.49952C0.823361 23.9891 0.823361 25.0087 1.49952 24.9991H25.23H25.4937C25.7698 24.9991 25.9936 24.7752 25.9937 24.4991V23.0167H26.4937C26.8303 23.016 27.0701 22.6897 26.9702 22.3682L21.9702 6.35652C21.9053 6.14776 21.7123 6.00538 21.4937 6.00497H9.57374C9.54534 6.00097 9.51653 5.99896 9.48783 5.99896L9.48832 5.99901ZM10.1739 7.00487H21.125L25.8125 22.0166H14.8614L10.1739 7.00487ZM9.49418 8.1826L13.8125 22.0166H5.17387L9.49418 8.1826ZM8.99418 23.0166H14.4942H14.9942V23.999H8.99418V23.0166ZM17.9942 23.0166H22.9942V23.999H17.9942V23.0166ZM27.9434 23.999C27.2767 24.0329 27.3275 25.0329 27.9942 24.999H30.5001C31.1762 25.009 31.1762 23.9894 30.5001 23.999H27.9942C27.9773 23.9981 27.9603 23.9981 27.9434 23.999ZM2.9434 25.999C2.27673 26.0329 2.32752 27.0329 2.99421 26.999H4.99421C5.67037 27.009 5.67037 25.9894 4.99421 25.999H2.99421C2.97731 25.9981 2.9603 25.9981 2.9434 25.999ZM6.9434 25.999C6.27673 26.0329 6.32752 27.0329 6.99421 26.999H11.9942C12.6704 27.009 12.6704 25.9894 11.9942 25.999H6.99421C6.97731 25.9981 6.9603 25.9981 6.9434 25.999Z" fill="black"/>
</svg>
