<svg width="32" height="32" viewBox="0 0 32 32" fill="none" xmlns="http://www.w3.org/2000/svg">
<path d="M20.5078 21.0025C22.1647 21.0025 23.5079 19.6594 23.5079 18.0025C23.5079 16.3456 22.1647 15.0025 20.5078 15.0025V13.0025C23.2693 13.0025 25.5079 15.2411 25.5079 18.0025C25.5079 20.7639 23.2693 23.0025 20.5078 23.0025V21.0025Z" fill="#558500"/>
<path d="M7.50781 16.94V10.5025H20.5078V24.0025C20.5078 25.3875 19.3928 26.5025 18.0078 26.5025H10.0078C8.62283 26.5025 7.50781 25.3875 7.50781 24.0025V23.0025V16.94ZM7.50781 21.0025V19.5025Z" fill="#76B900"/>
<path d="M16.5078 10.5025V24.0025C16.5078 25.3875 15.3928 26.5025 14.0078 26.5025H18.0078C19.3928 26.5025 20.5078 25.3875 20.5078 24.0025V10.5025H16.5078Z" fill="#558500"/>
<path d="M12.508 14.503H10.508V17.503H12.508V14.503Z" fill="white"/>
<path d="M21.881 2.99524C21.8154 2.99626 21.7506 3.01018 21.6903 3.03626C21.63 3.06233 21.5755 3.10006 21.5298 3.14722C21.4841 3.19437 21.4481 3.24998 21.4239 3.31104C21.3997 3.37209 21.3878 3.43739 21.3889 3.50305C21.3889 3.78885 21.1746 4.00305 20.8889 4.00305H20.0158C19.9496 4.00211 19.8838 4.01436 19.8223 4.03906C19.7608 4.06377 19.7048 4.10045 19.6577 4.14697C19.6105 4.1935 19.573 4.24893 19.5474 4.31006C19.5219 4.37119 19.5087 4.43679 19.5087 4.50305C19.5087 4.56931 19.5219 4.63492 19.5474 4.69605C19.573 4.75717 19.6105 4.81261 19.6577 4.85913C19.7048 4.90565 19.7608 4.94233 19.8223 4.96704C19.8838 4.99175 19.9496 5.00399 20.0158 5.00305H20.8889C21.7111 5.00305 22.3889 4.32545 22.3889 3.50305C22.3899 3.43608 22.3775 3.36958 22.3523 3.3075C22.3272 3.24541 22.2898 3.18897 22.2424 3.1416C22.1951 3.09424 22.1387 3.05689 22.0766 3.03174C22.0145 3.00659 21.948 2.99419 21.881 2.99524V2.99524ZM11.8889 4.00305C11.0666 4.00305 10.3889 4.68065 10.3889 5.50305C10.3889 6.32545 11.0665 7.00305 11.8889 7.00305H14.7228H15.8889H17.8889C18.1746 7.00305 18.3889 7.21725 18.3889 7.50305C18.3889 7.78875 18.1745 8.00305 17.8889 8.00305H15.8889H15.09C15.0783 8.00264 15.0666 8.00264 15.0548 8.00305H13.8888C13.0665 8.00305 12.3888 8.68065 12.3888 9.50305C12.3888 10.0764 12.4439 10.16 12.5704 10.632C12.5875 10.6954 12.6169 10.7549 12.6569 10.807C12.697 10.8591 12.7469 10.9028 12.8038 10.9357C12.8608 10.9685 12.9236 10.9899 12.9888 10.9984C13.054 11.007 13.1202 11.0025 13.1837 10.9855C13.2472 10.9684 13.3067 10.9391 13.3588 10.899C13.4109 10.859 13.4546 10.809 13.4875 10.7521C13.5203 10.6951 13.5416 10.6323 13.5501 10.5671C13.5587 10.502 13.5543 10.4357 13.5372 10.3722C13.3958 9.84419 13.3888 10.0378 13.3888 9.50305C13.3888 9.21725 13.6031 9.00305 13.8888 9.00305H15.0548H15.8888H17.8888C18.7112 9.00305 19.3888 8.32545 19.3888 7.50305C19.3888 6.68065 18.7111 6.00305 17.8888 6.00305H15.8888H14.758C14.7463 6.00264 14.7345 6.00264 14.7228 6.00305H11.8888C11.6032 6.00305 11.3888 5.78875 11.3888 5.50305C11.3888 5.21725 11.6031 5.00305 11.8888 5.00305H14.3888C14.4551 5.00399 14.5209 4.99175 14.5823 4.96704C14.6438 4.94233 14.6998 4.90565 14.747 4.85913C14.7941 4.81261 14.8316 4.75717 14.8572 4.69605C14.8828 4.63492 14.8959 4.56931 14.8959 4.50305C14.8959 4.43679 14.8828 4.37119 14.8572 4.31006C14.8316 4.24893 14.7941 4.1935 14.747 4.14697C14.6998 4.10045 14.6438 4.06377 14.5823 4.03906C14.5209 4.01436 14.4551 4.00211 14.3888 4.00305H11.8889ZM16.3889 4.00305C16.3384 4.00352 16.2884 4.01154 16.2404 4.02698C16.2245 4.03186 16.2089 4.03762 16.1935 4.04407C16.1633 4.05752 16.1346 4.07389 16.1076 4.09302C16.0668 4.12195 16.0306 4.15686 16.0002 4.19653C15.9798 4.22335 15.9621 4.2521 15.9475 4.28247C15.9396 4.2971 15.9324 4.31217 15.926 4.32751C15.9206 4.34361 15.916 4.36003 15.9123 4.37659C15.8997 4.425 15.8944 4.47493 15.8967 4.5249C15.9 4.6083 15.9242 4.68957 15.967 4.76123C15.9929 4.80425 16.0252 4.84318 16.0627 4.87659C16.0874 4.89887 16.1142 4.91859 16.1428 4.93555C16.1866 4.96089 16.234 4.97937 16.2834 4.99048C16.2995 4.99462 16.3158 4.99797 16.3322 5.00049C16.3485 5.00128 16.3648 5.00128 16.381 5.00049C16.3837 5.00051 16.3864 5.00051 16.389 5.00049H18.389C18.4388 4.9995 18.4882 4.99117 18.5355 4.97559C18.5514 4.9707 18.5671 4.96494 18.5824 4.9585C18.6133 4.94516 18.6427 4.92879 18.6703 4.90955C18.6972 4.89006 18.722 4.86791 18.7445 4.84351C18.779 4.80764 18.808 4.76683 18.8304 4.72241C18.8377 4.70709 18.8442 4.6914 18.8499 4.67542C18.8615 4.64434 18.87 4.61223 18.8753 4.57947C18.8829 4.52965 18.8829 4.47889 18.8753 4.42908C18.8708 4.39571 18.863 4.36297 18.8519 4.33118C18.8351 4.28429 18.8114 4.24008 18.7816 4.2002C18.7415 4.14642 18.691 4.10125 18.6331 4.06738C18.6186 4.05931 18.6036 4.05199 18.5883 4.04541C18.543 4.02473 18.495 4.0109 18.4457 4.00439C18.4288 4.00353 18.4118 4.00353 18.3949 4.00439C18.3929 4.00438 18.3909 4.00438 18.3889 4.00439L16.3889 4.00305Z" fill="#D1D1D1"/>
<path d="M7.99431 24.0032C7.92805 24.0022 7.86227 24.0145 7.80078 24.0392C7.7393 24.0639 7.68334 24.1006 7.63615 24.1471C7.58897 24.1936 7.55151 24.249 7.52594 24.3102C7.50037 24.3713 7.48718 24.4369 7.48718 24.5032C7.48718 24.5694 7.50037 24.635 7.52594 24.6962C7.55151 24.7573 7.58897 24.8127 7.63615 24.8592C7.68334 24.9058 7.7393 24.9424 7.80078 24.9672C7.86227 24.9919 7.92805 25.0041 7.99431 25.0032H11.9943C12.0606 25.0041 12.1264 24.9919 12.1878 24.9672C12.2493 24.9424 12.3053 24.9058 12.3525 24.8592C12.3996 24.8127 12.4371 24.7573 12.4627 24.6962C12.4883 24.635 12.5014 24.5694 12.5014 24.5032C12.5014 24.4369 12.4883 24.3713 12.4627 24.3102C12.4371 24.249 12.3996 24.1936 12.3525 24.1471C12.3053 24.1006 12.2493 24.0639 12.1878 24.0392C12.1264 24.0145 12.0606 24.0022 11.9943 24.0032H7.99431ZM13.9943 24.0032C13.9281 24.0022 13.8623 24.0145 13.8008 24.0392C13.7393 24.0639 13.6833 24.1006 13.6362 24.1471C13.589 24.1936 13.5515 24.249 13.5259 24.3102C13.5004 24.3713 13.4872 24.4369 13.4872 24.5032C13.4872 24.5694 13.5004 24.635 13.5259 24.6962C13.5515 24.7573 13.589 24.8127 13.6362 24.8592C13.6833 24.9058 13.7393 24.9424 13.8008 24.9672C13.8623 24.9919 13.9281 25.0041 13.9943 25.0032H14.9943C15.0606 25.0041 15.1264 24.9919 15.1878 24.9672C15.2493 24.9424 15.3053 24.9058 15.3525 24.8592C15.3996 24.8127 15.4371 24.7573 15.4627 24.6962C15.4883 24.635 15.5014 24.5694 15.5014 24.5032C15.5014 24.4369 15.4883 24.3713 15.4627 24.3102C15.4371 24.249 15.3996 24.1936 15.3525 24.1471C15.3053 24.1006 15.2493 24.0639 15.1878 24.0392C15.1264 24.0145 15.0606 24.0022 14.9943 24.0032H13.9943Z" fill="#86C518"/>
<path d="M7.50798 10.0038C7.37538 10.0039 7.2482 10.0565 7.15443 10.1503C7.06067 10.2441 7.00799 10.3712 7.00798 10.5038V16.9413C7.00704 17.0076 7.01928 17.0734 7.04399 17.1349C7.0687 17.1964 7.10538 17.2523 7.1519 17.2995C7.19842 17.3467 7.25386 17.3842 7.31499 17.4097C7.37612 17.4353 7.44172 17.4485 7.50798 17.4485C7.57424 17.4485 7.63984 17.4353 7.70097 17.4097C7.7621 17.3842 7.81754 17.3467 7.86406 17.2995C7.91058 17.2523 7.94726 17.1964 7.97197 17.1349C7.99668 17.0734 8.00892 17.0076 8.00798 16.9413V11.0038H11.008V14.0038H10.508C10.3754 14.0039 10.2482 14.0565 10.1544 14.1503C10.0607 14.2441 10.008 14.3712 10.008 14.5038V17.5038C10.008 17.6364 10.0607 17.7636 10.1544 17.8574C10.2482 17.9512 10.3754 18.0038 10.508 18.0038H12.508C12.6406 18.0038 12.7678 17.9512 12.8615 17.8574C12.9553 17.7636 13.008 17.6364 13.008 17.5038V14.5038C13.008 14.3712 12.9553 14.2441 12.8615 14.1503C12.7678 14.0565 12.6406 14.0039 12.508 14.0038H12.008V11.0038H20.008V13.0038V15.0038V21.0038V23.0038V24.0038C20.008 25.1205 19.1246 26.0038 18.008 26.0038H10.008C8.89132 26.0038 8.00798 25.1205 8.00798 24.0038V23.0038C8.00892 22.9376 7.99668 22.8718 7.97197 22.8103C7.94726 22.7488 7.91058 22.6929 7.86406 22.6457C7.81754 22.5985 7.7621 22.5611 7.70097 22.5355C7.63984 22.5099 7.57424 22.4967 7.50798 22.4967C7.44172 22.4967 7.37612 22.5099 7.31499 22.5355C7.25386 22.5611 7.19842 22.5985 7.1519 22.6457C7.10538 22.6929 7.0687 22.7488 7.04399 22.8103C7.01928 22.8718 7.00704 22.9376 7.00798 23.0038V24.0038C7.00798 24.7748 7.30909 25.4717 7.78923 26.0038H1.50017C1.43391 26.0029 1.36814 26.0151 1.30666 26.0399C1.24517 26.0646 1.1892 26.1012 1.14201 26.1478C1.09483 26.1943 1.05737 26.2497 1.0318 26.3109C1.00623 26.372 0.993042 26.4376 0.993042 26.5038C0.993042 26.5701 1.00623 26.6357 1.0318 26.6968C1.05737 26.758 1.09483 26.8134 1.14201 26.8599C1.1892 26.9064 1.24517 26.9431 1.30666 26.9678C1.36814 26.9925 1.43391 27.0048 1.50017 27.0038H10.008H18.008H27.008C27.0742 27.0048 27.14 26.9925 27.2015 26.9678C27.263 26.9431 27.3189 26.9064 27.3661 26.8599C27.4133 26.8134 27.4508 26.758 27.4764 26.6968C27.5019 26.6357 27.5151 26.5701 27.5151 26.5038C27.5151 26.4376 27.5019 26.372 27.4764 26.3109C27.4508 26.2497 27.4133 26.1943 27.3661 26.1478C27.3189 26.1012 27.263 26.0646 27.2015 26.0399C27.14 26.0151 27.0742 26.0029 27.008 26.0038H20.2267C20.7069 25.4717 21.008 24.7748 21.008 24.0038V23.4785C23.8057 23.2242 26.008 20.8664 26.008 18.0038C26.008 15.1412 23.8057 12.7816 21.008 12.5273V10.5038C21.008 10.3712 20.9553 10.2441 20.8615 10.1503C20.7678 10.0565 20.6406 10.0039 20.508 10.0038H12.008H11.008H7.50798ZM21.008 13.6035C23.2506 13.8622 25.008 15.6902 25.008 18.0038C25.008 20.3174 23.2505 22.1435 21.008 22.4023V21.4023C22.6894 21.149 24.008 19.7538 24.008 18.0038C24.008 16.2539 22.6893 14.8587 21.008 14.6054V13.6035ZM11.008 15.0038H12.008V17.0038H11.008V15.0038ZM21.008 15.5527C22.1529 15.7826 23.008 16.7885 23.008 18.0038C23.008 19.2192 22.1529 20.2232 21.008 20.4531V15.5527ZM7.50017 18.996C7.43451 18.9971 7.36969 19.011 7.30942 19.0371C7.24915 19.0632 7.1946 19.1008 7.1489 19.148C7.10319 19.1952 7.06722 19.2508 7.04305 19.3119C7.01887 19.373 7.00695 19.4382 7.00798 19.5038V21.0038C7.00704 21.0701 7.01928 21.1359 7.04399 21.1974C7.0687 21.2589 7.10538 21.3148 7.1519 21.362C7.19842 21.4092 7.25386 21.4467 7.31499 21.4722C7.37612 21.4978 7.44172 21.511 7.50798 21.511C7.57424 21.511 7.63984 21.4978 7.70097 21.4722C7.7621 21.4467 7.81754 21.4092 7.86406 21.362C7.91058 21.3148 7.94726 21.2589 7.97197 21.1974C7.99668 21.1359 8.00892 21.0701 8.00798 21.0038V19.5038C8.00903 19.4369 7.99661 19.3704 7.97147 19.3083C7.94632 19.2462 7.90895 19.1898 7.86159 19.1424C7.81422 19.0951 7.75782 19.0577 7.69574 19.0325C7.63366 19.0074 7.56714 18.995 7.50017 18.996V18.996ZM28.9572 26.0038C28.8246 26.0106 28.7001 26.0697 28.6111 26.1683C28.5221 26.2668 28.4759 26.3966 28.4826 26.5293C28.4893 26.6619 28.5485 26.7864 28.647 26.8754C28.7455 26.9644 28.8754 27.0106 29.008 27.0038H30.5002C30.5664 27.0048 30.6322 26.9925 30.6937 26.9678C30.7552 26.9431 30.8112 26.9064 30.8583 26.8599C30.9055 26.8134 30.943 26.758 30.9686 26.6968C30.9941 26.6357 31.0073 26.5701 31.0073 26.5038C31.0073 26.4376 30.9941 26.372 30.9686 26.3109C30.943 26.2497 30.9055 26.1943 30.8583 26.1478C30.8112 26.1012 30.7552 26.0646 30.6937 26.0399C30.6322 26.0151 30.5664 26.0029 30.5002 26.0038H29.008C28.9911 26.003 28.9741 26.003 28.9572 26.0038ZM18.9572 28.0038C18.8915 28.0072 18.8272 28.0234 18.7678 28.0516C18.7084 28.0798 18.6552 28.1195 18.6111 28.1683C18.567 28.217 18.533 28.274 18.5109 28.336C18.4889 28.3979 18.4793 28.4636 18.4826 28.5293C18.4859 28.5949 18.5022 28.6593 18.5304 28.7187C18.5586 28.778 18.5982 28.8313 18.647 28.8754C18.6958 28.9194 18.7528 28.9535 18.8147 28.9755C18.8767 28.9976 18.9423 29.0072 19.008 29.0038H21.008C21.0743 29.0048 21.14 28.9925 21.2015 28.9678C21.263 28.9431 21.319 28.9064 21.3661 28.8599C21.4133 28.8134 21.4508 28.758 21.4764 28.6968C21.502 28.6357 21.5151 28.5701 21.5151 28.5038C21.5151 28.4376 21.502 28.372 21.4764 28.3109C21.4508 28.2497 21.4133 28.1943 21.3661 28.1478C21.319 28.1012 21.263 28.0646 21.2015 28.0399C21.14 28.0151 21.0743 28.0029 21.008 28.0038H19.008C18.9911 28.003 18.9741 28.003 18.9572 28.0038V28.0038ZM22.9572 28.0038C22.8915 28.0072 22.8272 28.0234 22.7678 28.0516C22.7084 28.0798 22.6552 28.1195 22.6111 28.1683C22.567 28.217 22.533 28.274 22.5109 28.336C22.4889 28.3979 22.4793 28.4636 22.4826 28.5293C22.4859 28.5949 22.5022 28.6593 22.5304 28.7187C22.5586 28.778 22.5982 28.8313 22.647 28.8754C22.6958 28.9194 22.7528 28.9535 22.8147 28.9755C22.8767 28.9976 22.9423 29.0072 23.008 29.0038H29.008C29.0743 29.0048 29.14 28.9925 29.2015 28.9678C29.263 28.9431 29.319 28.9064 29.3661 28.8599C29.4133 28.8134 29.4508 28.758 29.4764 28.6968C29.502 28.6357 29.5151 28.5701 29.5151 28.5038C29.5151 28.4376 29.502 28.372 29.4764 28.3109C29.4508 28.2497 29.4133 28.1943 29.3661 28.1478C29.319 28.1012 29.263 28.0646 29.2015 28.0399C29.14 28.0151 29.0743 28.0029 29.008 28.0038H23.008C22.9911 28.003 22.9741 28.003 22.9572 28.0038V28.0038Z" fill="black"/>
</svg>
