<svg width="32" height="32" viewBox="0 0 32 32" fill="none" xmlns="http://www.w3.org/2000/svg">
<path d="M27.494 23.503H4.49402C3.94173 23.503 3.49402 23.9507 3.49402 24.503C3.49402 25.0553 3.94173 25.503 4.49402 25.503H27.494C28.0463 25.503 28.494 25.0553 28.494 24.503C28.494 23.9507 28.0463 23.503 27.494 23.503Z" fill="#86C518"/>
<path d="M15.9941 12.5035C10.1951 12.5035 5.49411 17.2045 5.49411 23.0035C5.49611 23.1703 5.50212 23.337 5.51172 23.5035H26.4688C26.4812 23.337 26.4896 23.1703 26.4941 23.0035C26.4941 17.2045 21.7931 12.5035 15.9941 12.5035H15.9941Z" fill="#AFAFAF"/>
<path d="M23.4946 23.5035C24.0486 23.5035 24.4946 23.9495 24.4946 24.5035C24.4946 25.0575 24.0486 25.5035 23.4946 25.5035H27.4946C28.0486 25.5035 28.4946 25.0575 28.4946 24.5035C28.4946 23.9495 28.0486 23.5035 27.4946 23.5035H23.4946Z" fill="#76B900"/>
<path d="M15.9946 12.5035C15.3104 12.5035 14.6423 12.5735 13.9946 12.6989C18.8357 13.6337 22.4946 17.8894 22.4946 23.0035C22.4906 23.1703 22.4816 23.337 22.4692 23.5035H26.4692C26.4816 23.337 26.4901 23.1703 26.4946 23.0035C26.4946 17.2045 21.7936 12.5035 15.9946 12.5035Z" fill="#919090"/>
<path d="M21.4964 15.9997C21.3927 15.9983 21.2911 16.0291 21.2057 16.0879C21.1202 16.1467 21.0552 16.2306 21.0196 16.328C20.984 16.4254 20.9795 16.5315 21.0069 16.6316C21.0342 16.7316 21.092 16.8207 21.1722 16.8865C21.9015 17.5002 22.5179 18.2415 22.9866 19.074C23.019 19.1313 23.0623 19.1817 23.1141 19.2223C23.1659 19.2629 23.2251 19.2929 23.2885 19.3105C23.3519 19.3282 23.4182 19.3332 23.4835 19.3253C23.5488 19.3174 23.6119 19.2967 23.6693 19.2644C23.7266 19.2321 23.777 19.1887 23.8176 19.137C23.8582 19.0852 23.8882 19.0259 23.9059 18.9625C23.9236 18.8991 23.9286 18.8329 23.9206 18.7676C23.9127 18.7022 23.892 18.6391 23.8597 18.5818C23.3315 17.6437 22.6369 16.8109 21.8167 16.1208C21.7275 16.044 21.6141 16.0012 21.4964 15.9997V15.9997ZM24.1409 20.0232C24.0628 20.0236 23.9859 20.0423 23.9163 20.0779C23.8467 20.1134 23.7865 20.1648 23.7403 20.2279C23.6942 20.2909 23.6634 20.364 23.6506 20.441C23.6377 20.5181 23.6431 20.597 23.6663 20.6716C23.7502 20.9523 23.8192 21.2402 23.8714 21.5329C23.882 21.5985 23.9055 21.6613 23.9405 21.7176C23.9756 21.774 24.0216 21.8228 24.0757 21.8612C24.1298 21.8996 24.1911 21.9269 24.2559 21.9414C24.3207 21.9559 24.3877 21.9573 24.453 21.9457C24.5184 21.934 24.5807 21.9094 24.6365 21.8734C24.6922 21.8374 24.7403 21.7906 24.7778 21.7358C24.8152 21.681 24.8415 21.6193 24.8549 21.5543C24.8683 21.4893 24.8686 21.4223 24.8558 21.3572C24.7968 21.0269 24.7199 20.7031 24.6253 20.3865C24.5954 20.2813 24.5319 20.1888 24.4444 20.1232C24.3569 20.0575 24.2503 20.0224 24.1409 20.0232V20.0232Z" fill="#D1D1D1"/>
<path d="M17.4945 3.99582C17.4287 3.99659 17.3636 4.01039 17.3031 4.03635C17.2426 4.06231 17.1878 4.09989 17.1419 4.14707C17.096 4.19425 17.0599 4.25007 17.0356 4.31125C17.0113 4.37243 16.9993 4.43781 17.0003 4.50364C17.0003 5.32604 17.678 6.00364 18.5003 6.00364H19.3714C19.4377 6.00457 19.5035 5.99233 19.5649 5.96762C19.6264 5.94292 19.6824 5.90624 19.7296 5.85971C19.7768 5.81319 19.8142 5.75776 19.8398 5.69663C19.8654 5.6355 19.8785 5.5699 19.8785 5.50364C19.8785 5.43737 19.8654 5.37177 19.8398 5.31064C19.8142 5.24951 19.7768 5.19408 19.7296 5.14756C19.6824 5.10103 19.6264 5.06435 19.5649 5.03965C19.5035 5.01494 19.4377 5.0027 19.3714 5.00364H18.5003C18.2146 5.00364 18.0003 4.78944 18.0003 4.50364C18.0014 4.43683 17.989 4.37052 17.964 4.30857C17.939 4.24662 17.9018 4.19025 17.8546 4.14292C17.8075 4.09558 17.7513 4.0582 17.6894 4.03293C17.6276 4.00767 17.5613 3.99504 17.4945 3.99582V3.99582ZM21.0003 5.00364C20.9841 5.00284 20.9678 5.00284 20.9515 5.00364C20.9183 5.00768 20.8856 5.01502 20.8539 5.02561C20.8379 5.03082 20.8223 5.03689 20.8069 5.04367C20.7916 5.04993 20.7766 5.05693 20.762 5.06467C20.6742 5.11419 20.6034 5.18904 20.5589 5.27951C20.5516 5.29484 20.5451 5.31052 20.5394 5.32651C20.5334 5.34191 20.5282 5.35759 20.5238 5.37351C20.5112 5.42195 20.5059 5.47207 20.5082 5.52207C20.51 5.55584 20.5152 5.58932 20.5238 5.62204C20.5276 5.63792 20.5322 5.65361 20.5375 5.66904C20.5432 5.68503 20.5497 5.70071 20.557 5.71604C20.5641 5.73074 20.5719 5.74506 20.5804 5.75901C20.5888 5.77379 20.5979 5.78824 20.6077 5.8021C20.6181 5.81497 20.6292 5.82731 20.6409 5.83908C20.652 5.85133 20.6638 5.86292 20.6761 5.874C20.6886 5.88497 20.7017 5.89533 20.7152 5.905C20.7558 5.93418 20.8006 5.9571 20.848 5.973C20.8797 5.98426 20.9124 5.99235 20.9457 5.99704C20.9639 5.99804 20.9822 5.99804 21.0004 5.99704H23.0004C23.0339 5.99639 23.0673 5.99241 23.1 5.98508C23.1165 5.98124 23.1328 5.97653 23.1488 5.97104C23.1647 5.96583 23.1804 5.95988 23.1957 5.9531C23.2418 5.93297 23.2846 5.90592 23.3227 5.87302C23.3349 5.86259 23.3467 5.85162 23.3579 5.84006C23.3696 5.82764 23.3807 5.81456 23.3911 5.801C23.4009 5.78779 23.4099 5.77409 23.4184 5.75998C23.4275 5.74608 23.436 5.73176 23.4438 5.71701C23.4579 5.68687 23.4691 5.65538 23.477 5.62302C23.4942 5.55808 23.4982 5.49031 23.4887 5.4238C23.474 5.32454 23.4297 5.23209 23.3617 5.1583C23.3392 5.13389 23.3144 5.11174 23.2875 5.09226C23.2606 5.07243 23.2319 5.05532 23.2016 5.04123C23.1863 5.03445 23.1706 5.0285 23.1547 5.02329C23.105 5.00624 23.053 4.99703 23.0004 4.99619L21.0003 5.00364ZM25.0003 5.00364C24.9341 5.0027 24.8683 5.01494 24.8068 5.03965C24.7453 5.06435 24.6894 5.10103 24.6422 5.14756C24.595 5.19408 24.5575 5.24951 24.532 5.31064C24.5064 5.37177 24.4932 5.43737 24.4932 5.50364C24.4932 5.5699 24.5064 5.6355 24.532 5.69663C24.5575 5.75776 24.595 5.81319 24.6422 5.85971C24.6894 5.90624 24.7453 5.94292 24.8068 5.96762C24.8683 5.99233 24.9341 6.00457 25.0003 6.00364H27.5003C27.786 6.00364 28.0003 6.21784 28.0003 6.50364C28.0003 6.78924 27.786 7.00364 27.5003 7.00364H24.7015H24.6663H23.5003H21.5003C20.678 7.00364 20.0003 7.68124 20.0003 8.50364C20.0003 9.32594 20.678 10.0036 21.5003 10.0036H24.3011H24.3343H25.5003C25.786 10.0036 26.0003 10.2178 26.0003 10.5036C26.0003 10.7892 25.786 11.0036 25.5003 11.0036H24.0003C23.934 11.0027 23.8682 11.0149 23.8068 11.0396C23.7453 11.0644 23.6893 11.101 23.6422 11.1476C23.595 11.1941 23.5575 11.2495 23.5319 11.3106C23.5063 11.3718 23.4932 11.4374 23.4932 11.5036C23.4932 11.5699 23.5063 11.6355 23.5319 11.6966C23.5575 11.7578 23.595 11.8132 23.6422 11.8597C23.6893 11.9062 23.7453 11.9429 23.8068 11.9676C23.8682 11.9923 23.934 12.0046 24.0003 12.0036H25.5003C26.3227 12.0036 27.0003 11.3259 27.0003 10.5036C27.0003 9.68124 26.3226 9.00364 25.5003 9.00364H24.3694C24.3577 9.00322 24.346 9.00322 24.3342 9.00364H21.5002C21.2146 9.00364 21.0002 8.78924 21.0002 8.50364C21.0002 8.21784 21.2145 8.00364 21.5002 8.00364H23.5002H24.6331H24.6663H27.5002C28.3226 8.00364 29.0002 7.32594 29.0002 6.50364C29.0002 5.68124 28.3225 5.00364 27.5002 5.00364H25.0003Z" fill="#D1D1D1"/>
<path d="M6.12338 5.99973C6.05756 6.0005 5.99253 6.0143 5.93204 6.04026C5.87154 6.06622 5.81675 6.10379 5.77084 6.15097C5.72493 6.19815 5.68879 6.25398 5.66449 6.31516C5.64019 6.37634 5.62822 6.44172 5.62924 6.50754C5.62924 7.32994 6.30695 8.00754 7.12924 8.00754H8.00034C8.06659 8.00848 8.13236 7.99624 8.19385 7.97153C8.25533 7.94682 8.3113 7.91014 8.35849 7.86362C8.40567 7.8171 8.44315 7.76166 8.46872 7.70053C8.49429 7.63941 8.50745 7.5738 8.50745 7.50754C8.50745 7.44128 8.49429 7.37568 8.46872 7.31455C8.44315 7.25342 8.40567 7.19798 8.35849 7.15146C8.3113 7.10494 8.25533 7.06826 8.19385 7.04355C8.13236 7.01885 8.06659 7.0066 8.00034 7.00754H7.12924C6.84354 7.00754 6.62924 6.79334 6.62924 6.50754C6.63028 6.44073 6.61792 6.37442 6.5929 6.31247C6.56787 6.25052 6.53068 6.19416 6.48352 6.14682C6.43637 6.09949 6.38018 6.06211 6.31833 6.03684C6.25647 6.01157 6.19019 5.99895 6.12338 5.99973V5.99973ZM10.0003 7.00364C9.93408 7.0027 9.86831 7.01494 9.80682 7.03965C9.74534 7.06435 9.68937 7.10103 9.64218 7.14756C9.595 7.19408 9.55753 7.24951 9.53195 7.31064C9.50638 7.37177 9.49322 7.43737 9.49322 7.50364C9.49322 7.5699 9.50638 7.6355 9.53195 7.69663C9.55753 7.75776 9.595 7.81319 9.64218 7.85971C9.68937 7.90624 9.74534 7.94292 9.80682 7.96762C9.86831 7.99233 9.93408 8.00457 10.0003 8.00364H11.5003C11.7862 8.00364 12.0003 8.21754 12.0003 8.50364C12.0003 8.78924 11.786 9.00364 11.5003 9.00364H10.0355C10.0238 9.00322 10.0121 9.00322 10.0004 9.00364H8.5004C7.67823 9.00364 7.0004 9.68114 7.0004 10.5036C7.0004 11.3259 7.67805 12.0036 8.5004 12.0036H10.0004C10.0667 12.0046 10.1324 11.9923 10.1939 11.9676C10.2554 11.9429 10.3114 11.9062 10.3586 11.8597C10.4057 11.8132 10.4432 11.7578 10.4688 11.6966C10.4944 11.6355 10.5075 11.5699 10.5075 11.5036C10.5075 11.4374 10.4944 11.3718 10.4688 11.3106C10.4432 11.2495 10.4057 11.1941 10.3586 11.1476C10.3114 11.101 10.2554 11.0644 10.1939 11.0396C10.1324 11.0149 10.0667 11.0027 10.0004 11.0036H8.5004C8.21475 11.0036 8.0004 10.7892 8.0004 10.5036C8.0004 10.2175 8.21457 10.0036 8.5004 10.0036H9.96716H10.0004H11.5004C12.3227 10.0036 13.0004 9.32594 13.0004 8.50364C13.0004 7.68114 12.3225 7.00364 11.5004 7.00364H10.0003Z" fill="#D1D1D1"/>
<path d="M15.9945 9.00433C14.8958 9.00433 13.9945 9.90563 13.9945 11.0043C13.9945 11.4263 14.1298 11.8172 14.3558 12.1411C9.0645 12.9359 4.99448 17.4936 4.99448 23.0043H4.49448C3.67214 23.0043 2.99448 23.682 2.99448 24.5043C2.99448 24.6806 3.03117 24.8466 3.08817 25.0043H1.50027C1.43402 25.0034 1.36825 25.0156 1.30676 25.0403C1.24528 25.0651 1.18934 25.1017 1.14215 25.1483C1.09497 25.1948 1.0575 25.2502 1.03192 25.3113C1.00635 25.3725 0.993164 25.4381 0.993164 25.5043C0.993164 25.5706 1.00635 25.6362 1.03192 25.6973C1.0575 25.7585 1.09497 25.8139 1.14215 25.8604C1.18934 25.9069 1.24528 25.9436 1.30676 25.9683C1.36825 25.993 1.43402 26.0053 1.50027 26.0043H30.5003C30.5665 26.0053 30.6323 25.993 30.6938 25.9683C30.7553 25.9436 30.8112 25.9069 30.8584 25.8604C30.9056 25.8139 30.9431 25.7585 30.9687 25.6973C30.9942 25.6362 31.0074 25.5706 31.0074 25.5043C31.0074 25.4381 30.9942 25.3725 30.9687 25.3113C30.9431 25.2502 30.9056 25.1948 30.8584 25.1483C30.8112 25.1017 30.7553 25.0651 30.6938 25.0403C30.6323 25.0156 30.5665 25.0034 30.5003 25.0043H28.9007C28.9577 24.8466 28.9944 24.6806 28.9944 24.5043C28.9944 23.682 28.3167 23.0043 27.4944 23.0043H26.9944C26.9924 17.4946 22.9223 12.9366 17.6311 12.143C17.8581 11.8187 17.9944 11.4273 17.9944 11.0043C17.9944 9.90563 17.093 9.00433 15.9944 9.00433H15.9945ZM15.9945 10.0043C16.5527 10.0043 16.9945 10.4461 16.9945 11.0043C16.9945 11.5625 16.5527 12.0043 15.9945 12.0043C15.4363 12.0043 14.9945 11.5625 14.9945 11.0043C14.9945 10.4461 15.4363 10.0043 15.9945 10.0043ZM15.9808 13.0024C15.9858 13.0024 15.9898 13.0044 15.9945 13.0044C21.5226 13.0044 25.9934 17.4746 25.9945 23.0024H7.98862C7.99276 22.9759 7.99478 22.9492 7.99463 22.9223C7.99463 21.5055 8.36881 20.1794 9.02588 19.0298C9.0705 18.954 9.09437 18.8679 9.09509 18.78C9.09581 18.6921 9.07334 18.6056 9.02997 18.5291C8.9866 18.4527 8.92384 18.389 8.84802 18.3446C8.77221 18.3001 8.68601 18.2764 8.59811 18.2759C8.50848 18.2755 8.42042 18.2992 8.34311 18.3446C8.2658 18.39 8.20211 18.4553 8.15869 18.5337C7.4183 19.8291 6.99463 21.3288 6.99463 22.9223C6.99448 22.9492 6.99647 22.9759 7.00061 23.0024H5.99475C5.99475 17.4782 10.4587 13.0099 15.9811 13.0024L15.9808 13.0024ZM4.49445 24.0043H5.45538C5.47416 24.0067 5.49307 24.008 5.51199 24.0082H26.469C26.486 24.0078 26.5029 24.0065 26.5198 24.0043H27.4944C27.7801 24.0043 27.9944 24.2187 27.9944 24.5043C27.9944 24.7899 27.7801 25.0043 27.4944 25.0043H4.49442C4.20878 25.0043 3.99442 24.7899 3.99442 24.5043C3.99442 24.2187 4.20878 24.0043 4.49442 24.0043H4.49445ZM2.94366 27.0043C2.81106 27.0111 2.68657 27.0702 2.59756 27.1687C2.50856 27.2673 2.46232 27.3971 2.46906 27.5297C2.47579 27.6623 2.53495 27.7868 2.63348 27.8759C2.73202 27.9649 2.86187 28.0111 2.99448 28.0043H5.99448C6.06072 28.0053 6.12649 27.993 6.18796 27.9683C6.24943 27.9436 6.30537 27.9069 6.35254 27.8604C6.39971 27.8138 6.43714 27.7584 6.46271 27.6973C6.48827 27.6362 6.50143 27.5706 6.50143 27.5043C6.50143 27.4381 6.48827 27.3725 6.46271 27.3114C6.43714 27.2503 6.39971 27.1948 6.35254 27.1483C6.30537 27.1018 6.24943 27.0651 6.18796 27.0404C6.12649 27.0157 6.06072 27.0034 5.99448 27.0043H2.99448C2.97755 27.0035 2.96059 27.0035 2.94366 27.0043ZM19.9437 27.0043C19.8111 27.0111 19.6866 27.0702 19.5976 27.1687C19.5086 27.2673 19.4623 27.3971 19.4691 27.5297C19.4758 27.6623 19.535 27.7868 19.6335 27.8759C19.732 27.9649 19.8619 28.0111 19.9945 28.0043H24.6937C24.7599 28.0053 24.8257 27.993 24.8872 27.9683C24.9486 27.9436 25.0046 27.9069 25.0518 27.8604C25.0989 27.8138 25.1364 27.7584 25.1619 27.6973C25.1875 27.6362 25.2007 27.5706 25.2007 27.5043C25.2007 27.4381 25.1875 27.3725 25.1619 27.3114C25.1364 27.2503 25.0989 27.1948 25.0518 27.1483C25.0046 27.1018 24.9486 27.0651 24.8872 27.0404C24.8257 27.0157 24.7599 27.0034 24.6937 27.0043H19.9945C19.9776 27.0035 19.9606 27.0035 19.9437 27.0043V27.0043ZM26.9437 27.0043C26.8111 27.0111 26.6866 27.0702 26.5976 27.1687C26.5086 27.2673 26.4623 27.3971 26.4691 27.5297C26.4758 27.6623 26.535 27.7868 26.6335 27.8759C26.732 27.9649 26.8619 28.0111 26.9945 28.0043H27.9945C28.0607 28.0053 28.1265 27.993 28.188 27.9683C28.2494 27.9436 28.3054 27.9069 28.3525 27.8604C28.3997 27.8138 28.4371 27.7584 28.4627 27.6973C28.4883 27.6362 28.5014 27.5706 28.5014 27.5043C28.5014 27.4381 28.4883 27.3725 28.4627 27.3114C28.4371 27.2503 28.3997 27.1948 28.3525 27.1483C28.3054 27.1018 28.2494 27.0651 28.188 27.0404C28.1265 27.0157 28.0607 27.0034 27.9945 27.0043H26.9945C26.9776 27.0035 26.9606 27.0035 26.9437 27.0043Z" fill="black"/>
</svg>
