<svg width="32" height="32" viewBox="0 0 32 32" fill="none" xmlns="http://www.w3.org/2000/svg">
<path d="M18.7664 28.4986H7.50684V21.9986L7.50679 21.1619C7.50677 19.3756 6.52062 17.9237 5.00677 16.8317L4.45386 16.4363C2.6736 15.2726 1.50898 13.2634 1.50684 10.9986C1.50684 7.4088 4.41699 4.4986 8.00684 4.4986C8.78508 4.4986 9.55644 4.64457 10.2842 4.92047C11.4169 2.81377 13.615 1.4994 16.0068 1.4986C18.3285 1.4986 20.4718 2.74421 21.6299 4.75641C22.2409 4.58581 22.8724 4.4991 23.5068 4.4986C27.3728 4.4986 30.5068 7.6326 30.5068 11.4986C30.5048 13.6373 29.5376 15.5755 27.9924 16.8666L27.0068 17.6684C25.9728 18.4394 24.5068 19.3324 24.5068 21.9986V28.4986H18.7664ZM20.7664 28.4986H22.3083Z" fill="white"/>
<path d="M21.7419 4.86273C24.5122 5.79513 26.5075 8.4139 26.5075 11.4986C26.5055 13.6373 25.537 15.5747 23.9919 16.8658L23.0075 17.6685C21.9735 18.4395 20.5075 19.3324 20.5075 21.9986V28.4986H20.7673H22.3083H24.5075V21.9986C24.5075 19.3324 25.9735 18.4395 27.0075 17.6685L27.9919 16.8658C29.537 15.5747 30.5055 13.6373 30.5075 11.4986C30.5075 7.6326 27.3735 4.4986 23.5075 4.4986C22.8731 4.4991 22.2416 4.58561 21.6306 4.75641L21.7419 4.86273Z" fill="#D1D1D1"/>
<path d="M24.155 25.499H7.711V28.499H24.155V25.499Z" fill="#76B900"/>
<path d="M20.5075 25.4986V28.4986H24.154V25.4986H20.5075Z" fill="#558500"/>
<path d="M16.007 0.999985C13.5599 1.00078 11.3287 2.30519 10.0636 4.37889C9.39574 4.16859 8.71128 3.99998 8.007 3.99998C4.14693 3.99998 1.007 7.13988 1.007 11C1.009 13.4359 2.26353 15.6022 4.18083 16.8555L4.71404 17.2383C6.14092 18.2676 7.00698 19.5598 7.007 21.1621V22V28H1.49919C1.43294 27.999 1.36716 28.0113 1.30568 28.036C1.2442 28.0607 1.18822 28.0974 1.14104 28.1439C1.09385 28.1904 1.0564 28.2459 1.03082 28.307C1.00525 28.3681 0.992065 28.4337 0.992065 28.5C0.992065 28.5662 1.00525 28.6318 1.03082 28.693C1.0564 28.7541 1.09385 28.8095 1.14104 28.8561C1.18822 28.9026 1.2442 28.9393 1.30568 28.964C1.36716 28.9887 1.43294 29.0009 1.49919 29H9.007H18.7668C18.833 29.0009 18.8988 28.9887 18.9603 28.964C19.0218 28.9393 19.0777 28.9026 19.1249 28.8561C19.1721 28.8095 19.2096 28.7541 19.2352 28.693C19.2607 28.6318 19.2739 28.5662 19.2739 28.5C19.2739 28.4337 19.2607 28.3681 19.2352 28.307C19.2096 28.2459 19.1721 28.1904 19.1249 28.1439C19.0777 28.0974 19.0218 28.0607 18.9603 28.036C18.8988 28.0113 18.833 27.999 18.7668 28H9.007H8.007V26H24.007V28C23.9407 27.999 23.875 28.0113 23.8135 28.036C23.752 28.0607 23.696 28.0974 23.6488 28.1439C23.6017 28.1904 23.5642 28.2459 23.5386 28.307C23.513 28.3681 23.4999 28.4337 23.4999 28.5C23.4999 28.5662 23.513 28.6318 23.5386 28.693C23.5642 28.7541 23.6017 28.8095 23.6488 28.8561C23.696 28.9026 23.752 28.9393 23.8135 28.964C23.875 28.9887 23.9407 29.0009 24.007 29H24.4074C24.4712 29.0126 24.5369 29.0126 24.6008 29H28.007C28.0733 29.0009 28.139 28.9887 28.2005 28.964C28.262 28.9393 28.318 28.9026 28.3652 28.8561C28.4123 28.8095 28.4498 28.7541 28.4754 28.693C28.501 28.6318 28.5141 28.5662 28.5141 28.5C28.5141 28.4337 28.501 28.3681 28.4754 28.307C28.4498 28.2459 28.4123 28.1904 28.3652 28.1439C28.318 28.0974 28.262 28.0607 28.2005 28.036C28.139 28.0113 28.0733 27.999 28.007 28H25.007V22.0019C25.007 20.7604 25.3316 20.0009 25.7668 19.4277C26.202 18.8546 26.7722 18.4702 27.3058 18.0723C27.3111 18.0678 27.3163 18.0632 27.3214 18.0585L28.3078 17.2578C28.3098 17.2578 28.3118 17.2578 28.3138 17.2578C29.9691 15.8747 31.005 13.7949 31.0071 11.5058C31.0071 7.36953 27.6433 4.00583 23.5071 4.00583C22.9277 4.00623 22.3555 4.1071 21.7923 4.2402C20.5073 2.2736 18.3747 1.00583 16.0071 1.00583V0.999817L16.007 0.999985ZM16.007 2.00194C18.1498 2.00194 20.127 3.1495 21.1965 5.0078C21.2086 5.02894 21.2223 5.04916 21.2375 5.0683C21.9531 6.3465 22.1832 7.8462 21.8664 9.28705C21.7072 9.94825 22.71 10.1688 22.8429 9.50188C23.1692 8.01824 22.9999 6.47937 22.382 5.11322C22.7537 5.04772 23.1284 5.00214 23.507 5.00188C27.1028 5.00188 30.007 7.90608 30.007 11.5019C30.005 13.4893 29.1056 15.2877 27.6711 16.4863L26.7082 17.2695C26.2078 17.6427 25.5262 18.0895 24.9699 18.8222C24.4136 19.5548 24.007 20.5771 24.007 22.0019V24.9999H22.007V20.8984C22.007 18.8637 22.8396 18.0837 23.7218 17.4042C23.806 17.3413 23.8681 17.2534 23.8995 17.1531C23.9308 17.0528 23.9298 16.9451 23.8965 16.8455C23.8632 16.7458 23.7993 16.6591 23.714 16.5978C23.6286 16.5365 23.5261 16.5036 23.4211 16.5038C23.3084 16.5036 23.199 16.5415 23.1105 16.6113C22.1437 17.3559 21.007 18.5633 21.007 20.8984V24.9999H13.9894C14.0019 24.9541 14.0078 24.9068 14.007 24.8593V22.4648V21.5058C14.0081 21.4388 13.9956 21.3723 13.9705 21.3102C13.9453 21.2481 13.908 21.1917 13.8606 21.1444C13.8132 21.097 13.7568 21.0596 13.6948 21.0345C13.6327 21.0094 13.5662 20.9969 13.4992 20.998C13.4335 20.999 13.3687 21.013 13.3084 21.039C13.2482 21.0651 13.1936 21.1028 13.1479 21.1499C13.1022 21.1971 13.0662 21.2528 13.0421 21.3139C13.0179 21.3749 13.006 21.4401 13.007 21.5058V22.4648V24.8593C13.0062 24.9068 13.0121 24.9541 13.0246 24.9999H11.007C11.007 23.5305 11.0071 22.0611 11.007 20.5917C11.007 18.9598 10.4023 17.3956 9.32538 16.1933C9.27593 16.1363 9.21424 16.0912 9.1449 16.0615C9.07556 16.0317 9.00037 16.018 8.92499 16.0214C8.82952 16.0254 8.73719 16.0566 8.65892 16.1115C8.58065 16.1663 8.51972 16.2423 8.48335 16.3307C8.44698 16.4191 8.43669 16.516 8.45369 16.61C8.47069 16.704 8.51429 16.7912 8.5793 16.8613C9.49277 17.8811 10.007 19.2069 10.007 20.5917C10.0071 22.061 10.007 23.5305 10.007 24.9999H8.00702V21.9999V21.162C8.007 19.1917 6.90081 17.5824 5.29999 16.4277C5.29932 16.4277 5.29866 16.4277 5.29799 16.4277L4.74525 16.0331C4.73951 16.0278 4.73365 16.0226 4.72766 16.0175C3.08496 14.9438 2.00962 13.0928 2.00696 11C2.00796 7.68135 4.688 5.00191 8.00696 5.00191C8.72267 5.00191 9.43367 5.13548 10.1066 5.39058C10.1105 5.39196 10.1144 5.39329 10.1183 5.39458C11.0261 5.73685 11.8427 6.28461 12.4893 7.01178C12.9321 7.51048 13.6801 6.84642 13.2374 6.34772C12.6159 5.64889 11.8588 5.09038 11.0206 4.6895C12.1251 3.02614 13.9856 2.00264 16.0069 2.002L16.007 2.00194ZM7.93669 6.99998C5.74722 7.03798 3.98785 8.84349 4.007 11.0332C4.0185 12.3536 4.67286 13.5268 5.67107 14.2461C5.72403 14.2881 5.78498 14.319 5.85022 14.3368C5.91546 14.3546 5.98365 14.359 6.05064 14.3498C6.11764 14.3405 6.18205 14.3177 6.23999 14.2828C6.29793 14.2479 6.34817 14.2016 6.38771 14.1468C6.42725 14.0919 6.45524 14.0296 6.47 13.9636C6.48476 13.8976 6.48597 13.8292 6.47357 13.7628C6.46117 13.6963 6.43542 13.633 6.39786 13.5768C6.3603 13.5205 6.31171 13.4725 6.25505 13.4355C5.5057 12.8956 5.01569 12.0217 5.007 11.0254C4.9925 9.37298 6.30207 8.02878 7.95427 7.99998C8.01993 7.99883 8.08472 7.98475 8.14494 7.95856C8.20516 7.93236 8.25964 7.89457 8.30525 7.84732C8.35086 7.80007 8.38672 7.7443 8.41078 7.6832C8.43484 7.62209 8.44664 7.55684 8.44548 7.49118C8.44432 7.42552 8.43025 7.36073 8.40405 7.30051C8.37786 7.24029 8.34005 7.18583 8.2928 7.14021C8.24555 7.0946 8.1898 7.05874 8.12869 7.03468C8.06759 7.01062 8.00234 6.99883 7.93668 6.99998H7.93669ZM26.8996 12.7558C26.8014 12.755 26.7052 12.7831 26.6229 12.8366C26.5406 12.8901 26.4758 12.9666 26.4367 13.0566C26.0314 13.9575 25.4247 14.753 24.6711 15.3828C24.6203 15.4249 24.5783 15.4765 24.5475 15.5349C24.5167 15.5932 24.4978 15.6571 24.4918 15.7228C24.4858 15.7885 24.4928 15.8547 24.5125 15.9177C24.5322 15.9806 24.5641 16.0391 24.6064 16.0897C24.6488 16.1402 24.7007 16.1819 24.7592 16.2124C24.8177 16.2428 24.8817 16.2614 24.9474 16.2671C25.0131 16.2727 25.0793 16.2653 25.1422 16.2453C25.205 16.2252 25.2633 16.193 25.3136 16.1504C26.1831 15.4239 26.8809 14.5066 27.3488 13.4668C27.3841 13.3909 27.3998 13.3074 27.3944 13.2239C27.3891 13.1403 27.3628 13.0595 27.3181 12.9888C27.2734 12.918 27.2117 12.8596 27.1386 12.8189C27.0654 12.7782 26.9833 12.7565 26.8996 12.7558V12.7558ZM20.716 28C20.5834 28.0067 20.4589 28.0659 20.3699 28.1644C20.2809 28.2629 20.2346 28.3928 20.2414 28.5254C20.2481 28.658 20.3073 28.7825 20.4058 28.8715C20.5043 28.9605 20.6342 29.0067 20.7668 29H22.3078C22.3741 29.0009 22.4398 28.9887 22.5013 28.964C22.5628 28.9393 22.6188 28.9026 22.6659 28.8561C22.7131 28.8095 22.7506 28.7541 22.7762 28.693C22.8017 28.6318 22.8149 28.5662 22.8149 28.5C22.8149 28.4337 22.8017 28.3681 22.7762 28.307C22.7506 28.2459 22.7131 28.1904 22.6659 28.1439C22.6188 28.0974 22.5628 28.0607 22.5013 28.036C22.4398 28.0113 22.3741 27.999 22.3078 28H20.7668C20.7499 27.9991 20.7329 27.9991 20.716 28ZM2.95622 30C2.89056 30.0033 2.8262 30.0196 2.76682 30.0478C2.70743 30.076 2.65418 30.1156 2.61011 30.1644C2.56604 30.2132 2.53201 30.2702 2.50996 30.3321C2.48792 30.394 2.47829 30.4597 2.48163 30.5254C2.48496 30.5911 2.50119 30.6554 2.5294 30.7148C2.55761 30.7742 2.59724 30.8274 2.64603 30.8715C2.69481 30.9156 2.75181 30.9496 2.81375 30.9716C2.87569 30.9937 2.94136 31.0033 3.00702 31H7.00702C7.07327 31.0009 7.13906 30.9887 7.20055 30.964C7.26203 30.9393 7.31799 30.9026 7.36517 30.8561C7.41236 30.8095 7.44983 30.7541 7.4754 30.693C7.50098 30.6318 7.51414 30.5662 7.51414 30.5C7.51414 30.4337 7.50098 30.3681 7.4754 30.307C7.44983 30.2459 7.41236 30.1904 7.36517 30.1439C7.31799 30.0974 7.26203 30.0607 7.20055 30.036C7.13906 30.0113 7.07327 29.999 7.00702 30H3.00702C2.9901 29.9991 2.97314 29.9991 2.95622 30ZM8.95622 30C8.89056 30.0033 8.8262 30.0196 8.76682 30.0478C8.70743 30.076 8.65418 30.1156 8.61011 30.1644C8.56604 30.2132 8.53201 30.2702 8.50996 30.3321C8.48792 30.394 8.47829 30.4597 8.48163 30.5254C8.48496 30.5911 8.50119 30.6554 8.5294 30.7148C8.55761 30.7742 8.59724 30.8274 8.64603 30.8715C8.69481 30.9156 8.75181 30.9496 8.81375 30.9716C8.87569 30.9937 8.94136 31.0033 9.00702 31H11.007C11.0733 31.0009 11.1391 30.9887 11.2005 30.964C11.262 30.9393 11.318 30.9026 11.3652 30.8561C11.4124 30.8095 11.4498 30.7541 11.4754 30.693C11.501 30.6318 11.5141 30.5662 11.5141 30.5C11.5141 30.4337 11.501 30.3681 11.4754 30.307C11.4498 30.2459 11.4124 30.1904 11.3652 30.1439C11.318 30.0974 11.262 30.0607 11.2005 30.036C11.1391 30.0113 11.0733 29.999 11.007 30H9.00702C8.9901 29.9991 8.97314 29.9991 8.95622 30ZM25.9562 30C25.8906 30.0033 25.8262 30.0196 25.7668 30.0478C25.7074 30.076 25.6542 30.1156 25.6101 30.1644C25.566 30.2132 25.532 30.2702 25.51 30.3321C25.4879 30.394 25.4783 30.4597 25.4816 30.5254C25.485 30.5911 25.5012 30.6554 25.5294 30.7148C25.5576 30.7742 25.5972 30.8274 25.646 30.8715C25.6948 30.9156 25.7518 30.9496 25.8138 30.9716C25.8757 30.9937 25.9414 31.0033 26.007 31H30.4992C30.5655 31.0009 30.6312 30.9887 30.6927 30.964C30.7542 30.9393 30.8102 30.9026 30.8574 30.8561C30.9045 30.8095 30.942 30.7541 30.9676 30.693C30.9932 30.6318 31.0063 30.5662 31.0063 30.5C31.0063 30.4337 30.9932 30.3681 30.9676 30.307C30.942 30.2459 30.9045 30.1904 30.8574 30.1439C30.8102 30.0974 30.7542 30.0607 30.6927 30.036C30.6312 30.0113 30.5655 29.999 30.4992 30H26.007C25.9901 29.9991 25.9731 29.9991 25.9562 30Z" fill="black"/>
</svg>
