<svg width="32" height="32" viewBox="0 0 32 32" fill="none" xmlns="http://www.w3.org/2000/svg">
<path d="M29.5007 24.9993V25.9993C29.5007 27.3843 28.3857 28.4993 27.0007 28.4993H5.00072C3.61571 28.4993 2.5007 27.3843 2.5007 25.9993V14.9993C2.5007 13.6143 3.61571 12.4993 5.00072 12.4993H27.0007C28.3857 12.4993 29.5007 13.6143 29.5007 14.9993V19.9429V24.9993ZM29.5007 21.9993V22.9993Z" fill="#86C518"/>
<path d="M23.0005 12.4994C24.3856 12.4994 25.5005 13.6144 25.5005 14.9994V19.9427V21.9994V22.9994V24.9994V25.9994C25.5005 27.3844 24.3856 28.4994 23.0005 28.4994H27.0005C28.3856 28.4994 29.5005 27.3844 29.5005 25.9994V24.9994V22.9994V21.9994V19.9427V14.9994C29.5005 13.6144 28.3856 12.4994 27.0005 12.4994H23.0005Z" fill="#76B900"/>
<path d="M17.5007 3.99915C17.5007 4.39697 17.3426 4.77851 17.0613 5.05981C16.78 5.34112 16.3985 5.49915 16.0007 5.49915C15.6028 5.49915 15.2213 5.34112 14.94 5.05981C14.6587 4.77851 14.5007 4.39697 14.5007 3.99915C14.5007 3.60132 14.6587 3.21978 14.94 2.93848C15.2213 2.65717 15.6028 2.49915 16.0007 2.49915C16.3985 2.49915 16.78 2.65717 17.0613 2.93848C17.3426 3.21978 17.5007 3.60132 17.5007 3.99915V3.99915Z" fill="#FFDC5D"/>
<path d="M4.50067 16.4993H27.5007V26.4991H4.50067V16.4993Z" fill="white"/>
<path d="M19.7619 17.9986C19.6956 17.9976 19.6299 18.0099 19.5684 18.0346C19.5069 18.0593 19.4509 18.096 19.4037 18.1425C19.3566 18.189 19.3191 18.2445 19.2935 18.3056C19.268 18.3667 19.2548 18.4323 19.2548 18.4986C19.2548 18.5648 19.268 18.6304 19.2935 18.6916C19.3191 18.7527 19.3566 18.8081 19.4037 18.8547C19.4509 18.9012 19.5069 18.9379 19.5684 18.9626C19.6299 18.9873 19.6956 18.9995 19.7619 18.9986H20.7619C20.8282 18.9995 20.8939 18.9873 20.9554 18.9626C21.0169 18.9379 21.0729 18.9012 21.1201 18.8547C21.1672 18.8081 21.2047 18.7527 21.2303 18.6916C21.2559 18.6304 21.269 18.5648 21.269 18.4986C21.269 18.4323 21.2559 18.3667 21.2303 18.3056C21.2047 18.2445 21.1672 18.189 21.1201 18.1425C21.0729 18.096 21.0169 18.0593 20.9554 18.0346C20.8939 18.0099 20.8282 17.9976 20.7619 17.9986H19.7619ZM22.7014 17.9986C22.6351 17.9976 22.5693 18.0099 22.5078 18.0346C22.4463 18.0593 22.3904 18.096 22.3432 18.1425C22.296 18.189 22.2585 18.2445 22.233 18.3056C22.2074 18.3667 22.1942 18.4323 22.1942 18.4986C22.1942 18.5648 22.2074 18.6304 22.233 18.6916C22.2585 18.7527 22.296 18.8081 22.3432 18.8547C22.3904 18.9012 22.4463 18.9379 22.5078 18.9626C22.5693 18.9873 22.6351 18.9995 22.7014 18.9986H27.0002C27.0664 18.9995 27.1322 18.9873 27.1937 18.9626C27.2552 18.9379 27.3112 18.9012 27.3583 18.8547C27.4055 18.8081 27.443 18.7527 27.4686 18.6916C27.4941 18.6304 27.5073 18.5648 27.5073 18.4986C27.5073 18.4323 27.4941 18.3667 27.4686 18.3056C27.443 18.2445 27.4055 18.189 27.3583 18.1425C27.3112 18.096 27.2552 18.0593 27.1937 18.0346C27.1322 18.0099 27.0664 17.9976 27.0002 17.9986H22.7014Z" fill="#D1D1D1"/>
<path d="M25.5006 16.4994V19.9427V21.9994V22.9994V24.9994V25.9994C25.5006 26.1705 25.4823 26.3381 25.4498 26.4994H27.5005V16.4994H25.5006Z" fill="#D1D1D1"/>
<path d="M25.5005 18.0014V19.0014H27.0005C27.1204 19.0029 27.2368 18.9613 27.3285 18.8842C27.4203 18.8071 27.4814 18.6998 27.5005 18.5815V18.4174C27.4805 18.2998 27.4191 18.1933 27.3275 18.117C27.2358 18.0407 27.1198 17.9997 27.0005 18.0014H25.5005Z" fill="#AFAFAF"/>
<path d="M22.4916 19.9855C22.426 19.9866 22.3612 20.0005 22.3009 20.0266C22.2406 20.0526 22.1861 20.0904 22.1404 20.1375C22.0947 20.1847 22.0587 20.2404 22.0345 20.3015C22.0103 20.3625 21.9984 20.4277 21.9995 20.4933V22.3723L20.9487 20.2687C20.8982 20.1679 20.8152 20.0871 20.7131 20.0394C20.611 19.9917 20.4958 19.9799 20.3861 20.0059C20.2764 20.0319 20.1787 20.0942 20.1089 20.1827C20.0391 20.2712 20.0012 20.3806 20.0014 20.4933V24.4933C20.0005 24.5596 20.0127 24.6253 20.0374 24.6868C20.0621 24.7483 20.0988 24.8043 20.1453 24.8515C20.1918 24.8987 20.2473 24.9362 20.3084 24.9617C20.3695 24.9873 20.4351 25.0004 20.5014 25.0004C20.5677 25.0004 20.6333 24.9873 20.6944 24.9617C20.7555 24.9362 20.811 24.8987 20.8575 24.8515C20.904 24.8043 20.9407 24.7483 20.9654 24.6868C20.9901 24.6253 21.0023 24.5596 21.0014 24.4933V22.6125L22.0522 24.716C22.1025 24.8167 22.1854 24.8974 22.2873 24.9451C22.3892 24.9929 22.5043 25.0048 22.6138 24.9791C22.7234 24.9533 22.8211 24.8913 22.8911 24.8032C22.961 24.715 22.9992 24.6059 22.9995 24.4933V20.4933C23.0005 20.4264 22.9881 20.3599 22.9629 20.2978C22.9378 20.2357 22.9004 20.1793 22.853 20.1319C22.8057 20.0845 22.7493 20.0472 22.6872 20.022C22.6251 19.9969 22.5586 19.9845 22.4916 19.9855ZM9.5014 19.9996C8.67905 19.9996 8.0014 20.6773 8.0014 21.4996V23.4996C8.0014 24.322 8.67905 24.9996 9.5014 24.9996C10.3238 24.9996 11.0014 24.322 11.0014 23.4996V21.4996C11.0014 20.6773 10.3238 19.9996 9.5014 19.9996ZM12.4936 19.9996C12.4793 19.999 12.4649 19.999 12.4506 19.9996C12.4189 20.0022 12.3875 20.0079 12.3569 20.0165C12.3396 20.0223 12.3226 20.029 12.3061 20.0366C12.2975 20.0403 12.2891 20.0443 12.2807 20.0485C12.2741 20.0517 12.2676 20.0551 12.2612 20.0585C12.2592 20.0585 12.2572 20.0585 12.2552 20.0585C12.2404 20.0668 12.2261 20.0758 12.2122 20.0855C12.2042 20.0913 12.1964 20.0973 12.1888 20.1036C12.1787 20.1109 12.169 20.1185 12.1595 20.1265C12.1535 20.1324 12.1476 20.1383 12.1419 20.1445C12.1405 20.1478 12.1392 20.1511 12.1379 20.1545C12.1262 20.1669 12.1151 20.18 12.1047 20.1935C12.0964 20.2042 12.0887 20.2152 12.0813 20.2265C12.0737 20.2379 12.0665 20.2496 12.0598 20.2615C12.0577 20.2655 12.0557 20.2695 12.0538 20.2735C12.051 20.2794 12.0483 20.2855 12.0458 20.2916C12.0417 20.2998 12.0378 20.308 12.0341 20.3165C12.0334 20.3198 12.0327 20.3231 12.0321 20.3265C12.0268 20.3413 12.0223 20.3563 12.0184 20.3715C12.0177 20.3715 12.0171 20.3715 12.0164 20.3715C12.0132 20.3851 12.0105 20.3988 12.0084 20.4125C12.0077 20.4159 12.007 20.4192 12.0064 20.4225C12.0045 20.4362 12.0032 20.4498 12.0024 20.4636C12.0013 20.4759 12.0006 20.4882 12.0004 20.5005C12.0004 20.5039 12.0004 20.5072 12.0004 20.5106V22.5027V24.5106C11.9995 24.5768 12.0117 24.6426 12.0364 24.704C12.0611 24.7655 12.0978 24.8215 12.1443 24.8687C12.1908 24.9159 12.2463 24.9534 12.3074 24.9789C12.3685 25.0045 12.4341 25.0176 12.5004 25.0176C12.5667 25.0176 12.6323 25.0045 12.6934 24.9789C12.7545 24.9534 12.81 24.9159 12.8565 24.8687C12.903 24.8215 12.9397 24.7655 12.9644 24.704C12.9891 24.6426 13.0013 24.5768 13.0004 24.5106V23.0027H13.5004C14.3227 23.0027 15.0004 22.3251 15.0004 21.5027C15.0004 20.6804 14.3227 20.0027 13.5004 20.0027H12.5434C12.5264 20.0019 12.5095 20.0019 12.4926 20.0027L12.4936 19.9996ZM16.5014 19.9996C16.3688 19.9996 16.2416 20.0522 16.1479 20.1459C16.0541 20.2397 16.0014 20.367 16.0014 20.4996V24.4996C16.0014 24.6322 16.0541 24.7593 16.1479 24.8531C16.2416 24.9469 16.3688 24.9996 16.5014 24.9996H18.5014C18.5677 25.0005 18.6334 24.9883 18.6949 24.9636C18.7564 24.9389 18.8124 24.9022 18.8596 24.8557C18.9067 24.8091 18.9442 24.7537 18.9698 24.6926C18.9954 24.6314 19.0085 24.5658 19.0085 24.4996C19.0085 24.4333 18.9954 24.3677 18.9698 24.3066C18.9442 24.2455 18.9067 24.19 18.8596 24.1435C18.8124 24.097 18.7564 24.0603 18.6949 24.0356C18.6334 24.0109 18.5677 23.9986 18.5014 23.9996H17.0014V22.9996H18.4936C18.5598 23.0005 18.6256 22.9883 18.6871 22.9636C18.7486 22.9389 18.8046 22.9022 18.8517 22.8557C18.8989 22.8091 18.9364 22.7537 18.962 22.6926C18.9875 22.6314 19.0007 22.5658 19.0007 22.4996C19.0007 22.4333 18.9875 22.3677 18.962 22.3066C18.9364 22.2455 18.8989 22.19 18.8517 22.1435C18.8046 22.097 18.7486 22.0603 18.6871 22.0356C18.6256 22.0109 18.5598 21.9986 18.4936 21.9996H17.0014V20.9996H18.5014C18.5677 21.0005 18.6334 20.9883 18.6949 20.9636C18.7564 20.9389 18.8124 20.9022 18.8596 20.8557C18.9067 20.8091 18.9442 20.7537 18.9698 20.6926C18.9954 20.6314 19.0085 20.5658 19.0085 20.4996C19.0085 20.4333 18.9954 20.3677 18.9698 20.3066C18.9442 20.2455 18.9067 20.19 18.8596 20.1435C18.8124 20.097 18.7564 20.0603 18.6949 20.0356C18.6334 20.0109 18.5677 19.9986 18.5014 19.9996H16.5014ZM9.5014 20.9996C9.78705 20.9996 10.0014 21.2141 10.0014 21.4996V23.4996C10.0014 23.7853 9.78705 23.9996 9.5014 23.9996C9.21575 23.9996 9.0014 23.7853 9.0014 23.4996V21.4996C9.0014 21.2141 9.21575 20.9996 9.5014 20.9996ZM13.0014 20.9996H13.5014C13.7871 20.9996 14.0014 21.2141 14.0014 21.4996C14.0014 21.7853 13.7871 21.9996 13.5014 21.9996H13.0014V20.9996Z" fill="#FF5F00"/>
<path d="M16.0002 1.99918C15.0342 1.99918 14.2216 2.69544 14.0392 3.61051C14.0387 3.61151 14.0382 3.61252 14.0372 3.61452L10.6681 11.9993H5.00014C3.34678 11.9993 2.00014 13.346 2.00014 14.9993V25.9993C2.00014 26.7702 2.30125 27.4672 2.78139 27.9993H1.00014C0.933881 27.9984 0.868094 28.0106 0.80661 28.0353C0.745126 28.06 0.689168 28.0967 0.641983 28.1432C0.594798 28.1897 0.557327 28.2452 0.531754 28.3063C0.50618 28.3674 0.493011 28.433 0.493011 28.4993C0.493011 28.5656 0.50618 28.6312 0.531754 28.6923C0.557327 28.7534 0.594798 28.8088 0.641983 28.8554C0.689168 28.9019 0.745126 28.9386 0.80661 28.9633C0.868094 28.988 0.933881 29.0002 1.00014 28.9993H31.0001C31.0664 29.0002 31.1322 28.988 31.1937 28.9633C31.2551 28.9386 31.3111 28.9019 31.3583 28.8554C31.4055 28.8088 31.4429 28.7534 31.4685 28.6923C31.4941 28.6312 31.5073 28.5656 31.5073 28.4993C31.5073 28.433 31.4941 28.3674 31.4685 28.3063C31.4429 28.2452 31.4055 28.1897 31.3583 28.1432C31.3111 28.0967 31.2551 28.06 31.1937 28.0353C31.1322 28.0106 31.0664 27.9984 31.0001 27.9993H29.2189C29.699 27.4672 30.0001 26.7702 30.0001 25.9993V24.9993C30.0011 24.933 29.9888 24.8672 29.9641 24.8058C29.9394 24.7443 29.9027 24.6883 29.8562 24.6411C29.8097 24.594 29.7543 24.5565 29.6931 24.5309C29.632 24.5053 29.5664 24.4922 29.5001 24.4922C29.4339 24.4922 29.3683 24.5053 29.3071 24.5309C29.246 24.5565 29.1906 24.594 29.1441 24.6411C29.0975 24.6883 29.0609 24.7443 29.0361 24.8058C29.0114 24.8672 28.9992 24.933 29.0001 24.9993V25.9993C29.0001 27.116 28.1168 27.9993 27.0001 27.9993H5.00014C3.88348 27.9993 3.00014 27.116 3.00014 25.9993V14.9993C3.00014 13.8827 3.88348 12.9993 5.00014 12.9993H10.2658L10.0607 13.511C10.0397 13.51 10.0215 13.4993 10.0002 13.4993C9.45382 13.4993 9.0002 13.953 9.00018 14.4993C9.0002 15.0457 9.45382 15.4993 10.0002 15.4993C10.5465 15.4993 11.0002 15.0457 11.0002 14.4993C11.0002 14.3533 10.9624 14.217 10.9045 14.0911L11.3439 12.9993H20.6584L21.0959 14.0891C21.0376 14.2154 21.0002 14.3527 21.0002 14.4993C21.0002 15.0457 21.4538 15.4993 22.0002 15.4993C22.5465 15.4993 23.0002 15.0457 23.0002 14.4993C23.0002 13.953 22.5465 13.4993 22.0002 13.4993C21.9795 13.4993 21.962 13.5097 21.9416 13.511L21.7365 12.9993H27.0002C28.1168 12.9993 29.0002 13.8827 29.0002 14.9993V19.9446C28.9992 20.0109 29.0115 20.0766 29.0362 20.1381C29.0609 20.1996 29.0976 20.2556 29.1441 20.3027C29.1906 20.3499 29.2461 20.3874 29.3072 20.413C29.3683 20.4385 29.4339 20.4517 29.5002 20.4517C29.5664 20.4517 29.632 20.4385 29.6932 20.413C29.7543 20.3874 29.8097 20.3499 29.8563 20.3027C29.9028 20.2556 29.9395 20.1996 29.9642 20.1381C29.9889 20.0766 30.0011 20.0109 30.0002 19.9446V14.9993C30.0002 13.346 28.6535 11.9993 27.0002 11.9993H21.3342L17.965 3.61452C17.9641 3.61252 17.962 3.61051 17.961 3.60851C17.7779 2.69437 16.9654 1.99915 16.0001 1.99915L16.0002 1.99918ZM16.0002 2.99918C16.5584 2.99918 17.0002 3.44098 17.0002 3.99918C17.0002 4.55748 16.5584 4.99918 16.0002 4.99918C15.442 4.99918 15.0002 4.55748 15.0002 3.99918C15.0002 3.44098 15.442 2.99918 16.0002 2.99918ZM17.5451 5.24918L20.256 11.9992H11.7463L14.4572 5.25114C14.825 5.70239 15.3772 5.99918 16.0002 5.99918C16.6241 5.99918 17.1774 5.70165 17.5451 5.24918V5.24918ZM4.50018 15.9992C4.36758 15.9992 4.24042 16.0519 4.14665 16.1456C4.05289 16.2394 4.0002 16.3666 4.00018 16.4992V26.4992C4.0002 26.6318 4.05289 26.759 4.14665 26.8527C4.24042 26.9465 4.36758 26.9992 4.50018 26.9992H27.5002C27.6328 26.9992 27.76 26.9465 27.8537 26.8527C27.9475 26.759 28.0002 26.6318 28.0002 26.4992V16.4992C28.0002 16.3666 27.9475 16.2394 27.8537 16.1456C27.76 16.0519 27.6328 15.9992 27.5002 15.9992H4.50018ZM5.00018 16.9992H27.0002V25.9992H5.00018V16.9992ZM29.4924 21.4933C29.3601 21.4954 29.234 21.5498 29.1418 21.6446C29.0496 21.7394 28.9986 21.8669 29.0002 21.9992V22.9992C28.9992 23.0654 29.0115 23.1312 29.0362 23.1927C29.0609 23.2542 29.0976 23.3102 29.1441 23.3573C29.1906 23.4045 29.2461 23.442 29.3072 23.4676C29.3683 23.4931 29.4339 23.5063 29.5002 23.5063C29.5664 23.5063 29.632 23.4931 29.6932 23.4676C29.7543 23.442 29.8097 23.4045 29.8563 23.3573C29.9028 23.3102 29.9395 23.2542 29.9642 23.1927C29.9889 23.1312 30.0011 23.0654 30.0002 22.9992V21.9992C30.001 21.9324 29.9884 21.8661 29.9631 21.8042C29.9378 21.7424 29.9004 21.6862 29.8531 21.639C29.8057 21.5919 29.7494 21.5547 29.6875 21.5297C29.6255 21.5046 29.5592 21.4923 29.4924 21.4933V21.4933ZM19.9494 29.9992C19.8837 30.0025 19.8194 30.0187 19.76 30.047C19.7006 30.0752 19.6474 30.1148 19.6033 30.1636C19.5592 30.2124 19.5252 30.2694 19.5031 30.3313C19.4811 30.3932 19.4715 30.4589 19.4748 30.5246C19.4781 30.5903 19.4944 30.6546 19.5226 30.714C19.5508 30.7734 19.5904 30.8266 19.6392 30.8707C19.688 30.9148 19.745 30.9488 19.8069 30.9708C19.8689 30.9929 19.9345 31.0025 20.0002 30.9992H24.9943C25.0606 31.0001 25.1264 30.9879 25.1879 30.9632C25.2494 30.9385 25.3053 30.9018 25.3525 30.8553C25.3997 30.8087 25.4371 30.7533 25.4627 30.6922C25.4883 30.631 25.5015 30.5654 25.5015 30.4992C25.5015 30.4329 25.4883 30.3673 25.4627 30.3062C25.4371 30.2451 25.3997 30.1896 25.3525 30.1431C25.3053 30.0966 25.2494 30.0599 25.1879 30.0352C25.1264 30.0105 25.0606 29.9982 24.9943 29.9992H20.0002C19.9833 29.9983 19.9663 29.9983 19.9494 29.9992V29.9992ZM27.051 29.9992C26.9853 30.0025 26.9209 30.0187 26.8616 30.047C26.8022 30.0752 26.7489 30.1148 26.7048 30.1636C26.6608 30.2124 26.6268 30.2694 26.6047 30.3313C26.5827 30.3932 26.573 30.4589 26.5764 30.5246C26.5797 30.5903 26.5959 30.6546 26.6241 30.714C26.6524 30.7734 26.692 30.8266 26.7408 30.8707C26.7896 30.9148 26.8466 30.9488 26.9085 30.9708C26.9704 30.9929 27.0361 31.0025 27.1018 30.9992H29.0002C29.0665 31.0001 29.1322 30.9879 29.1937 30.9632C29.2552 30.9385 29.3112 30.9018 29.3584 30.8553C29.4055 30.8087 29.443 30.7533 29.4686 30.6922C29.4942 30.631 29.5073 30.5654 29.5073 30.4992C29.5073 30.4329 29.4942 30.3673 29.4686 30.3062C29.443 30.2451 29.4055 30.1896 29.3584 30.1431C29.3112 30.0966 29.2552 30.0599 29.1937 30.0352C29.1322 30.0105 29.0665 29.9982 29.0002 29.9992H27.1018C27.0848 29.9983 27.0679 29.9983 27.051 29.9992V29.9992Z" fill="black"/>
</svg>
