<svg width="32" height="32" viewBox="0 0 32 32" fill="none" xmlns="http://www.w3.org/2000/svg">
<path d="M28.0984 20.0605C28.3729 19.2339 28.5166 18.373 28.5168 17.4966H3.51678C3.52178 20.6604 5.39821 23.6201 8.54022 25.4966H23.5109C24.0748 25.1588 24.5976 24.786 25.0761 24.3835C26.7229 23.1682 27.5528 21.6645 28.0984 20.0605V20.0605Z" fill="#AFAFAF"/>
<path d="M18.2375 5.65094C18.0569 5.65094 17.8768 5.67293 17.7024 5.71893C16.6356 6.00483 16.0026 7.10135 16.2883 8.16815C16.2933 8.18915 16.2997 8.21004 16.3059 8.23004C15.5118 8.67824 15.1214 9.60685 15.3567 10.4879C15.4741 10.9276 15.738 11.3141 16.1047 11.5836C15.9224 11.9988 15.8866 12.4637 16.0032 12.902C16.1211 13.3419 16.3857 13.7285 16.7532 13.9977C16.5704 14.4135 16.5345 14.8792 16.6516 15.3181C16.8886 16.1994 17.6922 16.8084 18.6047 16.7984C18.6087 16.8184 18.6117 16.8394 18.6164 16.8594C18.6784 17.0871 18.7803 17.302 18.9172 17.4942H22.1848C22.5266 17.0091 22.6353 16.3974 22.4817 15.8242C22.4757 15.8042 22.469 15.7842 22.4622 15.7642C23.2571 15.3158 23.6477 14.3861 23.4114 13.5045C23.294 13.0648 23.0301 12.6783 22.6633 12.4088C22.8457 11.9936 22.8815 11.5286 22.7649 11.0904C22.6475 10.6507 22.3836 10.2641 22.0168 9.99469C22.1992 9.57939 22.235 9.11463 22.1184 8.67633C21.8814 7.79503 21.0778 7.18584 20.1653 7.19574C20.1613 7.17374 20.1563 7.15277 20.1516 7.13177C19.919 6.26367 19.1361 5.65735 18.2375 5.64935V5.65094Z" fill="#86C518"/>
<path d="M27.8 8.26025C27.0686 8.24325 26.3863 8.62665 26.0207 9.26025C26.0106 9.27925 26.0009 9.29825 25.9914 9.31725C25.1123 9.07175 24.1785 9.45264 23.7219 10.243C23.4941 10.6366 23.4073 11.0962 23.4758 11.5458C23.0531 11.7107 22.6991 12.0145 22.4719 12.4071C22.2437 12.8013 22.1569 13.2616 22.2258 13.7118C21.8031 13.8767 21.4491 14.1805 21.2219 14.5731C20.7663 15.3638 20.9037 16.3625 21.5559 17.0008C21.5446 17.0178 21.5335 17.0358 21.5227 17.0538C21.4433 17.1936 21.3809 17.3425 21.3371 17.4973H27.507C27.5594 17.2579 27.5673 17.011 27.5304 16.7687C27.9531 16.6038 28.3071 16.3 28.5343 15.9073C28.7625 15.5131 28.8494 15.053 28.7804 14.6027C29.2038 14.4382 29.5585 14.1343 29.7863 13.7413C30.2413 12.9502 30.1031 11.9515 29.4504 11.3137C29.4631 11.2957 29.4754 11.2777 29.4875 11.2587C30.0386 10.3023 29.7108 9.08029 28.755 8.52819H28.753C28.4628 8.36059 28.1351 8.26851 27.8 8.26061L27.8 8.26025Z" fill="#76B900"/>
<path d="M15.522 16.2859C17.1788 16.2859 18.522 14.9428 18.522 13.2859C18.522 11.6291 17.1788 10.2859 15.522 10.2859C13.8651 10.2859 12.522 11.6291 12.522 13.2859C12.522 14.9428 13.8651 16.2859 15.522 16.2859Z" fill="#FF5F00"/>
<path d="M6.51678 13.4966C4.85993 13.4966 3.51678 14.8397 3.51678 16.4966C3.5175 16.8373 3.57628 17.1755 3.69061 17.4966H9.341C9.45598 17.1756 9.51543 16.8375 9.51678 16.4966C9.51678 14.8397 8.17363 13.4966 6.51678 13.4966Z" fill="#FF5F00"/>
<path d="M8.59493 11.6039C8.07469 11.6139 7.57795 11.8218 7.21015 12.1898C6.4293 12.9708 6.4293 14.237 7.21015 15.018C7.22555 15.033 7.24115 15.048 7.25705 15.063C6.79248 15.8485 6.91864 16.8489 7.5637 17.4945H7.56569H16.6321C16.6341 16.9633 16.4247 16.4532 16.0501 16.0766C15.728 15.7545 15.3056 15.5518 14.8528 15.5023C14.8035 15.0514 14.6024 14.6307 14.2825 14.3091C13.9604 13.9869 13.5381 13.7843 13.0852 13.7348C13.0354 13.2836 12.8336 12.8627 12.513 12.5414C11.8668 11.897 10.8665 11.7716 10.0813 12.2367C10.0672 12.2207 10.0529 12.2038 10.0383 12.1878C9.65617 11.8054 9.1355 11.5939 8.59496 11.6017L8.59493 11.6039Z" fill="#76B900"/>
<path d="M18.2201 7.10741C18.1417 7.10534 18.0638 7.1218 17.9929 7.15539C17.922 7.18897 17.8599 7.23877 17.8118 7.30077C17.7637 7.36277 17.7309 7.43528 17.716 7.51232C17.701 7.58936 17.7045 7.66878 17.726 7.74425L20.0756 16.5138C20.0925 16.5773 20.1217 16.6368 20.1617 16.689C20.2016 16.7411 20.2514 16.7849 20.3083 16.8179C20.3651 16.8508 20.4279 16.8722 20.4931 16.8808C20.5582 16.8895 20.6244 16.8852 20.6879 16.8683C20.7514 16.8513 20.8109 16.8222 20.8631 16.7822C20.9153 16.7423 20.9591 16.6925 20.992 16.6356C21.0249 16.5787 21.0463 16.5159 21.0549 16.4508C21.0636 16.3857 21.0593 16.3195 21.0424 16.256L18.6928 7.48449C18.6659 7.37867 18.6052 7.28449 18.5199 7.21642C18.4345 7.14835 18.3292 7.11004 18.2201 7.10741V7.10741Z" fill="#76B900"/>
<path d="M17.1828 12.4966V17.4966H20.4836C20.7115 17.0405 20.8508 16.5355 20.8508 15.9966C20.8508 14.0636 19.2079 12.4966 17.1828 12.4966Z" fill="#FFDC5D"/>
<path d="M4.01701 18.9962C3.95076 18.9953 3.88497 19.0075 3.82349 19.0322C3.762 19.0569 3.70604 19.0936 3.65886 19.1401C3.61167 19.1866 3.5742 19.2421 3.54863 19.3032C3.52306 19.3643 3.50989 19.4299 3.50989 19.4962C3.50989 19.5625 3.52306 19.6281 3.54863 19.6892C3.5742 19.7503 3.61167 19.8058 3.65886 19.8523C3.70604 19.8988 3.762 19.9355 3.82349 19.9602C3.88497 19.9849 3.95076 19.9971 4.01701 19.9962H11.5092C11.5755 19.9971 11.6412 19.9849 11.7027 19.9602C11.7642 19.9355 11.8202 19.8988 11.8674 19.8523C11.9145 19.8058 11.952 19.7503 11.9776 19.6892C12.0032 19.6281 12.0163 19.5625 12.0163 19.4962C12.0163 19.4299 12.0032 19.3643 11.9776 19.3032C11.952 19.2421 11.9145 19.1866 11.8674 19.1401C11.8202 19.0936 11.7642 19.0569 11.7027 19.0322C11.6412 19.0075 11.5755 18.9953 11.5092 18.9962H4.01701Z" fill="#D1D1D1"/>
<path d="M22.517 25.496H9.51697C8.96468 25.496 8.51697 25.9437 8.51697 26.496C8.51697 27.0483 8.96468 27.496 9.51697 27.496H22.517C23.0693 27.496 23.517 27.0483 23.517 26.496C23.517 25.9437 23.0693 25.496 22.517 25.496Z" fill="#919090"/>
<path d="M18.6874 25.4964C19.2414 25.4964 19.6874 25.9424 19.6874 26.4964C19.6874 27.0504 19.2414 27.4964 18.6874 27.4964H22.5175C23.0715 27.4964 23.5175 27.0504 23.5175 26.4964C23.5175 25.9424 23.0715 25.4964 22.5175 25.4964H18.6874Z" fill="#AFAFAF"/>
<path d="M27.7807 9.71883C27.6907 9.71812 27.6022 9.74169 27.5245 9.78706C27.4469 9.83244 27.3828 9.89794 27.3393 9.97664L23.1967 17.1524C23.1607 17.2093 23.1366 17.273 23.1258 17.3394C23.115 17.4059 23.1177 17.4739 23.1338 17.5393C23.1499 17.6046 23.1791 17.6661 23.2195 17.7199C23.26 17.7738 23.3109 17.8189 23.3692 17.8526C23.4275 17.8863 23.492 17.9078 23.5588 17.916C23.6257 17.9241 23.6935 17.9187 23.7582 17.9C23.8229 17.8813 23.8831 17.8498 23.9353 17.8072C23.9875 17.7647 24.0306 17.712 24.0619 17.6524L28.2065 10.4766C28.252 10.401 28.2766 10.3146 28.2779 10.2263C28.2793 10.138 28.2572 10.0509 28.2139 9.97395C28.1706 9.89697 28.1078 9.83273 28.0317 9.78792C27.9556 9.74311 27.869 9.71931 27.7807 9.71883Z" fill="#558500"/>
<path d="M8.59119 13.0723C8.49201 13.0728 8.3952 13.1027 8.31306 13.1583C8.23093 13.2138 8.16718 13.2926 8.12991 13.3845C8.09265 13.4764 8.08354 13.5773 8.10378 13.6744C8.12401 13.7715 8.17266 13.8604 8.24353 13.9298L12.0931 17.7794C12.1392 17.8274 12.1944 17.8658 12.2555 17.8923C12.3165 17.9187 12.3823 17.9327 12.4489 17.9334C12.5154 17.9341 12.5815 17.9216 12.6431 17.8964C12.7047 17.8713 12.7607 17.834 12.8078 17.7869C12.8549 17.7399 12.8921 17.6839 12.9172 17.6223C12.9424 17.5606 12.955 17.4946 12.9543 17.428C12.9535 17.3615 12.9395 17.2958 12.9131 17.2347C12.8866 17.1736 12.8482 17.1184 12.8002 17.0723L8.95056 13.2227C8.90377 13.1749 8.84785 13.1369 8.78612 13.111C8.72439 13.0852 8.6581 13.0721 8.59119 13.0723V13.0723Z" fill="#558500"/>
<path d="M4.77287 20.9961C4.09671 20.9861 4.09671 22.0057 4.77287 21.9961H9.30607C9.98223 22.0061 9.98223 20.9865 9.30607 20.9961H4.77287Z" fill="#D1D1D1"/>
<path d="M24.5175 17.4964C24.5173 18.3728 24.3721 19.2343 24.0976 20.0609C23.552 21.6649 22.723 23.1678 21.0761 24.3831C20.5977 24.7856 20.0755 25.1586 19.5117 25.4964H23.5117C24.0755 25.1586 24.5977 24.7856 25.0761 24.3831C26.723 23.1678 27.552 21.6649 28.0976 20.0609C28.3721 19.2343 28.5173 18.3728 28.5175 17.4964H24.5175Z" fill="#AFAFAF"/>
<path d="M17.5766 5.22223C16.3426 5.55303 15.6619 6.7796 15.8442 8.0152C15.2454 8.4688 14.8562 9.1326 14.811 9.857C13.7331 10.0837 12.8258 10.8088 12.3617 11.8062C11.6958 11.4409 10.8829 11.4309 10.1586 11.7322C9.70631 11.3663 9.17733 11.0871 8.59026 11.0955H8.58826C7.941 11.1085 7.32009 11.3672 6.85973 11.8279C6.51749 12.1702 6.30949 12.5835 6.22301 13.0194C4.43626 13.1735 3.0199 14.6647 3.0199 16.4901C3.02041 16.7333 3.05519 16.9719 3.10579 17.2088C3.04919 17.2928 3.0193 17.3911 3.0199 17.492C3.0219 18.9006 3.39271 20.2586 4.04137 21.5135C4.09687 21.6293 4.11968 21.704 4.24451 21.8924C5.13381 23.439 6.47197 24.8022 8.1742 25.8434C8.0786 26.0402 8.0199 26.2584 8.0199 26.4901C8.0199 26.6664 8.05659 26.8324 8.11359 26.9901H4.81282C4.13666 26.9801 4.13666 27.9997 4.81282 27.9901H9.51984H30.512C30.5454 27.9902 30.5788 27.99 30.6116 27.98C31.2037 27.8606 31.116 26.9889 30.512 26.9898H23.9261C23.9831 26.8321 24.0198 26.6661 24.0198 26.4898C24.0198 26.2622 23.9639 26.0472 23.8714 25.8531C24.4177 25.5187 24.9312 25.1543 25.4007 24.7593C25.9483 24.3333 25.2681 23.5274 24.7561 23.9957C24.3296 24.3545 23.8575 24.6831 23.3577 24.9898H8.70339C7.3563 24.1666 6.28408 23.1389 5.50807 21.9898C5.26766 21.6438 5.05787 21.3065 4.92018 20.9898C4.75819 20.6635 4.61636 20.3295 4.50026 19.9898C4.3919 19.6432 4.26954 19.2867 4.23073 18.9898C4.16423 18.6598 4.11732 18.3266 4.09401 17.9898H27.9383C27.8943 18.6354 27.8323 19.2801 27.6277 19.8961C27.4168 20.5289 28.366 20.8453 28.577 20.2125C28.8677 19.3369 29.0201 18.4208 29.0203 17.4898C29.0203 17.2137 28.7964 16.9899 28.5203 16.9898H28.0184C28.018 16.9798 28.0187 16.9728 28.0184 16.9648C28.3845 16.7476 28.7541 16.5207 28.9695 16.1484C29.1977 15.7543 29.2228 15.2948 29.2156 14.8437C29.6097 14.6254 29.9936 14.3756 30.2215 13.9824H30.2235C30.7316 13.099 30.5637 12.0428 29.9559 11.252C30.464 10.1021 30.1204 8.73015 29.0086 8.08795H29.0066C28.9346 8.04695 28.8534 8.02391 28.7703 8.02191C28.5437 7.91951 28.3062 7.85399 28.0594 7.82269C27.9854 7.77869 27.9013 7.75475 27.8152 7.75275C26.9769 7.73375 26.2218 8.17188 25.7449 8.85028C24.7717 8.74138 23.7936 9.1185 23.2918 9.987C23.1858 10.1706 23.1261 10.3687 23.0906 10.5731C22.9398 10.3046 22.7273 10.0702 22.5027 9.85236C22.6261 9.42046 22.7208 8.97198 22.6043 8.53388C22.3421 7.55898 21.4872 6.9393 20.5105 6.7995C20.1887 5.9387 19.4405 5.3617 18.534 5.237C18.1615 5.168 17.9726 5.15699 17.5766 5.22199V5.22223ZM18.2371 6.14594H18.2391C18.9131 6.15594 19.4945 6.60306 19.6707 7.25336C19.6737 7.26436 19.6758 7.27929 19.6768 7.28229C19.7206 7.52219 19.931 7.69545 20.1748 7.69245C20.8617 7.68245 21.4612 8.13854 21.6397 8.80194H21.6377C21.7252 9.13074 21.6982 9.4785 21.5614 9.7901C21.4676 10.0045 21.5349 10.2552 21.7236 10.3937C21.9986 10.5957 22.198 10.8861 22.2861 11.2159H22.2841C22.3368 11.4139 22.3383 11.6202 22.3056 11.8273C22.2061 11.9273 22.1143 12.0341 22.0419 12.1592C21.8137 12.5534 21.7886 13.0129 21.7958 13.4641C21.4499 13.6565 21.1168 13.8793 20.8856 14.1964C20.7157 13.8772 20.5076 13.5819 20.2587 13.3195C19.9538 13.0206 19.3652 12.5829 18.9755 12.4016C18.9433 12.3866 18.9144 12.3665 18.8818 12.3525C18.49 10.9481 17.2668 9.93552 15.8134 9.81342C15.86 9.33962 16.1217 8.90587 16.5556 8.66107C16.7594 8.54507 16.8552 8.30314 16.7861 8.07904C16.7801 8.06004 16.7781 8.04999 16.7781 8.04999C16.7771 8.03999 16.7751 8.03995 16.7741 8.03595C16.5584 7.23065 17.0279 6.41466 17.8327 6.19806C17.9619 6.16406 18.0983 6.14508 18.237 6.14508L18.2371 6.14594ZM23.2902 16.9999H22.0597C22.0587 16.8667 22.0045 16.7395 21.9093 16.6463C21.4185 16.1658 21.3164 15.4194 21.6593 14.8242C21.8299 14.5309 22.0952 14.3029 22.4113 14.1795C22.6292 14.0945 22.759 13.8698 22.7238 13.6385C22.6721 13.3008 22.7362 12.9557 22.9074 12.66C23.0779 12.3654 23.3443 12.1372 23.6613 12.0135C23.8792 11.9285 24.009 11.7037 23.9738 11.4725C23.9224 11.1352 23.9866 10.7913 24.1574 10.496H24.1594C24.5031 9.90103 25.1988 9.6158 25.8606 9.8006C26.0913 9.8656 26.3354 9.75759 26.4426 9.54279C26.4486 9.53179 26.4529 9.52178 26.4582 9.51178C26.7328 9.03588 27.2427 8.74908 27.7922 8.76178L27.7918 8.76117C28.0431 8.77117 28.2889 8.83624 28.5066 8.96234H28.5086H28.5107C29.23 9.37964 29.4719 10.286 29.0575 11.0073C29.0535 11.0173 29.0505 11.0193 29.0458 11.0253C28.9038 11.2259 28.9287 11.4999 29.1044 11.6717C29.5953 12.1514 29.6977 12.8949 29.3564 13.4901C29.1855 13.7849 28.92 14.0133 28.6025 14.1367C28.3846 14.2217 28.2548 14.4464 28.29 14.6776C28.3417 15.0155 28.2757 15.3604 28.1044 15.6561C27.9339 15.9507 27.6695 16.1789 27.3525 16.3026C27.1346 16.3876 27.0048 16.6124 27.04 16.8436C27.048 16.8956 27.047 16.9475 27.05 16.9999H24.4445H23.2902ZM15.5262 10.7885C16.4451 10.7885 17.2564 11.2869 17.6902 12.0483C17.523 12.0283 17.3588 11.9993 17.1863 11.9993C16.9102 11.9993 16.6864 12.2231 16.6863 12.4993V16.0637C16.603 15.9436 16.5115 15.8289 16.407 15.7239C16.0845 15.4013 15.6466 15.2589 15.2078 15.1497C15.0988 14.7148 14.9586 14.2791 14.6395 13.9583C14.3173 13.6359 13.8803 13.4934 13.4422 13.384C13.3713 13.1015 13.2814 12.8223 13.1434 12.5715C13.459 11.5217 14.4146 10.789 15.5262 10.7883V10.7885ZM11.3133 16.9991H7.81914C7.43887 16.5173 7.37115 15.8589 7.69023 15.3195C7.81 15.1184 7.77434 14.8612 7.60434 14.7003C7.59234 14.6893 7.57933 14.6773 7.56723 14.6653C6.97742 14.0754 6.97742 13.1342 7.56723 12.5443C7.84204 12.2693 8.21378 12.1129 8.60631 12.1048L8.60625 12.1049H8.60825C9.01165 12.0949 9.3984 12.2579 9.68442 12.5424C9.69142 12.5524 9.69663 12.5544 9.70983 12.5694C9.86799 12.7497 10.1319 12.7923 10.3387 12.671C10.9297 12.3209 11.6766 12.4144 12.163 12.8995C12.4028 13.1403 12.5534 13.4542 12.5907 13.7921C12.616 14.0257 12.8005 14.2102 13.034 14.2354C13.3732 14.2724 13.6891 14.4241 13.9305 14.6651C14.1705 14.9063 14.3213 15.2213 14.3583 15.5596C14.3836 15.7932 14.568 15.9777 14.8016 16.003C15.1407 16.04 15.4567 16.1918 15.6981 16.4327C15.8587 16.5941 15.9743 16.7883 16.0477 16.9991H12.7274H11.3133ZM17.6863 13.1967C19.1728 13.4524 20.3543 14.5335 20.3543 15.9995C20.3543 16.3509 20.2674 16.681 20.1434 16.9995H17.6863V13.1967ZM6.23906 14.0248C6.32356 14.4207 6.4953 14.8057 6.7625 15.1381C6.51075 15.7436 6.47848 16.4081 6.68631 16.9995H4.07889C4.04459 16.8338 4.02068 16.6671 4.02028 16.4975C4.02028 15.2072 4.98789 14.1651 6.23903 14.0248H6.23906ZM27.2195 21.3823C27.0549 21.3943 26.9065 21.486 26.823 21.6284C26.5999 21.9936 26.3486 22.3479 26.0672 22.6889C25.5734 23.2074 26.4216 23.9071 26.8367 23.3237C27.1473 22.9473 27.4281 22.5563 27.6766 22.1498C27.8838 21.823 27.6572 21.3947 27.2703 21.3823C27.2534 21.3814 27.2364 21.3814 27.2195 21.3823H27.2195ZM9.52031 25.9995H22.5203C22.8059 25.9995 23.0203 26.2138 23.0203 26.4995C23.0203 26.785 22.8059 26.9995 22.5203 26.9995H9.52031C9.23468 26.9995 9.02031 26.785 9.02031 26.4995C9.02031 26.2138 9.23468 25.9995 9.52031 25.9995ZM1.46172 26.9995C0.795048 27.0335 0.84584 28.0334 1.51253 27.9995H2.46956C3.14531 28.0115 3.14929 26.993 2.47356 26.9995H2.46956H1.51253C1.49563 26.9987 1.47862 26.9987 1.46172 26.9995Z" fill="black"/>
</svg>
